<?xml version="1.0" encoding="UTF-8" standalone="no"?>
<!-- Created with Inkscape (http://www.inkscape.org/) -->

<svg
   width="210mm"
   height="297mm"
   viewBox="0 0 210 297"
   version="1.1"
   id="svg1971"
   xml:space="preserve"
   inkscape:export-filename="..\body.side.panel.mask.png"
   inkscape:export-xdpi="498"
   inkscape:export-ydpi="498"
   inkscape:version="1.2.2 (732a01da63, 2022-12-09)"
   sodipodi:docname="body.side.panel.mask.svg"
   xmlns:inkscape="http://www.inkscape.org/namespaces/inkscape"
   xmlns:sodipodi="http://sodipodi.sourceforge.net/DTD/sodipodi-0.dtd"
   xmlns:xlink="http://www.w3.org/1999/xlink"
   xmlns="http://www.w3.org/2000/svg"
   xmlns:svg="http://www.w3.org/2000/svg"><sodipodi:namedview
     id="namedview1973"
     pagecolor="#ffffff"
     bordercolor="#666666"
     borderopacity="1.0"
     inkscape:showpageshadow="2"
     inkscape:pageopacity="0.0"
     inkscape:pagecheckerboard="0"
     inkscape:deskcolor="#d1d1d1"
     inkscape:document-units="mm"
     showgrid="false"
     inkscape:zoom="0.13811175"
     inkscape:cx="1484.3052"
     inkscape:cy="658.88672"
     inkscape:window-width="1846"
     inkscape:window-height="1057"
     inkscape:window-x="1986"
     inkscape:window-y="-8"
     inkscape:window-maximized="1"
     inkscape:current-layer="layer1"
     showguides="true"><sodipodi:guide
       position="-291.62334,148.63653"
       orientation="0,-1"
       id="guide3667"
       inkscape:locked="false" /><sodipodi:guide
       position="-293.29959,147.22968"
       orientation="1,0"
       id="guide3669"
       inkscape:locked="false" /><sodipodi:guide
       position="-270.02443,143.06565"
       orientation="0,-1"
       id="guide3673"
       inkscape:locked="false" /><sodipodi:guide
       position="-293.22473,145.78538"
       orientation="0,-1"
       id="guide3742"
       inkscape:locked="false" /><sodipodi:guide
       position="-270.02443,145.37804"
       orientation="1,0"
       id="guide3797"
       inkscape:locked="false" /></sodipodi:namedview><defs
     id="defs1968"><inkscape:path-effect
       effect="fillet_chamfer"
       id="path-effect3313"
       is_visible="true"
       lpeversion="1"
       nodesatellites_param="F,0,0,1,0,0,0,1 @ F,0,0,1,0,0,0,1 @ F,0,1,1,0,3.175,0,1 @ F,0,0,1,0,0,0,1 @ F,0,0,1,0,0,0,1 @ F,0,0,1,0,0,0,1 @ F,0,0,1,0,0,0,1 @ F,0,0,1,0,0,0,1 @ F,0,1,1,0,3.175,0,1 @ F,0,1,1,0,3.175,0,1"
       unit="px"
       method="auto"
       mode="F"
       radius="12"
       chamfer_steps="1"
       flexible="false"
       use_knot_distance="true"
       apply_no_radius="true"
       apply_with_radius="true"
       only_selected="true"
       hide_knots="false" /><inkscape:path-effect
       effect="fillet_chamfer"
       id="path-effect3303"
       is_visible="true"
       lpeversion="1"
       nodesatellites_param="F,0,0,1,0,0,0,1 @ F,0,0,1,0,0,0,1 @ F,0,1,1,0,3.175,0,1 @ F,0,0,1,0,0,0,1 @ F,0,0,1,0,0,0,1 @ F,0,0,1,0,0,0,1 @ F,0,0,1,0,0,0,1 @ F,0,0,1,0,0,0,1 @ F,0,1,1,0,3.175,0,1 @ F,0,1,1,0,3.175,0,1"
       unit="px"
       method="auto"
       mode="F"
       radius="12"
       chamfer_steps="1"
       flexible="false"
       use_knot_distance="true"
       apply_no_radius="true"
       apply_with_radius="true"
       only_selected="true"
       hide_knots="false" /><inkscape:path-effect
       effect="fillet_chamfer"
       id="path-effect3283"
       is_visible="true"
       lpeversion="1"
       nodesatellites_param="F,0,0,1,0,0,0,1 @ F,0,0,1,0,0,0,1 @ F,0,1,1,0,3.175,0,1 @ F,0,0,1,0,0,0,1 @ F,0,0,1,0,0,0,1 @ F,0,0,1,0,0,0,1 @ F,0,0,1,0,0,0,1 @ F,0,0,1,0,0,0,1 @ F,0,1,1,0,3.175,0,1 @ F,0,1,1,0,3.175,0,1"
       unit="px"
       method="auto"
       mode="F"
       radius="12"
       chamfer_steps="1"
       flexible="false"
       use_knot_distance="true"
       apply_no_radius="true"
       apply_with_radius="true"
       only_selected="true"
       hide_knots="false" /></defs><g
     inkscape:label="Laag 1"
     inkscape:groupmode="layer"
     id="layer1"
     style="opacity:0.55447471"><image
       width="476.25"
       height="237.33125"
       preserveAspectRatio="none"
       xlink:href="../../references/78lotus79.gif"
       id="image2100"
       x="-483.29718"
       y="-0.68939251"
       style="display:inline" /><image
       width="210"
       height="210"
       preserveAspectRatio="none"
       xlink:href="../uv/body.side.panel.uv.png"
       id="image3293"
       x="0"
       y="0"
       inkscape:label="uv" /></g><g
     inkscape:groupmode="layer"
     id="layer3"
     inkscape:label="Laag 2"
     style="opacity:1"><g
       id="g3221"
       transform="matrix(0,-1,-1,0,151.9071,103.2645)"><rect
         style="display:inline;opacity:1;fill:#000000;fill-opacity:1;fill-rule:evenodd;stroke:none;stroke-width:0.373982;stroke-linecap:round;stroke-linejoin:round;stroke-dasharray:none;paint-order:markers fill stroke"
         id="rect3275"
         width="210"
         height="210"
         x="-106.7355"
         y="-58.092899" /><path
         style="display:inline;fill:#ffffff;fill-opacity:1;stroke:none;stroke-width:0.265;stroke-linecap:butt;stroke-linejoin:miter;stroke-dasharray:none;stroke-opacity:1"
         d="m 68.008031,84.216808 -1.915721,9.054769 c 3.983512,2.99045 7.185009,4.673894 12.078012,4.370247 6.905875,-0.787973 11.489072,-6.048976 11.958278,-12.826344 0.0951,-2.39137 -0.789591,-4.345182 -2.155185,-6.226087 -2.516086,-2.802865 -5.823045,-3.495345 -9.42893,-3.262692 l 0.453069,-1.691222 14.423687,0.1347 1.676255,-7.318645 -22.4648,-0.329264 -3.636872,14.921656 4.819229,4.220567 c 1.478598,-1.679866 3.485298,-2.968277 5.313127,-2.33478 1.223084,0.423902 2.11746,2.166138 1.825921,3.427341 -0.44815,1.938703 -2.844462,3.483068 -4.834197,3.502173 -3.293603,0.03162 -5.88056,-3.195125 -8.111873,-5.642419 z"
         id="path2468"
         sodipodi:nodetypes="ccccccccccccaaac" /><path
         id="path2477"
         style="display:inline;fill:none;stroke:#000000;stroke-width:0.665;stroke-linecap:butt;stroke-linejoin:miter;stroke-dasharray:none;stroke-opacity:1"
         d="m 70.175781,80.667969 3.578125,3.134765 c 1.496684,-1.469763 3.763703,-2.641969 5.864019,-1.811147 2.360296,0.989433 3.259891,4.409775 1.514948,6.348302 -1.80164,2.43853 -5.44322,3.343504 -8.104243,1.799209 -1.729455,-0.87608 -3.11721,-2.272244 -4.413396,-3.685973 l -1.347656,6.367187 c 2.85231,2.176611 6.27133,3.936694 9.951172,3.800782 4.786934,-0.05739 9.393331,-3.266006 10.960564,-7.815894 1.011468,-2.534642 1.329503,-5.555073 -0.05872,-8.018766 -1.234201,-2.572095 -3.974047,-4.124562 -6.756905,-4.353155 -1.457934,-0.165422 -2.926183,-0.0551 -4.385176,0.03547 l 1.016772,-3.900391 c 4.707023,0.04571 9.879713,0.08971 14.586743,0.134766 l 1.191407,-5.212891 c -6.770834,-0.09896 -13.541667,-0.197916 -20.3125,-0.296875 l -3.285157,13.47461 z"
         sodipodi:nodetypes="cccccccccccccccccc" /><path
         style="opacity:1;fill:none;stroke:#ffffff;stroke-width:1.2;stroke-linecap:butt;stroke-linejoin:miter;stroke-dasharray:none;stroke-opacity:1"
         d="m 56.639965,182.19612 c 0.805159,7.07396 3.516564,11.03427 8.487528,15.87443 2.288547,1.73778 7.120316,5.34588 10.580981,7.54124 1.479438,0.93851 3.194328,0.19838 3.447413,-1.53412 0.436394,-2.98733 0.596735,-6.7571 0.741606,-8.95821 l 0.508863,-14.93662 0.598662,-42.50502 0.897993,-29.69365 1.344864,-55.682635 c 0.0896,-4.596861 0.321926,-9.090814 0.559243,-13.701246 0.09013,-1.750941 -1.229408,-2.876109 -2.944908,-2.513014 l -23.016505,4.871577 a 3.8636648,3.8636648 128.63744 0 0 -3.063269,3.832152 z"
         id="path3278"
         sodipodi:nodetypes="ccccccccccc"
         transform="matrix(0,-1,-1,0,103.2645,151.9071)"
         inkscape:original-d="m 56.639965,182.19612 c 0.805159,7.07396 3.516564,11.03427 8.487528,15.87443 3.016992,2.29091 10.453889,7.8323 13.342601,9.10231 0.98939,-2.76157 1.223688,-8.95831 1.427399,-12.0534 l 0.508863,-14.93662 0.598662,-42.50502 0.897993,-29.69365 1.344864,-55.682635 c 0.110003,-5.643685 0.435142,-11.132256 0.720522,-16.871702 l -29.228879,6.186461 z"
         inkscape:path-effect="#path-effect3283" /><path
         style="display:inline;fill:#ffffff;fill-opacity:1;stroke:none;stroke-width:0.265;stroke-linecap:butt;stroke-linejoin:miter;stroke-dasharray:none;stroke-opacity:1"
         d="m 95.721684,-10.157674 1.915721,9.0547683 c -3.983512,2.99045 -7.185009,4.673894 -12.078012,4.370247 -6.905875,-0.787973 -11.489072,-6.048976 -11.958278,-12.8263436 -0.0951,-2.3913697 0.789591,-4.3451817 2.155185,-6.2260867 2.516086,-2.802865 5.823045,-3.495345 9.42893,-3.262692 l -0.453069,-1.691222 -14.423687,0.1347 -1.676255,-7.318645 22.4648,-0.329264 3.636872,14.921656 -4.819229,4.2205667 c -1.478598,-1.6798657 -3.485298,-2.9682767 -5.313127,-2.3347797 -1.223084,0.423902 -2.11746,2.1661377 -1.825921,3.4273403 0.44815,1.938703 2.844462,3.483068 4.834197,3.502173 3.293603,0.03162 5.88056,-3.195125 8.111873,-5.6424183 z"
         id="path3305"
         sodipodi:nodetypes="ccccccccccccaaac" /><path
         id="path3307"
         style="display:inline;fill:none;stroke:#000000;stroke-width:0.665;stroke-linecap:butt;stroke-linejoin:miter;stroke-dasharray:none;stroke-opacity:1"
         d="m 93.553934,-13.706513 -3.578125,3.134765 c -1.496684,-1.469763 -3.763703,-2.641969 -5.864019,-1.811147 -2.360296,0.989433 -3.259891,4.4097743 -1.514948,6.3483013 1.80164,2.43853 5.44322,3.343504 8.104243,1.799209 1.729455,-0.87608 3.11721,-2.272244 4.413396,-3.685973 l 1.347656,6.367187 c -2.85231,2.17661101 -6.27133,3.936694 -9.951172,3.800782 -4.786934,-0.05739 -9.393331,-3.266006 -10.960564,-7.815894 -1.011468,-2.534642 -1.329503,-5.5550723 0.05872,-8.0187653 1.234201,-2.572095 3.974047,-4.124562 6.756905,-4.353155 1.457934,-0.165422 2.926183,-0.0551 4.385176,0.03547 l -1.016772,-3.900391 c -4.707023,0.04571 -9.879713,0.08971 -14.586743,0.134766 l -1.191407,-5.212891 c 6.770834,-0.09896 13.541667,-0.197916 20.3125,-0.296875 l 3.285157,13.47461 z"
         sodipodi:nodetypes="cccccccccccccccccc" /><path
         style="opacity:1;fill:none;stroke:#ffffff;stroke-width:1.2;stroke-linecap:butt;stroke-linejoin:miter;stroke-dasharray:none;stroke-opacity:1"
         d="m -78.93162,0.89265229 c -7.07396,-0.80515898 -11.03427,-3.51656399 -15.87443,-8.48752799 -1.737776,-2.2885463 -5.34588,-7.1203153 -7.54124,-10.5809803 -0.93851,-1.479438 -0.19838,-3.194328 1.53412,-3.447413 2.987327,-0.436394 6.7571,-0.596735 8.95821,-0.741606 l 14.93662,-0.508863 42.50502,-0.598662 29.69365,-0.897993 55.682635,-1.344864 c 4.503549,-0.18912 7.226369,-0.299588 11.059092,-0.481513 1.751525,-0.08314 3.498458,1.228974 3.90211,2.935386 l 5.432315,22.96475122 A 2.4792581,2.4792581 128.70614 0 1 68.91261,2.7531478 Z"
         id="path3309"
         sodipodi:nodetypes="ccccccccccc"
         inkscape:original-d="m -78.93162,0.89265229 c -7.07396,-0.80515898 -11.03427,-3.51656399 -15.87443,-8.48752799 -2.29091,-3.0169913 -7.8323,-10.4538883 -9.10231,-13.3426003 2.76157,-0.98939 8.95831,-1.223688 12.0534,-1.427399 l 14.93662,-0.508863 42.50502,-0.598662 29.69365,-0.897993 55.682635,-1.344864 c 5.643685,-0.236999 8.490879,-0.350479 14.230325,-0.635859 l 6.894069,29.1442153 z"
         inkscape:path-effect="#path-effect3313" /><g
         id="g7777"
         transform="rotate(0.85682025,-10.29982,-8.3751543)"><g
           id="g3499"
           inkscape:label="olympus"
           style="opacity:1;fill:#ffffff;fill-opacity:1"
           transform="matrix(-0.80980226,0,0,0.80980226,-233.36345,-125.48266)"><path
             id="path3485"
             style="fill:#ffffff;fill-opacity:1;stroke:#000000;stroke-width:0.264583px;stroke-linecap:butt;stroke-linejoin:miter;stroke-opacity:1"
             d="m -323.21774,137.55195 c 2.27289,0 3.25054,1.84385 3.25957,3.41824 0.009,1.59367 -1.05207,3.4977 -3.25957,3.4977 -2.2075,0 -3.26871,-1.90403 -3.25957,-3.4977 0.009,-1.57439 0.98668,-3.41824 3.25957,-3.41824 z m 8.74829,3.51884 c 0.0125,-4.68636 -4.64531,-6.84719 -8.74829,-6.84719 -4.10298,0 -8.76079,2.16083 -8.74829,6.84719 0.19275,4.62961 5.08613,6.64607 8.74829,6.64607 3.66216,0 8.55554,-2.01646 8.74829,-6.64607 z"
             sodipodi:nodetypes="zazazcccac"
             inkscape:label="O" /><path
             style="opacity:1;fill:#ffffff;fill-opacity:1;stroke:#000000;stroke-width:0.264583px;stroke-linecap:butt;stroke-linejoin:miter;stroke-opacity:1"
             d="m -313.74222,134.57927 v 12.81137 h 13.03819 v -3.08149 h -8.17005 v -9.72988 z"
             id="path3487" /><path
             style="opacity:1;fill:#ffffff;fill-opacity:1;stroke:#000000;stroke-width:0.264583px;stroke-linecap:butt;stroke-linejoin:miter;stroke-opacity:1"
             d="m -304.97954,134.57927 c 0,0 6.13812,8.07894 6.09579,8.14244 -0.0423,0.0635 0,4.66893 0,4.66893 0,0 4.65648,0 4.65648,0 0,0 0,-4.6266 0,-4.6266 l 6.03128,-8.18477 h -5.18464 l -3.15373,4.26907 -3.25953,-4.26907 z"
             id="path3489" /><path
             style="opacity:1;fill:#ffffff;fill-opacity:1;stroke:#000000;stroke-width:0.264583px;stroke-linecap:butt;stroke-linejoin:miter;stroke-opacity:1"
             d="m -287.51768,134.57927 v 12.81137 h 4.99515 v -7.4205 l 2.68809,7.4205 h 3.70403 l 2.8574,-7.69566 v 7.69566 h 4.88931 v -12.81137 h -6.66726 l -2.9209,7.86728 -3.04789,-7.86728 z"
             id="path3491" /><path
             id="path3493"
             style="opacity:1;fill:#ffffff;fill-opacity:1;fill-rule:evenodd;stroke:#000000;stroke-width:0.264583px;stroke-linecap:butt;stroke-linejoin:miter;stroke-opacity:1"
             d="m -260.21365,140.41623 h 2.16029 c 1.04335,0.0153 2.18499,-0.37703 2.15519,-1.49662 -0.0298,-1.11959 -1.32015,-1.34884 -2.18512,-1.36196 h -2.12946 z m -5.29149,-5.83696 v 12.81137 h 5.29149 v -4.08587 l 2.87452,0.01 c 2.8772,0 6.49214,-0.90646 6.49214,-4.32744 0,-3.42098 -4.04504,-4.40765 -6.82478,-4.40765 z" /><path
             id="path3495"
             style="opacity:1;fill:#ffffff;fill-opacity:1;stroke:#000000;stroke-width:0.264583px;stroke-linecap:butt;stroke-linejoin:miter;stroke-opacity:1"
             d="m -240.05858,142.20316 v -7.62387 h 5.36555 v 7.65562 c -0.0935,4.46387 -4.3162,5.47442 -7.76516,5.47442 -3.44896,0 -7.44613,-1.19182 -7.76515,-5.47442 v -7.65562 h 5.36555 v 7.62387 c 0.0368,1.48347 0.97083,2.16953 2.3996,2.16953 1.42877,0 2.2885,-0.77963 2.39961,-2.16953 z"
             sodipodi:nodetypes="cccczcccczc" /><path
             id="path3497"
             style="opacity:1;fill:#ffffff;fill-opacity:1;stroke:#000000;stroke-width:0.264583px;stroke-linecap:butt;stroke-linejoin:miter;stroke-opacity:1"
             d="m -228.51687,142.27959 c 1.54261,0.43849 4.23554,0.62224 4.23554,1.48171 0,0.6856 -1.15933,0.80821 -1.87829,0.83813 -0.92608,0.003 -2.39202,0.0138 -2.55916,-1.17925 h -5.27031 c 0.0212,3.51903 4.71396,4.38818 7.85153,4.38818 2.9289,0 7.17686,-1.55604 7.17686,-4.23342 0,-3.05968 -3.27028,-3.58617 -5.37251,-4.01187 -1.51939,-0.30767 -4.33525,-0.61189 -4.33525,-1.34436 0,-0.6856 1.15933,-0.80821 1.87829,-0.83813 0.92608,-0.003 2.11686,-0.0561 2.284,1.13692 l 5.22798,0.0423 c 0,-3.18038 -4.10015,-4.32468 -7.23772,-4.32468 -2.9289,0 -7.03822,1.38428 -7.03822,4.37289 0,2.35911 3.19704,3.14846 5.03726,3.67155 z"
             sodipodi:nodetypes="sscccsssscccsss" /></g><g
           id="g7629"
           inkscape:label="cameras"
           style="opacity:1;fill:#ffffff;fill-opacity:1"
           transform="matrix(-0.88051969,0,0,0.88051969,-255.41422,-135.7999)"><path
             id="path7615"
             style="fill:#ffffff;fill-opacity:1;stroke:#000000;stroke-width:0.065;stroke-linecap:butt;stroke-linejoin:miter;stroke-dasharray:none;stroke-opacity:1"
             d="m -289.0042,152.44936 v 1.32454 c -0.46378,0.15612 -0.93574,0.28139 -1.42929,0.28439 -1.5432,0 -2.79125,-1.22342 -2.79125,-2.84367 0,-1.62025 1.24805,-2.84367 2.79125,-2.84367 0.49355,0.003 0.96551,0.12827 1.42929,0.28439 v 1.32454 c -1.27077,-0.66944 -2.94844,-0.40296 -2.94844,1.23474 0,1.6377 1.67767,1.90418 2.94844,1.23474 z"
             sodipodi:nodetypes="ccczccczc" /><path
             id="path7617"
             style="opacity:1;fill:#ffffff;fill-opacity:1;fill-rule:evenodd;stroke:#000000;stroke-width:0.065;stroke-linecap:butt;stroke-linejoin:miter;stroke-dasharray:none;stroke-opacity:1"
             d="m -270.02443,150.97112 h 0.6312 c 0.41926,0 0.69475,-0.2756 0.69475,-0.66942 l -2e-5,-0.32542 c 0,-0.2757 -0.29086,-0.62806 -0.6894,-0.62806 l -0.6365,-3e-5 z m -1.43148,-2.60765 h 2.17763 c 1.03937,0 1.88389,0.64384 1.88389,1.54624 0.065,0.9517 -0.52685,1.63145 -1.21191,1.69109 l 1.58742,2.33354 h -1.51865 l -1.4869,-2.31238 v 2.31238 h -1.43399 z" /><path
             style="opacity:1;fill:#ffffff;fill-opacity:1;stroke:#000000;stroke-width:0.065;stroke-linecap:butt;stroke-linejoin:miter;stroke-dasharray:none;stroke-opacity:1"
             d="m -256.99824,152.31466 c -0.0231,-0.87381 -0.6485,-1.2781 -1.39937,-1.54155 -0.53854,-0.18932 -1.13844,-0.19065 -1.11465,-0.81151 0.002,-0.61703 1.00526,-0.6911 1.60853,-0.28103 l 0.62111,-0.86807 c -0.46438,-0.41172 -0.9825,-0.55717 -1.59394,-0.58367 -1.15361,-0.002 -1.89726,0.8712 -1.92318,1.93814 0.0827,0.94324 0.86302,1.21084 1.62171,1.54065 0.44611,0.14581 0.78045,0.30605 0.88518,0.77168 -0.0968,0.45878 -0.3713,0.53582 -0.79325,0.60611 -0.5125,7.2e-4 -0.89726,-0.27407 -1.30209,-0.55378 l -0.59866,0.95038 c 0.53356,0.48989 1.21072,0.69623 1.89327,0.70341 1.31635,-0.0669 2.08564,-0.79431 2.09534,-1.87076 z"
             id="path7619"
             sodipodi:nodetypes="cccccccccccccc" /><path
             id="path7621"
             style="fill:#ffffff;fill-opacity:1;fill-rule:evenodd;stroke:#000000;stroke-width:0.065;stroke-linecap:butt;stroke-linejoin:miter;stroke-dasharray:none;stroke-opacity:1"
             d="m -285.83385,149.85991 -0.82388,2.36247 h 1.64776 l -0.82388,-2.36247 m -1.15788,3.32023 -0.26721,0.76621 -1.40851,-0.012 2.21398,-5.57088 h 1.23924 l 2.21398,5.57088 -1.40851,0.012 c -0.0891,-0.2554 -0.17814,-0.5108 -0.2672,-0.76621 z"
             sodipodi:nodetypes="ccccccccccccc" /><path
             id="path7623"
             style="fill:#ffffff;fill-opacity:1;fill-rule:evenodd;stroke:#000000;stroke-width:0.065;stroke-linecap:butt;stroke-linejoin:miter;stroke-dasharray:none;stroke-opacity:1"
             d="m -263.99313,149.85991 -0.82388,2.36247 h 1.64776 l -0.82388,-2.36247 m -1.15788,3.32023 -0.26721,0.76621 -1.40851,-0.012 2.21398,-5.57088 h 1.23924 l 2.21398,5.57088 -1.40851,0.012 c -0.0891,-0.2554 -0.17814,-0.5108 -0.2672,-0.76621 z"
             sodipodi:nodetypes="ccccccccccccc" /><path
             id="path7625"
             style="opacity:1;fill:#ffffff;fill-opacity:1;stroke:#000000;stroke-width:0.065;stroke-linecap:butt;stroke-linejoin:miter;stroke-dasharray:none;stroke-opacity:1"
             d="m -279.09365,153.93435 1.46045,-3.76224 0.4339,3.76224 h 1.18531 l -0.61382,-5.60338 h -1.42871 l -1.26995,3.26983 -1.26995,-3.26983 h -1.42871 l -0.61382,5.60338 h 1.18531 l 0.4339,-3.76224 1.46045,3.76224 z"
             sodipodi:nodetypes="cccccccccccccc" /><path
             style="opacity:1;fill:#ffffff;fill-opacity:1;stroke:#000000;stroke-width:0.065;stroke-linecap:butt;stroke-linejoin:miter;stroke-dasharray:none;stroke-opacity:1"
             d="m -274.05616,151.75796 v 1.17629 l 1.77795,0.01 v 0.99056 h -2.99418 v -5.57088 h 2.99418 v 1.12815 c -0.0106,0.0138 -1.77795,0 -1.77795,0 v 1.0829 l 1.77795,0.0103 v 1.17788 z"
             id="path7627"
             sodipodi:nodetypes="ccccccccccccc" /></g></g><g
         id="g7742"
         style="opacity:1"
         transform="rotate(0.70470026,-10.306189,86.431887)"><g
           id="g3515"
           inkscape:label="olympus"
           style="opacity:1;fill:#ffffff;fill-opacity:1"
           transform="matrix(0.80980226,0,0,0.80980226,212.77828,-30.654561)"><path
             id="path3501"
             style="fill:#ffffff;fill-opacity:1;stroke:#000000;stroke-width:0.264583px;stroke-linecap:butt;stroke-linejoin:miter;stroke-opacity:1"
             d="m -323.21774,137.55195 c 2.27289,0 3.25054,1.84385 3.25957,3.41824 0.009,1.59367 -1.05207,3.4977 -3.25957,3.4977 -2.2075,0 -3.26871,-1.90403 -3.25957,-3.4977 0.009,-1.57439 0.98668,-3.41824 3.25957,-3.41824 z m 8.74829,3.51884 c 0.0125,-4.68636 -4.64531,-6.84719 -8.74829,-6.84719 -4.10298,0 -8.76079,2.16083 -8.74829,6.84719 0.19275,4.62961 5.08613,6.64607 8.74829,6.64607 3.66216,0 8.55554,-2.01646 8.74829,-6.64607 z"
             sodipodi:nodetypes="zazazcccac"
             inkscape:label="O" /><path
             style="opacity:1;fill:#ffffff;fill-opacity:1;stroke:#000000;stroke-width:0.264583px;stroke-linecap:butt;stroke-linejoin:miter;stroke-opacity:1"
             d="m -313.74222,134.57927 v 12.81137 h 13.03819 v -3.08149 h -8.17005 v -9.72988 z"
             id="path3503" /><path
             style="opacity:1;fill:#ffffff;fill-opacity:1;stroke:#000000;stroke-width:0.264583px;stroke-linecap:butt;stroke-linejoin:miter;stroke-opacity:1"
             d="m -304.97954,134.57927 c 0,0 6.13812,8.07894 6.09579,8.14244 -0.0423,0.0635 0,4.66893 0,4.66893 0,0 4.65648,0 4.65648,0 0,0 0,-4.6266 0,-4.6266 l 6.03128,-8.18477 h -5.18464 l -3.15373,4.26907 -3.25953,-4.26907 z"
             id="path3505" /><path
             style="opacity:1;fill:#ffffff;fill-opacity:1;stroke:#000000;stroke-width:0.264583px;stroke-linecap:butt;stroke-linejoin:miter;stroke-opacity:1"
             d="m -287.51768,134.57927 v 12.81137 h 4.99515 v -7.4205 l 2.68809,7.4205 h 3.70403 l 2.8574,-7.69566 v 7.69566 h 4.88931 v -12.81137 h -6.66726 l -2.9209,7.86728 -3.04789,-7.86728 z"
             id="path3507" /><path
             id="path3509"
             style="opacity:1;fill:#ffffff;fill-opacity:1;fill-rule:evenodd;stroke:#000000;stroke-width:0.264583px;stroke-linecap:butt;stroke-linejoin:miter;stroke-opacity:1"
             d="m -260.21365,140.41623 h 2.16029 c 1.04335,0.0153 2.18499,-0.37703 2.15519,-1.49662 -0.0298,-1.11959 -1.32015,-1.34884 -2.18512,-1.36196 h -2.12946 z m -5.29149,-5.83696 v 12.81137 h 5.29149 v -4.08587 l 2.87452,0.01 c 2.8772,0 6.49214,-0.90646 6.49214,-4.32744 0,-3.42098 -4.04504,-4.40765 -6.82478,-4.40765 z" /><path
             id="path3511"
             style="opacity:1;fill:#ffffff;fill-opacity:1;stroke:#000000;stroke-width:0.264583px;stroke-linecap:butt;stroke-linejoin:miter;stroke-opacity:1"
             d="m -240.05858,142.20316 v -7.62387 h 5.36555 v 7.65562 c -0.0935,4.46387 -4.3162,5.47442 -7.76516,5.47442 -3.44896,0 -7.44613,-1.19182 -7.76515,-5.47442 v -7.65562 h 5.36555 v 7.62387 c 0.0368,1.48347 0.97083,2.16953 2.3996,2.16953 1.42877,0 2.2885,-0.77963 2.39961,-2.16953 z"
             sodipodi:nodetypes="cccczcccczc" /><path
             id="path3513"
             style="opacity:1;fill:#ffffff;fill-opacity:1;stroke:#000000;stroke-width:0.264583px;stroke-linecap:butt;stroke-linejoin:miter;stroke-opacity:1"
             d="m -228.51687,142.27959 c 1.54261,0.43849 4.23554,0.62224 4.23554,1.48171 0,0.6856 -1.15933,0.80821 -1.87829,0.83813 -0.92608,0.003 -2.39202,0.0138 -2.55916,-1.17925 h -5.27031 c 0.0212,3.51903 4.71396,4.38818 7.85153,4.38818 2.9289,0 7.17686,-1.55604 7.17686,-4.23342 0,-3.05968 -3.27028,-3.58617 -5.37251,-4.01187 -1.51939,-0.30767 -4.33525,-0.61189 -4.33525,-1.34436 0,-0.6856 1.15933,-0.80821 1.87829,-0.83813 0.92608,-0.003 2.11686,-0.0561 2.284,1.13692 l 5.22798,0.0423 c 0,-3.18038 -4.10015,-4.32468 -7.23772,-4.32468 -2.9289,0 -7.03822,1.38428 -7.03822,4.37289 0,2.35911 3.19704,3.14846 5.03726,3.67155 z"
             sodipodi:nodetypes="sscccsssscccsss" /></g><g
           id="g7653"
           inkscape:label="cameras"
           style="opacity:1;fill:#ffffff;fill-opacity:1"
           transform="matrix(0.88051969,0,0,0.88051969,229.06794,-41.091533)"><path
             id="path7639"
             style="fill:#ffffff;fill-opacity:1;stroke:#000000;stroke-width:0.065;stroke-linecap:butt;stroke-linejoin:miter;stroke-dasharray:none;stroke-opacity:1"
             d="m -289.0042,152.44936 v 1.32454 c -0.46378,0.15612 -0.93574,0.28139 -1.42929,0.28439 -1.5432,0 -2.79125,-1.22342 -2.79125,-2.84367 0,-1.62025 1.24805,-2.84367 2.79125,-2.84367 0.49355,0.003 0.96551,0.12827 1.42929,0.28439 v 1.32454 c -1.27077,-0.66944 -2.94844,-0.40296 -2.94844,1.23474 0,1.6377 1.67767,1.90418 2.94844,1.23474 z"
             sodipodi:nodetypes="ccczccczc" /><path
             id="path7641"
             style="opacity:1;fill:#ffffff;fill-opacity:1;fill-rule:evenodd;stroke:#000000;stroke-width:0.065;stroke-linecap:butt;stroke-linejoin:miter;stroke-dasharray:none;stroke-opacity:1"
             d="m -270.02443,150.97112 h 0.6312 c 0.41926,0 0.69475,-0.2756 0.69475,-0.66942 l -2e-5,-0.32542 c 0,-0.2757 -0.29086,-0.62806 -0.6894,-0.62806 l -0.6365,-3e-5 z m -1.43148,-2.60765 h 2.17763 c 1.03937,0 1.88389,0.64384 1.88389,1.54624 0.065,0.9517 -0.52685,1.63145 -1.21191,1.69109 l 1.58742,2.33354 h -1.51865 l -1.4869,-2.31238 v 2.31238 h -1.43399 z" /><path
             style="opacity:1;fill:#ffffff;fill-opacity:1;stroke:#000000;stroke-width:0.065;stroke-linecap:butt;stroke-linejoin:miter;stroke-dasharray:none;stroke-opacity:1"
             d="m -256.99824,152.31466 c -0.0231,-0.87381 -0.6485,-1.2781 -1.39937,-1.54155 -0.53854,-0.18932 -1.13844,-0.19065 -1.11465,-0.81151 0.002,-0.61703 1.00526,-0.6911 1.60853,-0.28103 l 0.62111,-0.86807 c -0.46438,-0.41172 -0.9825,-0.55717 -1.59394,-0.58367 -1.15361,-0.002 -1.89726,0.8712 -1.92318,1.93814 0.0827,0.94324 0.86302,1.21084 1.62171,1.54065 0.44611,0.14581 0.78045,0.30605 0.88518,0.77168 -0.0968,0.45878 -0.3713,0.53582 -0.79325,0.60611 -0.5125,7.2e-4 -0.89726,-0.27407 -1.30209,-0.55378 l -0.59866,0.95038 c 0.53356,0.48989 1.21072,0.69623 1.89327,0.70341 1.31635,-0.0669 2.08564,-0.79431 2.09534,-1.87076 z"
             id="path7643"
             sodipodi:nodetypes="cccccccccccccc" /><path
             id="path7645"
             style="fill:#ffffff;fill-opacity:1;fill-rule:evenodd;stroke:#000000;stroke-width:0.065;stroke-linecap:butt;stroke-linejoin:miter;stroke-dasharray:none;stroke-opacity:1"
             d="m -285.83385,149.85991 -0.82388,2.36247 h 1.64776 l -0.82388,-2.36247 m -1.15788,3.32023 -0.26721,0.76621 -1.40851,-0.012 2.21398,-5.57088 h 1.23924 l 2.21398,5.57088 -1.40851,0.012 c -0.0891,-0.2554 -0.17814,-0.5108 -0.2672,-0.76621 z"
             sodipodi:nodetypes="ccccccccccccc" /><path
             id="path7647"
             style="fill:#ffffff;fill-opacity:1;fill-rule:evenodd;stroke:#000000;stroke-width:0.065;stroke-linecap:butt;stroke-linejoin:miter;stroke-dasharray:none;stroke-opacity:1"
             d="m -263.99313,149.85991 -0.82388,2.36247 h 1.64776 l -0.82388,-2.36247 m -1.15788,3.32023 -0.26721,0.76621 -1.40851,-0.012 2.21398,-5.57088 h 1.23924 l 2.21398,5.57088 -1.40851,0.012 c -0.0891,-0.2554 -0.17814,-0.5108 -0.2672,-0.76621 z"
             sodipodi:nodetypes="ccccccccccccc" /><path
             id="path7649"
             style="opacity:1;fill:#ffffff;fill-opacity:1;stroke:#000000;stroke-width:0.065;stroke-linecap:butt;stroke-linejoin:miter;stroke-dasharray:none;stroke-opacity:1"
             d="m -279.09365,153.93435 1.46045,-3.76224 0.4339,3.76224 h 1.18531 l -0.61382,-5.60338 h -1.42871 l -1.26995,3.26983 -1.26995,-3.26983 h -1.42871 l -0.61382,5.60338 h 1.18531 l 0.4339,-3.76224 1.46045,3.76224 z"
             sodipodi:nodetypes="cccccccccccccc" /><path
             style="opacity:1;fill:#ffffff;fill-opacity:1;stroke:#000000;stroke-width:0.065;stroke-linecap:butt;stroke-linejoin:miter;stroke-dasharray:none;stroke-opacity:1"
             d="m -274.05616,151.75796 v 1.17629 l 1.77795,0.01 v 0.99056 h -2.99418 v -5.57088 h 2.99418 v 1.12815 c -0.0106,0.0138 -1.77795,0 -1.77795,0 v 1.0829 l 1.77795,0.0103 v 1.17788 z"
             id="path7651"
             sodipodi:nodetypes="ccccccccccccc" /></g></g></g><g
       id="g3348"
       inkscape:label="olympus"
       style="opacity:1;fill:#ffffff;fill-opacity:1"
       transform="translate(0.06522497,0.07891173)"><path
         id="path3344"
         style="fill:#ffffff;fill-opacity:1;stroke:#000000;stroke-width:0.264583px;stroke-linecap:butt;stroke-linejoin:miter;stroke-opacity:1"
         d="m -323.21774,137.55195 c 2.27289,0 3.25054,1.84385 3.25957,3.41824 0.009,1.59367 -1.05207,3.4977 -3.25957,3.4977 -2.2075,0 -3.26871,-1.90403 -3.25957,-3.4977 0.009,-1.57439 0.98668,-3.41824 3.25957,-3.41824 z m 8.74829,3.51884 c 0.0125,-4.68636 -4.64531,-6.84719 -8.74829,-6.84719 -4.10298,0 -8.76079,2.16083 -8.74829,6.84719 0.19275,4.62961 5.08613,6.64607 8.74829,6.64607 3.66216,0 8.55554,-2.01646 8.74829,-6.64607 z"
         sodipodi:nodetypes="zazazcccac"
         inkscape:label="O" /><path
         style="opacity:1;fill:#ffffff;fill-opacity:1;stroke:#000000;stroke-width:0.264583px;stroke-linecap:butt;stroke-linejoin:miter;stroke-opacity:1"
         d="m -313.74222,134.57927 v 12.81137 h 13.03819 v -3.08149 h -8.17005 v -9.72988 z"
         id="path3350" /><path
         style="opacity:1;fill:#ffffff;fill-opacity:1;stroke:#000000;stroke-width:0.264583px;stroke-linecap:butt;stroke-linejoin:miter;stroke-opacity:1"
         d="m -304.97954,134.57927 c 0,0 6.13812,8.07894 6.09579,8.14244 -0.0423,0.0635 0,4.66893 0,4.66893 0,0 4.65648,0 4.65648,0 0,0 0,-4.6266 0,-4.6266 l 6.03128,-8.18477 h -5.18464 l -3.15373,4.26907 -3.25953,-4.26907 z"
         id="path3352" /><path
         style="opacity:1;fill:#ffffff;fill-opacity:1;stroke:#000000;stroke-width:0.264583px;stroke-linecap:butt;stroke-linejoin:miter;stroke-opacity:1"
         d="m -287.51768,134.57927 v 12.81137 h 4.99515 v -7.4205 l 2.68809,7.4205 h 3.70403 l 2.8574,-7.69566 v 7.69566 h 4.88931 v -12.81137 h -6.66726 l -2.9209,7.86728 -3.04789,-7.86728 z"
         id="path3354" /><path
         id="path3358"
         style="opacity:1;fill:#ffffff;fill-opacity:1;fill-rule:evenodd;stroke:#000000;stroke-width:0.264583px;stroke-linecap:butt;stroke-linejoin:miter;stroke-opacity:1"
         d="m -260.21365,140.41623 h 2.16029 c 1.04335,0.0153 2.18499,-0.37703 2.15519,-1.49662 -0.0298,-1.11959 -1.32015,-1.34884 -2.18512,-1.36196 h -2.12946 z m -5.29149,-5.83696 v 12.81137 h 5.29149 v -4.08587 l 2.87452,0.01 c 2.8772,0 6.49214,-0.90646 6.49214,-4.32744 0,-3.42098 -4.04504,-4.40765 -6.82478,-4.40765 z" /><path
         id="path3398"
         style="opacity:1;fill:#ffffff;fill-opacity:1;stroke:#000000;stroke-width:0.264583px;stroke-linecap:butt;stroke-linejoin:miter;stroke-opacity:1"
         d="m -240.05858,142.20316 v -7.62387 h 5.36555 v 7.65562 c -0.0935,4.46387 -4.3162,5.47442 -7.76516,5.47442 -3.44896,0 -7.44613,-1.19182 -7.76515,-5.47442 v -7.65562 h 5.36555 v 7.62387 c 0.0368,1.48347 0.97083,2.16953 2.3996,2.16953 1.42877,0 2.2885,-0.77963 2.39961,-2.16953 z"
         sodipodi:nodetypes="cccczcccczc" /><path
         id="path3465"
         style="opacity:1;fill:#ffffff;fill-opacity:1;stroke:#000000;stroke-width:0.264583px;stroke-linecap:butt;stroke-linejoin:miter;stroke-opacity:1"
         d="m -228.51687,142.27959 c 1.54261,0.43849 4.23554,0.62224 4.23554,1.48171 0,0.6856 -1.15933,0.80821 -1.87829,0.83813 -0.92608,0.003 -2.39202,0.0138 -2.55916,-1.17925 h -5.27031 c 0.0212,3.51903 4.71396,4.38818 7.85153,4.38818 2.9289,0 7.17686,-1.55604 7.17686,-4.23342 0,-3.05968 -3.27028,-3.58617 -5.37251,-4.01187 -1.51939,-0.30767 -4.33525,-0.61189 -4.33525,-1.34436 0,-0.6856 1.15933,-0.80821 1.87829,-0.83813 0.92608,-0.003 2.11686,-0.0561 2.284,1.13692 l 5.22798,0.0423 c 0,-3.18038 -4.10015,-4.32468 -7.23772,-4.32468 -2.9289,0 -7.03822,1.38428 -7.03822,4.37289 0,2.35911 3.19704,3.14846 5.03726,3.67155 z"
         sodipodi:nodetypes="sscccsssscccsss" /></g><g
       id="g7613"
       inkscape:label="cameras"
       style="fill:#ffffff;fill-opacity:1"><path
         id="path3744"
         style="fill:#ffffff;stroke:#000000;stroke-width:0.065;stroke-linecap:butt;stroke-linejoin:miter;stroke-opacity:1;stroke-dasharray:none;fill-opacity:1"
         d="m -289.0042,152.44936 v 1.32454 c -0.46378,0.15612 -0.93574,0.28139 -1.42929,0.28439 -1.5432,0 -2.79125,-1.22342 -2.79125,-2.84367 0,-1.62025 1.24805,-2.84367 2.79125,-2.84367 0.49355,0.003 0.96551,0.12827 1.42929,0.28439 v 1.32454 c -1.27077,-0.66944 -2.94844,-0.40296 -2.94844,1.23474 0,1.6377 1.67767,1.90418 2.94844,1.23474 z"
         sodipodi:nodetypes="ccczccczc" /><path
         id="path3799"
         style="opacity:1;fill:#ffffff;stroke:#000000;stroke-width:0.065;stroke-linecap:butt;stroke-linejoin:miter;stroke-dasharray:none;stroke-opacity:1;fill-rule:evenodd;fill-opacity:1"
         d="m -270.02443,150.97112 h 0.6312 c 0.41926,0 0.69475,-0.2756 0.69475,-0.66942 l -2e-5,-0.32542 c 0,-0.2757 -0.29086,-0.62806 -0.6894,-0.62806 l -0.6365,-3e-5 z m -1.43148,-2.60765 h 2.17763 c 1.03937,0 1.88389,0.64384 1.88389,1.54624 0.065,0.9517 -0.52685,1.63145 -1.21191,1.69109 l 1.58742,2.33354 h -1.51865 l -1.4869,-2.31238 v 2.31238 h -1.43399 z" /><path
         style="opacity:1;fill:#ffffff;stroke:#000000;stroke-width:0.065;stroke-linecap:butt;stroke-linejoin:miter;stroke-dasharray:none;stroke-opacity:1;fill-opacity:1"
         d="m -256.99824,152.31466 c -0.0231,-0.87381 -0.6485,-1.2781 -1.39937,-1.54155 -0.53854,-0.18932 -1.13844,-0.19065 -1.11465,-0.81151 0.002,-0.61703 1.00526,-0.6911 1.60853,-0.28103 l 0.62111,-0.86807 c -0.46438,-0.41172 -0.9825,-0.55717 -1.59394,-0.58367 -1.15361,-0.002 -1.89726,0.8712 -1.92318,1.93814 0.0827,0.94324 0.86302,1.21084 1.62171,1.54065 0.44611,0.14581 0.78045,0.30605 0.88518,0.77168 -0.0968,0.45878 -0.3713,0.53582 -0.79325,0.60611 -0.5125,7.2e-4 -0.89726,-0.27407 -1.30209,-0.55378 l -0.59866,0.95038 c 0.53356,0.48989 1.21072,0.69623 1.89327,0.70341 1.31635,-0.0669 2.08564,-0.79431 2.09534,-1.87076 z"
         id="path3902"
         sodipodi:nodetypes="cccccccccccccc" /><path
         id="path3959"
         style="fill:#ffffff;stroke:#000000;stroke-width:0.065;stroke-linecap:butt;stroke-linejoin:miter;stroke-dasharray:none;stroke-opacity:1;fill-rule:evenodd;fill-opacity:1"
         d="m -285.83385,149.85991 -0.82388,2.36247 h 1.64776 l -0.82388,-2.36247 m -1.15788,3.32023 -0.26721,0.76621 -1.40851,-0.012 2.21398,-5.57088 h 1.23924 l 2.21398,5.57088 -1.40851,0.012 c -0.0891,-0.2554 -0.17814,-0.5108 -0.2672,-0.76621 z"
         sodipodi:nodetypes="ccccccccccccc" /><path
         id="path6868"
         style="fill:#ffffff;stroke:#000000;stroke-width:0.065;stroke-linecap:butt;stroke-linejoin:miter;stroke-dasharray:none;stroke-opacity:1;fill-rule:evenodd;fill-opacity:1"
         d="m -263.99313,149.85991 -0.82388,2.36247 h 1.64776 l -0.82388,-2.36247 m -1.15788,3.32023 -0.26721,0.76621 -1.40851,-0.012 2.21398,-5.57088 h 1.23924 l 2.21398,5.57088 -1.40851,0.012 c -0.0891,-0.2554 -0.17814,-0.5108 -0.2672,-0.76621 z"
         sodipodi:nodetypes="ccccccccccccc" /><path
         id="path7600"
         style="opacity:1;fill:#ffffff;stroke:#000000;stroke-width:0.065;stroke-linecap:butt;stroke-linejoin:miter;stroke-dasharray:none;stroke-opacity:1;fill-opacity:1"
         d="m -279.09365,153.93435 1.46045,-3.76224 0.4339,3.76224 h 1.18531 l -0.61382,-5.60338 h -1.42871 l -1.26995,3.26983 -1.26995,-3.26983 h -1.42871 l -0.61382,5.60338 h 1.18531 l 0.4339,-3.76224 1.46045,3.76224 z"
         sodipodi:nodetypes="cccccccccccccc" /><path
         style="opacity:1;fill:#ffffff;stroke:#000000;stroke-width:0.065;stroke-linecap:butt;stroke-linejoin:miter;stroke-dasharray:none;stroke-opacity:1;fill-opacity:1"
         d="m -274.05616,151.75796 v 1.17629 l 1.77795,0.01 v 0.99056 h -2.99418 v -5.57088 h 2.99418 v 1.12815 c -0.0106,0.0138 -1.77795,0 -1.77795,0 v 1.0829 l 1.77795,0.0103 v 1.17788 z"
         id="path7603"
         sodipodi:nodetypes="ccccccccccccc" /></g></g></svg>
