<?xml version="1.0" encoding="UTF-8" standalone="no"?>
<!-- Created with Inkscape (http://www.inkscape.org/) -->

<svg
   width="210mm"
   height="297mm"
   viewBox="0 0 210 297"
   version="1.1"
   id="svg6502"
   inkscape:version="1.2.2 (732a01da63, 2022-12-09)"
   sodipodi:docname="body.side.lower.decals.svg"
   xml:space="preserve"
   inkscape:export-filename="body.side.lower.decals.png"
   inkscape:export-xdpi="498"
   inkscape:export-ydpi="498"
   xmlns:inkscape="http://www.inkscape.org/namespaces/inkscape"
   xmlns:sodipodi="http://sodipodi.sourceforge.net/DTD/sodipodi-0.dtd"
   xmlns:xlink="http://www.w3.org/1999/xlink"
   xmlns="http://www.w3.org/2000/svg"
   xmlns:svg="http://www.w3.org/2000/svg"><sodipodi:namedview
     id="namedview6504"
     pagecolor="#ffffff"
     bordercolor="#666666"
     borderopacity="1.0"
     inkscape:showpageshadow="2"
     inkscape:pageopacity="0.0"
     inkscape:pagecheckerboard="0"
     inkscape:deskcolor="#d1d1d1"
     inkscape:document-units="mm"
     showgrid="false"
     inkscape:zoom="0.78127805"
     inkscape:cx="273.91017"
     inkscape:cy="945.88604"
     inkscape:window-width="1846"
     inkscape:window-height="1057"
     inkscape:window-x="1986"
     inkscape:window-y="-8"
     inkscape:window-maximized="1"
     inkscape:current-layer="layer1" /><defs
     id="defs6499"><inkscape:path-effect
       effect="fillet_chamfer"
       id="path-effect431"
       is_visible="true"
       lpeversion="1"
       nodesatellites_param="F,0,0,1,0,1.8520833,0,1 @ F,0,0,1,0,1.8520833,0,1 @ F,0,0,1,0,1.8520833,0,1 @ F,0,0,1,0,1.8520833,0,1 @ F,0,0,1,0,0,0,1 @ F,0,0,1,0,1.8520833,0,1 | F,0,0,1,0,1.8520833,0,1 @ F,0,0,1,0,1.8520833,0,1 @ F,0,0,1,0,1.8520833,0,1 @ F,0,0,1,0,1.8520833,0,1 @ F,0,0,1,0,0,0,1 @ F,0,0,1,0,1.8520833,0,1 | F,0,0,1,0,1.8520833,0,1 @ F,0,0,1,0,1.8520833,0,1 @ F,0,0,1,0,1.8520833,0,1 @ F,0,0,1,0,1.8520833,0,1 @ F,0,0,1,0,0,0,1 @ F,0,0,1,0,0,0,1 @ F,0,0,1,0,1.8520833,0,1 @ F,0,0,1,0,1.8520833,0,1 @ F,0,0,1,0,0,0,1 @ F,0,0,1,0,0,0,1 @ F,0,0,1,0,1.8520833,0,1 @ F,0,0,1,0,1.8520833,0,1 | F,0,0,1,0,0,0,1 @ F,0,0,1,0,0,0,1 @ F,0,0,1,0,0,0,1 @ F,0,0,1,0,0,0,1 @ F,0,0,1,0,0,0,1 | F,0,0,1,0,0,0,1 @ F,0,0,1,0,0,0,1 @ F,0,0,1,0,0,0,1 @ F,0,0,1,0,0,0,1 @ F,0,0,1,0,0,0,1 @ F,0,0,1,0,0,0,1 @ F,0,0,1,0,0,0,1 @ F,0,0,1,0,0,0,1 @ F,0,0,1,0,0,0,1 @ F,0,0,1,0,0,0,1 @ F,0,0,1,0,0,0,1 @ F,0,0,1,0,0,0,1 @ F,0,0,1,0,0,0,1 @ F,0,0,1,0,0,0,1 @ F,0,0,1,0,0,0,1 @ F,0,0,1,0,0,0,1 @ F,0,0,1,0,0,0,1 @ F,0,0,1,0,0,0,1 @ F,0,0,1,0,0,0,1 @ F,0,0,1,0,0,0,1 @ F,0,0,1,0,0,0,1 @ F,0,0,1,0,0,0,1 @ F,0,0,1,0,0,0,1 @ F,0,0,1,0,0,0,1 @ F,0,0,1,0,0,0,1 @ F,0,0,1,0,1.8520833,0,1 @ F,0,0,1,0,1.8520833,0,1 @ F,0,0,1,0,1.8520833,0,1 @ F,0,0,1,0,0,0,1 @ F,0,0,1,0,0,0,1 @ F,0,0,1,0,0,0,1 @ F,0,0,1,0,0,0,1 @ F,0,0,1,0,0,0,1 @ F,0,0,1,0,0,0,1 @ F,0,0,1,0,0,0,1 @ F,0,0,1,0,0,0,1 @ F,0,0,1,0,0,0,1 @ F,0,0,1,0,0,0,1 @ F,0,0,1,0,1.8520833,0,1 @ F,0,0,1,0,1.8520833,0,1 @ F,0,0,1,0,1.8520833,0,1 | F,0,0,1,0,0,0,1 @ F,0,0,1,0,0,0,1 @ F,0,0,1,0,0,0,1 | F,0,0,1,0,1.8520833,0,1 @ F,0,0,1,0,1.8520833,0,1 @ F,0,0,1,0,1.8520833,0,1 @ F,0,0,1,0,1.8520833,0,1 @ F,0,0,1,0,0,0,1 @ F,0,0,1,0,0,0,1 @ F,0,0,1,0,1.8520833,0,1 @ F,0,0,1,0,1.8520833,0,1 | F,0,0,1,0,1.8520833,0,1 @ F,0,0,1,0,1.8520833,0,1 @ F,0,0,1,0,0,0,1 @ F,0,0,1,0,0,0,1 | F,0,1,1,0,1.8520833,0,1 @ F,0,1,1,0,1.8520833,0,1 @ F,0,0,1,0,0,0,1 @ F,0,0,1,0,1.8520833,0,1 @ F,0,0,1,0,1.8520833,0,1 @ F,0,0,1,0,1.8520833,0,1 @ F,0,0,1,0,1.8520833,0,1 @ F,0,0,1,0,0,0,1 | F,0,0,1,0,1.8520833,0,1 @ F,0,0,1,0,1.8520833,0,1 @ F,0,0,1,0,0,0,1 @ F,0,0,1,0,0,0,1 @ F,0,0,1,0,1.8520833,0,1 @ F,0,0,1,0,1.8520833,0,1 @ F,0,0,1,0,0,0,1 @ F,0,0,1,0,0,0,1 @ F,0,0,1,0,1.8520833,0,1 @ F,0,0,1,0,1.8520833,0,1 @ F,0,0,1,0,1.8520833,0,1 @ F,0,0,1,0,1.8520833,0,1 | F,0,0,1,0,1.8520833,0,1 @ F,0,0,1,0,0,0,1 @ F,0,0,1,0,1.8520833,0,1 @ F,0,0,1,0,1.8520833,0,1 @ F,0,0,1,0,1.8520833,0,1 @ F,0,0,1,0,1.8520833,0,1 @ F,0,0,1,0,0,0,1 @ F,0,0,1,0,1.8520833,0,1 @ F,0,0,1,0,1.8520833,0,1 @ F,0,0,1,0,1.8520833,0,1 | F,0,0,1,0,1.8520833,0,1 @ F,0,0,1,0,1.8520833,0,1 @ F,0,0,1,0,0,0,1 @ F,0,0,1,0,0,0,1 @ F,0,0,1,0,0,0,1 @ F,0,0,1,0,0,0,1 @ F,0,0,1,0,0,0,1 @ F,0,0,1,0,0,0,1 @ F,0,0,1,0,0,0,1 @ F,0,0,1,0,0,0,1 @ F,0,0,1,0,0,0,1 @ F,0,0,1,0,0,0,1 @ F,0,0,1,0,0,0,1 @ F,0,0,1,0,0,0,1 @ F,0,0,1,0,0,0,1 @ F,0,0,1,0,0,0,1 @ F,0,0,1,0,0,0,1 @ F,0,0,1,0,0,0,1 @ F,0,0,1,0,0,0,1 @ F,0,0,1,0,0,0,1 @ F,0,0,1,0,1.8520833,0,1 @ F,0,0,1,0,1.8520833,0,1 @ F,0,0,1,0,1.8520833,0,1 @ F,0,0,1,0,0,0,1 @ F,0,0,1,0,0,0,1 @ F,0,0,1,0,0,0,1 @ F,0,0,1,0,0,0,1 @ F,0,0,1,0,0,0,1 @ F,0,0,1,0,0,0,1 @ F,0,0,1,0,0,0,1 @ F,0,0,1,0,0,0,1 @ F,0,0,1,0,0,0,1 @ F,0,0,1,0,0,0,1 @ F,0,0,1,0,0,0,1 @ F,0,0,1,0,0,0,1 @ F,0,0,1,0,0,0,1 @ F,0,0,1,0,0,0,1 @ F,0,0,1,0,0,0,1 @ F,0,0,1,0,0,0,1 @ F,0,0,1,0,0,0,1 @ F,0,0,1,0,0,0,1 @ F,0,0,1,0,0,0,1 | F,0,0,1,0,0,0,1 @ F,0,0,1,0,0,0,1 @ F,0,0,1,0,0,0,1 | F,0,0,1,0,1.8520833,0,1 @ F,0,0,1,0,1.8520833,0,1 @ F,0,0,1,0,0,0,1 @ F,0,0,1,0,0,0,1 @ F,0,0,1,0,1.8520833,0,1 @ F,0,0,1,0,1.8520833,0,1 @ F,0,0,1,0,0,0,1 @ F,0,0,1,0,0,0,1 | F,0,0,1,0,1.8520833,0,1 @ F,0,0,1,0,1.8520833,0,1 @ F,0,0,1,0,0,0,1 @ F,0,0,1,0,0,0,1 @ F,0,0,1,0,0,0,1 @ F,0,0,1,0,1.8520833,0,1 @ F,0,0,1,0,1.8520833,0,1 @ F,0,0,1,0,0,0,1 @ F,0,0,1,0,0,0,1 @ F,0,0,1,0,0,0,1 @ F,0,0,1,0,0,0,1 @ F,0,0,1,0,0,0,1"
       unit="px"
       method="auto"
       mode="F"
       radius="7"
       chamfer_steps="1"
       flexible="false"
       use_knot_distance="true"
       apply_no_radius="true"
       apply_with_radius="true"
       only_selected="true"
       hide_knots="false" /><inkscape:path-effect
       effect="fillet_chamfer"
       id="path-effect9620"
       is_visible="true"
       lpeversion="1"
       nodesatellites_param="F,0,0,1,0,1.8520833,0,1 @ F,0,0,1,0,1.8520833,0,1 @ F,0,0,1,0,1.8520833,0,1 @ F,0,0,1,0,1.8520833,0,1 @ F,0,0,1,0,0,0,1 @ F,0,0,1,0,1.8520833,0,1 | F,0,0,1,0,1.8520833,0,1 @ F,0,0,1,0,1.8520833,0,1 @ F,0,0,1,0,1.8520833,0,1 @ F,0,0,1,0,1.8520833,0,1 @ F,0,0,1,0,0,0,1 @ F,0,0,1,0,1.8520833,0,1 | F,0,0,1,0,1.8520833,0,1 @ F,0,0,1,0,1.8520833,0,1 @ F,0,0,1,0,1.8520833,0,1 @ F,0,0,1,0,1.8520833,0,1 @ F,0,0,1,0,0,0,1 @ F,0,0,1,0,0,0,1 @ F,0,0,1,0,1.8520833,0,1 @ F,0,0,1,0,1.8520833,0,1 @ F,0,0,1,0,0,0,1 @ F,0,0,1,0,0,0,1 @ F,0,0,1,0,1.8520833,0,1 @ F,0,0,1,0,1.8520833,0,1 | F,0,0,1,0,0,0,1 @ F,0,0,1,0,0,0,1 @ F,0,0,1,0,0,0,1 @ F,0,0,1,0,0,0,1 @ F,0,0,1,0,0,0,1 | F,0,0,1,0,0,0,1 @ F,0,0,1,0,0,0,1 @ F,0,0,1,0,0,0,1 @ F,0,0,1,0,0,0,1 @ F,0,0,1,0,0,0,1 @ F,0,0,1,0,0,0,1 @ F,0,0,1,0,0,0,1 @ F,0,0,1,0,0,0,1 @ F,0,0,1,0,0,0,1 @ F,0,0,1,0,0,0,1 @ F,0,0,1,0,0,0,1 @ F,0,0,1,0,0,0,1 @ F,0,0,1,0,0,0,1 @ F,0,0,1,0,0,0,1 @ F,0,0,1,0,0,0,1 @ F,0,0,1,0,0,0,1 @ F,0,0,1,0,0,0,1 @ F,0,0,1,0,0,0,1 @ F,0,0,1,0,0,0,1 @ F,0,0,1,0,0,0,1 @ F,0,0,1,0,0,0,1 @ F,0,0,1,0,0,0,1 @ F,0,0,1,0,0,0,1 @ F,0,0,1,0,0,0,1 @ F,0,0,1,0,0,0,1 @ F,0,0,1,0,1.8520833,0,1 @ F,0,0,1,0,1.8520833,0,1 @ F,0,0,1,0,1.8520833,0,1 @ F,0,0,1,0,0,0,1 @ F,0,0,1,0,0,0,1 @ F,0,0,1,0,0,0,1 @ F,0,0,1,0,0,0,1 @ F,0,0,1,0,0,0,1 @ F,0,0,1,0,0,0,1 @ F,0,0,1,0,0,0,1 @ F,0,0,1,0,0,0,1 @ F,0,0,1,0,0,0,1 @ F,0,0,1,0,0,0,1 @ F,0,0,1,0,1.8520833,0,1 @ F,0,0,1,0,1.8520833,0,1 @ F,0,0,1,0,1.8520833,0,1 | F,0,0,1,0,0,0,1 @ F,0,0,1,0,0,0,1 @ F,0,0,1,0,0,0,1 | F,0,0,1,0,1.8520833,0,1 @ F,0,0,1,0,1.8520833,0,1 @ F,0,0,1,0,1.8520833,0,1 @ F,0,0,1,0,1.8520833,0,1 @ F,0,0,1,0,0,0,1 @ F,0,0,1,0,0,0,1 @ F,0,0,1,0,1.8520833,0,1 @ F,0,0,1,0,1.8520833,0,1 | F,0,0,1,0,1.8520833,0,1 @ F,0,0,1,0,1.8520833,0,1 @ F,0,0,1,0,0,0,1 @ F,0,0,1,0,0,0,1 | F,0,1,1,0,1.8520833,0,1 @ F,0,1,1,0,1.8520833,0,1 @ F,0,0,1,0,0,0,1 @ F,0,0,1,0,1.8520833,0,1 @ F,0,0,1,0,1.8520833,0,1 @ F,0,0,1,0,1.8520833,0,1 @ F,0,0,1,0,1.8520833,0,1 @ F,0,0,1,0,0,0,1 | F,0,0,1,0,1.8520833,0,1 @ F,0,0,1,0,1.8520833,0,1 @ F,0,0,1,0,0,0,1 @ F,0,0,1,0,0,0,1 @ F,0,0,1,0,1.8520833,0,1 @ F,0,0,1,0,1.8520833,0,1 @ F,0,0,1,0,0,0,1 @ F,0,0,1,0,0,0,1 @ F,0,0,1,0,1.8520833,0,1 @ F,0,0,1,0,1.8520833,0,1 @ F,0,0,1,0,1.8520833,0,1 @ F,0,0,1,0,1.8520833,0,1 | F,0,0,1,0,1.8520833,0,1 @ F,0,0,1,0,0,0,1 @ F,0,0,1,0,1.8520833,0,1 @ F,0,0,1,0,1.8520833,0,1 @ F,0,0,1,0,1.8520833,0,1 @ F,0,0,1,0,1.8520833,0,1 @ F,0,0,1,0,0,0,1 @ F,0,0,1,0,1.8520833,0,1 @ F,0,0,1,0,1.8520833,0,1 @ F,0,0,1,0,1.8520833,0,1 | F,0,0,1,0,1.8520833,0,1 @ F,0,0,1,0,1.8520833,0,1 @ F,0,0,1,0,0,0,1 @ F,0,0,1,0,0,0,1 @ F,0,0,1,0,0,0,1 @ F,0,0,1,0,0,0,1 @ F,0,0,1,0,0,0,1 @ F,0,0,1,0,0,0,1 @ F,0,0,1,0,0,0,1 @ F,0,0,1,0,0,0,1 @ F,0,0,1,0,0,0,1 @ F,0,0,1,0,0,0,1 @ F,0,0,1,0,0,0,1 @ F,0,0,1,0,0,0,1 @ F,0,0,1,0,0,0,1 @ F,0,0,1,0,0,0,1 @ F,0,0,1,0,0,0,1 @ F,0,0,1,0,0,0,1 @ F,0,0,1,0,0,0,1 @ F,0,0,1,0,0,0,1 @ F,0,0,1,0,1.8520833,0,1 @ F,0,0,1,0,1.8520833,0,1 @ F,0,0,1,0,1.8520833,0,1 @ F,0,0,1,0,0,0,1 @ F,0,0,1,0,0,0,1 @ F,0,0,1,0,0,0,1 @ F,0,0,1,0,0,0,1 @ F,0,0,1,0,0,0,1 @ F,0,0,1,0,0,0,1 @ F,0,0,1,0,0,0,1 @ F,0,0,1,0,0,0,1 @ F,0,0,1,0,0,0,1 @ F,0,0,1,0,0,0,1 @ F,0,0,1,0,0,0,1 @ F,0,0,1,0,0,0,1 @ F,0,0,1,0,0,0,1 @ F,0,0,1,0,0,0,1 @ F,0,0,1,0,0,0,1 @ F,0,0,1,0,0,0,1 @ F,0,0,1,0,0,0,1 @ F,0,0,1,0,0,0,1 @ F,0,0,1,0,0,0,1 | F,0,0,1,0,0,0,1 @ F,0,0,1,0,0,0,1 @ F,0,0,1,0,0,0,1 | F,0,0,1,0,1.8520833,0,1 @ F,0,0,1,0,1.8520833,0,1 @ F,0,0,1,0,0,0,1 @ F,0,0,1,0,0,0,1 @ F,0,0,1,0,1.8520833,0,1 @ F,0,0,1,0,1.8520833,0,1 @ F,0,0,1,0,0,0,1 @ F,0,0,1,0,0,0,1 | F,0,0,1,0,1.8520833,0,1 @ F,0,0,1,0,1.8520833,0,1 @ F,0,0,1,0,0,0,1 @ F,0,0,1,0,0,0,1 @ F,0,0,1,0,0,0,1 @ F,0,0,1,0,1.8520833,0,1 @ F,0,0,1,0,1.8520833,0,1 @ F,0,0,1,0,0,0,1 @ F,0,0,1,0,0,0,1 @ F,0,0,1,0,0,0,1 @ F,0,0,1,0,0,0,1 @ F,0,0,1,0,0,0,1"
       unit="px"
       method="auto"
       mode="F"
       radius="7"
       chamfer_steps="1"
       flexible="false"
       use_knot_distance="true"
       apply_no_radius="true"
       apply_with_radius="true"
       only_selected="true"
       hide_knots="false" /></defs><g
     inkscape:label="Laag 1"
     inkscape:groupmode="layer"
     id="layer1"><rect
       style="display:inline;fill:#efedf2;fill-opacity:1;fill-rule:evenodd;stroke:none;stroke-width:10.1642;stroke-linecap:round;stroke-linejoin:round;stroke-dasharray:none;stroke-opacity:1;paint-order:markers fill stroke"
       id="rect29578"
       width="225.68237"
       height="225.68237"
       x="836.50433"
       y="-167.57599"
       rx="0"
       ry="0"
       transform="matrix(0.10035221,0,0,0.10035221,132.79309,198.51793)" /><image
       width="2092.6296"
       height="2092.6296"
       preserveAspectRatio="none"
       xlink:href="body.side.ground.uv.png"
       id="image314"
       x="-1323.2703"
       y="-1972.8428"
       style="display:inline"
       transform="matrix(0.10035221,0,0,0.10035221,132.79309,197.97913)"
       inkscape:label="uv" /><g
       id="g438"
       style="display:inline"
       transform="matrix(0.10035221,0,0,0.10035221,132.79309,197.97913)"><rect
         style="fill:#efedf2;fill-opacity:1;fill-rule:evenodd;stroke-width:3.27407;stroke-linecap:round;stroke-linejoin:round;paint-order:markers fill stroke"
         id="rect581"
         width="145.43381"
         height="66.516563"
         x="-81.036728"
         y="28.619644"
         inkscape:label="background" /><path
         id="path965"
         style="opacity:1;fill:#fe0000;fill-opacity:1;fill-rule:evenodd;stroke:none;stroke-width:0.799999;stroke-linecap:round;stroke-linejoin:round;stroke-opacity:1;paint-order:markers fill stroke"
         d="M -8.073932,80.430233 -76.48216,90.420837 V 35.89755 l 68.408228,8.97413 0.0842,-17.271298 h -74.757679 v 69.593685 h 74.757709 z"
         sodipodi:nodetypes="ccccccccc"
         inkscape:label="left" /><path
         id="rect354"
         style="opacity:1;fill:#000000;fill-opacity:1;fill-rule:evenodd;stroke:none;stroke-width:0.799999;stroke-linecap:round;stroke-linejoin:round;stroke-opacity:1;paint-order:markers fill stroke"
         d="m -7.989702,97.194067 h 74.75823 V 27.600382 h -74.75823 l -0.0842,17.271298 68.40823,-8.97413 v 54.523287 l -68.40823,-9.990604 z"
         sodipodi:nodetypes="ccccccccc"
         inkscape:label="right" /><g
         id="g1990"
         inkscape:label="champion"
         style="opacity:1;fill:#000000;fill-opacity:1;stroke:#000000;stroke-width:0.5;stroke-dasharray:none;stroke-opacity:1"
         transform="translate(-111.36375)"><path
           id="path1968"
           style="fill:#000000;fill-opacity:1;stroke:#000000;stroke-width:0.5;stroke-linecap:butt;stroke-linejoin:miter;stroke-dasharray:none;stroke-opacity:1"
           d="m 115.31186,62.143102 v -6.688428 h 3.49228 a 2.6458333,2.6458333 45 0 1 2.64583,2.645833 v 1.389058 a 2.6491562,2.6491562 134.96404 0 1 -2.64583,2.649154 z m -3.51354,-10.625285 v 22.478192 h 3.4712 V 65.82597 h 4.1695 c 2.92251,0 5.29963,-2.369151 5.3059,-5.291655 0.003,-1.204625 0.005,-2.484465 0.006,-3.688842 0.003,-2.919025 -2.38855,-5.333598 -5.31038,-5.336536 -3.5732,-0.0036 -7.64218,0.0089 -7.64218,0.0089 z" /><path
           style="fill:#000000;fill-opacity:1;stroke:#000000;stroke-width:0.5;stroke-linecap:butt;stroke-linejoin:miter;stroke-dasharray:none;stroke-opacity:1"
           d="m 127.36539,51.484953 v 22.569566 h 3.56204 V 51.544817 Z"
           id="path1975" /><path
           style="fill:#000000;fill-opacity:1;stroke:#000000;stroke-width:0.5;stroke-linecap:butt;stroke-linejoin:miter;stroke-dasharray:none;stroke-opacity:1"
           d="M 153.05067,74.03834 V 51.544817 h 3.82877 l 7.03428,15.864552 V 51.514885 h 3.11304 v 22.629434 h -3.41237 l -7.12408,-16.163883 v 16.068636 z"
           id="path1977"
           sodipodi:nodetypes="ccccccccccc" /><path
           id="path1869"
           style="opacity:1;fill:#000000;fill-opacity:1;fill-rule:evenodd;stroke:#000000;stroke-width:0.5;stroke-linecap:round;stroke-linejoin:round;stroke-dasharray:none;stroke-opacity:1;paint-order:markers fill stroke"
           d="m 135.20482,69.160759 a 8.1859975,11.539161 0 0 1 2.37338,-15.954942 8.1859975,11.539161 0 0 1 11.32349,3.312504 8.1859975,11.539161 0 0 1 -2.32647,15.968664 8.1859975,11.539161 0 0 1 -11.33313,-3.246354 m 3.06153,-2.038801 a 4.6408797,7.9518576 0 0 1 1.34553,-10.994857 4.6408797,7.9518576 0 0 1 6.41961,2.28271 4.6408797,7.9518576 0 0 1 -1.31894,11.004313 4.6408797,7.9518576 0 0 1 -6.42508,-2.237125" /><path
           id="path1920"
           style="display:inline;opacity:1;fill:#000000;fill-opacity:1;fill-rule:evenodd;stroke:#000000;stroke-width:0.487612;stroke-linecap:round;stroke-linejoin:round;stroke-dasharray:none;stroke-opacity:1;paint-order:markers fill stroke"
           d="M 46.036031,51.314652 A 7.7811737,11.545407 0 0 0 41.84553,53.20083 7.7811737,11.545407 0 0 0 39.589409,69.164047 l 0.03585,0.08014 a 7.7811737,11.545407 0 0 0 10.772697,3.24807 7.7811737,11.545407 0 0 0 3.133421,-6.174539 h -3.32794 a 4.4113733,7.9561619 0 0 1 -1.540921,3.17982 4.4113733,7.9561619 0 0 1 -6.107197,-2.238283 l -0.02014,-0.05532 a 4.4113733,7.9561619 0 0 1 1.279108,-11.000629 4.4113733,7.9561619 0 0 1 6.102285,2.283784 4.4113733,7.9561619 0 0 1 0.300128,0.963253 h 3.325483 a 7.7811737,11.545407 0 0 0 -0.932805,-2.935259 7.7811737,11.545407 0 0 0 -6.573354,-5.20043 z" /><path
           style="fill:#000000;fill-opacity:1;stroke:#000000;stroke-width:0.5;stroke-linecap:butt;stroke-linejoin:miter;stroke-dasharray:none;stroke-opacity:1"
           d="M 56.766959,51.644811 V 74.03834 h 3.682868 v -9.905645 h 6.857754 v 9.947976 c 0,0 3.428878,0 3.428878,0 0,0 0,-22.47819 0,-22.47819 h -3.640537 v 8.635687 H 60.49216 v -8.635687 z"
           id="path1939" /><path
           id="path1943"
           style="fill:#000000;fill-opacity:1;stroke:#000000;stroke-width:0.5;stroke-linecap:butt;stroke-linejoin:miter;stroke-dasharray:none;stroke-opacity:1"
           d="m 79.033493,65.635475 h 4.466008 L 81.255914,56.87279 Z m -6.049084,8.50136 6.308405,-22.53215 h 4.055936 c 0,0 6.12132,22.509699 6.106355,22.509699 h -3.831439 l -1.107525,-4.609698 h -6.420654 l -1.152424,4.624665 z" /><path
           style="fill:#000000;fill-opacity:1;stroke:#000000;stroke-width:0.5;stroke-linecap:butt;stroke-linejoin:miter;stroke-dasharray:none;stroke-opacity:1"
           d="m 91.685122,51.574752 h 5.11856 l 3.202848,17.421072 3.17291,-17.480939 h 5.08862 v 22.539634 h -3.29264 c 0.0299,0 0,-18.375612 0,-18.375612 l -3.29264,18.375612 H 98.270405 L 95.037631,55.675898 v 18.408554 h -3.322577 z"
           id="path1946"
           sodipodi:nodetypes="cccccccccccccc" /></g><g
         id="g6622"
         inkscape:label="facom"
         style="display:inline"
         transform="matrix(1.0036594,0,0,1.0036594,-750.53661,-20.94854)"><rect
           style="display:inline;opacity:1;fill:#efecf2;fill-opacity:0.698039;fill-rule:evenodd;stroke-width:0.328999;stroke-linecap:round;stroke-linejoin:round;paint-order:markers fill stroke"
           id="rect1566"
           width="86.207359"
           height="73.156525"
           x="282.9278"
           y="48.37191"
           inkscape:label="background.white" /><rect
           style="display:inline;opacity:1;fill:#242021;fill-opacity:1;fill-rule:evenodd;stroke-width:0.328999;stroke-linecap:round;stroke-linejoin:round;paint-order:markers fill stroke"
           id="rect1938"
           width="86.207359"
           height="73.156525"
           x="282.9278"
           y="48.37191"
           inkscape:label="background.black"
           transform="matrix(0.94008911,0,0,0.22431551,19.345106,91.750671)" /><rect
           style="display:inline;opacity:1;fill:#ee4035;fill-opacity:1;fill-rule:evenodd;stroke-width:0.328999;stroke-linecap:round;stroke-linejoin:round;paint-order:markers fill stroke"
           id="rect1934"
           width="86.207359"
           height="73.156525"
           x="282.9278"
           y="48.37191"
           transform="matrix(0.94008911,0,0,0.67103109,19.345106,18.666701)"
           inkscape:label="background.red" /><path
           id="path4246"
           style="display:inline;opacity:1;fill:#efecf2;fill-opacity:1;stroke:none;stroke-width:0.264583px;stroke-linecap:butt;stroke-linejoin:miter;stroke-opacity:1"
           d="m 338.34627,59.912105 c -16.60491,-0.0076 -43.20873,0.114205 -43.20873,0.114205 v 7.70444 c 0,0.253988 33.78088,0 33.78088,0 l -2.28616,3.725354 h -31.74897 l 4.57182,7.704439 h 27.34665 l 2.11666,3.555855 h -27.2619 l 4.65657,7.958171 h 45.04117 c 0,0 8.97418,-15.23938 9.05888,-15.23938 0.0847,0 -9.12808,-15.150736 -9.05888,-15.408879 0.0216,-0.08067 -5.4603,-0.110738 -13.00799,-0.114205 z m 3.88504,7.662065 a 7.8313851,7.8313851 0 0 1 6.98768,3.515031 7.8313851,7.8313851 0 0 1 -2.2257,10.837581 7.8313851,7.8313851 0 0 1 -10.84223,-2.202966 l -0.0357,-0.05426 a 7.8313851,7.8313851 0 0 1 2.27066,-10.82828 7.8313851,7.8313851 0 0 1 3.84525,-1.267106 z" /><g
           id="g6688"
           inkscape:label="facom"
           style="fill:#efecf2;fill-opacity:1;stroke:none"><path
             style="display:inline;opacity:1;fill:#efecf2;fill-opacity:1;stroke:none;stroke-width:0.264583px;stroke-linecap:butt;stroke-linejoin:miter;stroke-opacity:1"
             d="m 355.59715,105.39548 h 1.83007 c 1.72962,0.031 4.20644,-0.2172 5.33043,1.66735 0.3049,0.57701 0.2574,1.25672 0.2718,2.34269 l -10e-6,6.52542 h -3.7423 v -7.18577 c 0,-0.39454 -0.31984,-0.71438 -0.71438,-0.71438 h -2.97141 c -0.39454,0 -0.71437,0.31984 -0.71437,0.71438 v 7.18577 h -3.80151 v -7.18577 c 0,-0.39454 -0.31984,-0.71438 -0.71438,-0.71438 h -2.79182 c -0.39454,0 -0.71437,0.31984 -0.71437,0.71438 v 7.18577 h -4.03643 v -6.52542 c 0.0144,-1.08597 -0.0331,-1.76568 0.2718,-2.34269 1.12399,-1.88455 3.60081,-1.63635 5.33043,-1.66735 h 1.97973 c 1.19443,-0.0378 2.4792,0.77873 2.51853,1.73513 0.35113,-1.42029 1.51884,-1.73513 2.66819,-1.73513 z"
             id="path6419"
             sodipodi:nodetypes="cccccccccccccccccccccccc"
             inkscape:label="M" /><path
             id="path6543"
             style="fill:#efecf2;fill-opacity:1;fill-rule:evenodd;stroke:none;stroke-width:0.264583px;stroke-linecap:butt;stroke-linejoin:miter;stroke-opacity:1"
             d="m 332.94197,108.03079 h 3.71975 a 0.714375,0.714375 45 0 1 0.71438,0.71438 v 3.88388 a 0.714375,0.714375 135 0 1 -0.71437,0.71438 h -3.71975 a 0.714375,0.714375 45 0 1 -0.71438,-0.71438 v -3.88388 a 0.714375,0.714375 135 0 1 0.71437,-0.71438 z m 8.05671,1.37473 c -0.0144,-1.08597 0.0331,-1.76568 -0.2718,-2.34269 -1.12399,-1.88455 -3.60081,-1.63635 -5.33043,-1.66735 h -1.27378 c -1.72962,0.031 -4.20644,-0.2172 -5.33043,1.66735 -0.3049,0.57701 -0.2574,1.25672 -0.2718,2.34269 v 2.50764 c 0.0144,1.08597 -0.0331,1.76568 0.2718,2.34269 1.12399,1.88455 3.60081,1.63634 5.33043,1.66735 h 1.27378 c 1.72962,-0.031 4.20644,0.2172 5.33043,-1.66735 0.3049,-0.57701 0.2574,-1.25672 0.2718,-2.34269 z"
             inkscape:label="O" /><path
             style="display:inline;opacity:1;fill:#efecf2;fill-opacity:1;stroke:none;stroke-width:0.264583px;stroke-linecap:butt;stroke-linejoin:miter;stroke-opacity:1"
             d="m 327.13965,111.53077 c 0,0 6e-4,0.43685 0,0.40925 -0.0144,1.08597 0.0331,1.76568 -0.2718,2.34269 -1.12399,1.88455 -3.60081,1.63635 -5.33043,1.66735 h -1.27378 c -1.72962,-0.031 -4.20644,0.2172 -5.33043,-1.66735 -0.3049,-0.57701 -0.2574,-1.25672 -0.2718,-2.34269 v -2.5345 c 0.0144,-1.08597 -0.0331,-1.76568 0.2718,-2.34269 1.12399,-1.88455 3.60081,-1.63635 5.33043,-1.66735 h 1.27378 c 1.72962,0.031 4.20644,-0.2172 5.33043,1.66735 0.3049,0.57701 0.2574,1.25672 0.2718,2.34269 v 0.5388 h -4.12675 v -1.19915 a 0.714375,0.714375 45 0 0 -0.71438,-0.71438 h -2.55044 a 0.714375,0.714375 135 0 0 -0.71437,0.71438 v 3.88389 a 0.714375,0.714375 45 0 0 0.71437,0.71437 h 2.55044 a 0.714375,0.714375 135 0 0 0.71438,-0.71437 v -1.09829 z"
             id="path6415"
             sodipodi:nodetypes="cccccccccccc"
             inkscape:label="C" /><path
             id="path6483"
             style="display:inline;opacity:1;fill:#efecf2;fill-opacity:1;fill-rule:evenodd;stroke:none;stroke-width:0.264583px;stroke-linecap:butt;stroke-linejoin:miter;stroke-opacity:1"
             d="m 309.05939,110.66321 h -4.86299 v -1.8903 a 0.714375,0.714375 135 0 1 0.71437,-0.71438 h 3.39708 a 0.7246422,0.7246422 44.591209 0 1 0.72456,0.7143 z m 3.86203,-1.25769 c -0.0144,-1.08597 0.0331,-1.76568 -0.2718,-2.34269 -1.12399,-1.88455 -3.60081,-1.63635 -5.33043,-1.66735 h -1.27378 c -1.72962,0.031 -4.20644,-0.2172 -5.33043,1.66735 -0.3049,0.57701 -0.2574,1.25672 -0.2718,2.34269 v 6.52542 h 3.75323 v -2.82034 h 4.82582 v 2.82034 h 3.89919 z"
             inkscape:label="A" /><path
             id="path6469"
             style="display:inline;fill:#efecf2;fill-opacity:1;stroke:none;stroke-width:0.264583px;stroke-linecap:butt;stroke-linejoin:miter;stroke-opacity:1"
             d="m 288.67494,109.40552 c 0.0144,-1.08597 -0.0331,-1.76568 0.2718,-2.34269 1.12399,-1.88455 3.60081,-1.63635 5.33043,-1.66735 h 4.44435 c 0.39453,0 0.71437,0.31984 0.71437,0.71437 v 2.33781 h -6.00562 c -0.39454,0 -0.71438,0.31984 -0.71438,0.71438 v 1.39591 h 6.72 v 3.03947 h -6.72 v 2.32825 h -4.04096 z"
             sodipodi:nodetypes="cccccccsccccccc"
             inkscape:label="F" /></g></g><g
         id="g7212"
         style="display:inline;stroke:#000000;stroke-width:0.6;stroke-dasharray:none;stroke-opacity:1"
         inkscape:label="magnetimarelli"
         transform="matrix(0.78451071,0,0,0.78451071,-11.527693,15.523335)"><path
           id="path8679"
           style="display:none;opacity:1;fill:#efecf2;fill-opacity:1;fill-rule:evenodd;stroke:#000000;stroke-width:0.6;stroke-linecap:round;stroke-linejoin:round;stroke-dasharray:none;stroke-dashoffset:0;stroke-opacity:1;paint-order:markers fill stroke"
           d="M 462.4358,79.280117 V 41.547151 c 22.9541,-14.612851 53.96667,-23.213129 82.55084,-23.213129 28.58417,0 59.59674,8.600278 82.55084,23.213129 v 37.732966 c -22.9541,14.612851 -53.96667,23.213133 -82.55084,23.213133 -28.58417,0 -59.59674,-8.600282 -82.55084,-23.213133 z"
           sodipodi:nodetypes="ccaccac" /><path
           id="path10025"
           style="display:inline;opacity:1;fill:#f8f7f9;fill-opacity:1;fill-rule:evenodd;stroke:none;stroke-width:0.66;stroke-linecap:round;stroke-linejoin:round;stroke-dasharray:none;stroke-dashoffset:0;stroke-opacity:1;paint-order:markers fill stroke"
           d="M 454.18072,81.166765 V 39.660502 c 25.24951,-16.074136 59.36333,-25.534441 90.80592,-25.534441 31.44259,0 65.55641,9.460305 90.80592,25.534441 v 41.506263 c -25.24951,16.074136 -59.36333,25.534445 -90.80592,25.534445 -31.44259,0 -65.55641,-9.460309 -90.80592,-25.534445 z"
           sodipodi:nodetypes="ccaccac" /><path
           id="path9615"
           style="display:inline;opacity:1;fill:#144e81;fill-opacity:1;fill-rule:evenodd;stroke:none;stroke-width:0.264583px;stroke-linecap:butt;stroke-linejoin:miter;stroke-opacity:1"
           d="m 600.28478,65.688452 v 24.996971 a 1.2120673,1.2120673 33.202122 0 0 1.69724,1.110729 l 13.99775,-6.114236 a 2.8300511,2.8300511 123.20212 0 0 1.69724,-2.593437 v -3.587634 a 1.2075493,1.2075493 33.104154 0 0 -1.69469,-1.104929 l -8.42568,3.714708 V 65.688452 a 1.8520833,1.8520833 45 0 0 -1.85208,-1.852083 h -3.5677 a 1.8520833,1.8520833 135 0 0 -1.85208,1.852083 z m -22.56708,0 v 31.044979 a 1.4116784,1.4116784 37.31505 0 0 1.78584,1.361189 l 17.16454,-4.7182 a 2.4298825,2.4298825 127.31505 0 0 1.78584,-2.342977 v -3.908404 a 1.3796647,1.3796647 36.683378 0 0 -1.77459,-1.321935 L 585.69285,89.08526 V 65.688452 a 1.8520833,1.8520833 45 0 0 -1.85208,-1.852083 h -4.27099 a 1.8520833,1.8520833 135 0 0 -1.85208,1.852083 z m -26.36411,-8.19e-4 c -0.0407,6.428021 -0.0235,27.739629 -0.0172,34.168896 0.001,1.022871 0.82486,1.750211 1.83999,1.624571 l 20.66394,-2.557618 a 2.0954519,2.0954519 131.47214 0 0 1.83806,-2.079583 v -3.627935 a 1.6173109,1.6173109 41.128721 0 0 -1.8352,-1.602566 l -14.92406,2.029101 0.13146,-8.062807 12.7845,-0.38277 a 1.9083649,1.9083649 134.14253 0 0 1.85125,-1.90751 v -2.781134 a 1.8520833,1.8520833 45 0 0 -1.85208,-1.852083 h -12.82751 v -7.671046 c 0,0 9.69766,-0.137057 13.84353,-0.08789 1.01945,0.01209 1.84391,-0.741316 1.84391,-1.764193 v -3.444614 a 1.8520833,1.8520833 45 0 0 -1.85208,-1.852083 l -19.6079,0 c -1.02287,0 -1.87412,0.828738 -1.8806,1.851264 z M 529.9943,71.13861 v 8.043045 h 6.00664 c 1.81567,0 3.30249,-2.207452 3.31467,-4.246243 0,-1.829322 -1.47113,-3.782808 -3.27462,-3.817966 z m 7.55621,-7.302241 c 0.83504,0 1.62169,0.0324 2.40527,0.216896 0.77998,0.183648 1.53229,0.497365 2.23903,0.875008 0.83128,0.444187 1.64306,0.960816 2.3193,1.617337 0.61151,0.593676 1.11358,1.306099 1.52394,2.053093 0.48388,0.880817 0.84389,1.838087 1.07945,2.815066 0.20125,0.834685 0.26182,1.702573 0.27517,2.561074 0.0101,0.650885 -0.0469,1.304223 -0.14817,1.947262 -0.0937,0.595018 -0.23301,1.185272 -0.42331,1.756772 -0.1917,0.575718 -0.4359,1.135733 -0.71964,1.672106 -0.21507,0.406567 -0.45103,0.806932 -0.7408,1.164124 -0.28603,0.352584 -0.62902,0.656884 -0.97364,0.952466 -0.40165,0.344495 -0.82084,0.672648 -1.26995,0.952465 -0.36957,0.230263 -0.76245,0.424556 -1.16414,0.592646 -0.45279,0.189476 -1.39695,0.465651 -1.39695,0.465651 0.44448,0.253991 0.92395,0.454752 1.33345,0.761973 0.46299,0.347347 0.85947,0.778176 1.24881,1.206455 0.41876,0.46065 0.8135,0.94602 1.16411,1.460447 0.25692,0.376968 0.48199,0.776354 0.68419,1.185291 0.21683,0.438512 0.40531,0.892085 0.56459,1.354619 0.19059,0.553483 0.32066,1.12614 0.46567,1.693273 0.16703,0.653235 0.30355,1.31395 0.46564,1.968428 0.14892,0.601297 0.31044,1.199401 0.46566,1.799103 0.15522,0.5997 0.28596,1.206272 0.46564,1.799101 0.14303,0.471914 0.31006,0.936602 0.48681,1.39695 0.31361,0.816796 0.93369,2.225475 1.32783,3.169365 0.0499,0.11939 -0.73892,0.21616 -1.76179,0.21616 h -5.3125 c -1.02287,0 -2.08299,-0.79641 -2.36703,-1.779055 -0.14038,-0.48565 -0.27982,-0.971567 -0.41636,-1.458309 -0.27459,-0.978889 -0.54476,-1.959073 -0.8043,-2.942061 -0.19701,-0.746172 -0.36714,-1.499387 -0.57148,-2.243585 -0.21812,-0.794378 -0.42527,-1.593423 -0.69847,-2.370581 -0.24029,-0.683532 -0.50798,-1.359494 -0.82548,-2.010762 -0.25616,-0.525454 -0.50428,-1.066156 -0.8678,-1.523945 -0.31669,-0.398812 -0.69905,-0.7532 -1.12181,-1.037129 -0.3878,-0.260448 -0.82275,-0.457624 -1.26995,-0.592646 -0.36202,-0.109303 -0.74468,-0.141027 -1.12178,-0.169328 -0.72466,-0.05438 -2.18008,0 -2.18008,0 v 13.577868 a 1.6349857,1.6349857 138.56252 0 1 -1.83778,1.622363 l -3.94418,-0.49303 A 2.0980077,2.0980077 48.562517 0 1 522.2899,97.987497 V 65.688452 a 1.8520833,1.8520833 135 0 1 1.85208,-1.852083 z m -35.24123,20.044116 c 0,0 5.41706,0.08429 5.43965,0 0.0225,-0.08428 -2.62459,-10.138468 -2.62459,-10.138468 z m -0.582,-20.044116 h 6.51899 a 2.4305074,2.4305074 37.307948 0 1 2.34342,1.785721 l 8.85945,32.198944 c 0.27136,0.986226 -0.32418,1.635581 -1.32962,1.447436 -1.41571,-0.264917 -3.36961,-0.634925 -4.78036,-0.919359 -1.00081,-0.201783 -2.01429,-1.215892 -2.29409,-2.199643 -0.62537,-2.198689 -1.62403,-5.644054 -1.62403,-5.644054 H 500.616 c 0,0 -0.44699,1.347634 -0.84281,2.52971 -0.32352,0.966176 -1.38156,1.478948 -2.34885,1.146342 -1.15615,-0.397549 -2.66488,-0.917375 -3.82063,-1.315754 -0.96674,-0.333233 -1.52518,-1.401563 -1.24737,-2.385992 l 7.01584,-24.860885 a 2.4470852,2.4470852 142.87964 0 1 2.3551,-1.782466 z m 117.89796,-25.069355 0,43.293239 a 1.061839,1.061839 29.82657 0 0 1.59832,0.916348 l 6.31391,-3.696484 V 41.54715 l -6.31391,-3.696484 a 1.061839,1.061839 150.17343 0 0 -1.59832,0.916348 z m -14.20617,17.745956 3.88068,0 a 1.8520833,1.8520833 135 0 0 1.85208,-1.852083 V 40.553878 l 4.95955,2.308624 a 1.180781,1.180781 147.48078 0 0 1.67908,-1.070485 v -3.994452 a 2.8085531,2.8085531 56.597388 0 0 -1.70238,-2.581541 l -16.24767,-6.962005 a 1.2213451,1.2213451 146.59739 0 0 -1.70238,1.122625 v 4.118336 a 2.6477452,2.6477452 55.027421 0 0 1.73978,2.487198 l 3.71035,1.35448 -0.0191,17.32423 a 1.8500398,1.8500398 45.031626 0 0 1.85004,1.852082 z m -8.92151,-1.852083 v -3.428744 a 1.8520833,1.8520833 45 0 0 -1.85208,-1.852083 h -12.45606 v -5.630132 c 0,0 7.34013,0.134345 10.86897,0.189656 1.02262,0.01603 1.84605,-0.80719 1.83898,-1.83005 -0.005,-0.764386 -0.0114,-1.648491 -0.0167,-2.412869 -0.007,-1.022845 -0.84038,-1.904611 -1.8612,-1.969479 l -10.80886,-0.686851 v -6.603761 l 12.10157,3.394342 a 1.4040721,1.4040721 142.83408 0 0 1.78326,-1.351899 v -3.798925 a 2.3976624,2.3976624 52.315574 0 0 -1.79202,-2.319911 l -17.85724,-4.661828 a 1.4306487,1.4306487 142.31557 0 0 -1.79202,1.384255 v 31.57828 c 0,1.022877 0.82921,1.852083 1.85208,1.852083 6.04642,-2e-6 12.09284,-10e-7 18.13926,-10e-7 1.02287,0 1.85208,-0.829206 1.85208,-1.852083 z m -41.50632,10e-7 V 36.875522 l 8.16519,17.951564 a 2.8770795,2.8770795 32.770893 0 0 2.6189,1.685884 h 3.70388 a 1.8520833,1.8520833 135 0 0 1.85208,-1.852083 V 22.480226 a 2.1433654,2.1433654 49.169685 0 0 -1.8325,-2.120702 l -4.09745,-0.600629 a 1.6003862,1.6003862 139.16969 0 0 -1.8325,1.583464 l 0,18.573444 -8.4488,-19.579373 a 2.9414361,2.9414361 34.462375 0 0 -2.58444,-1.773734 l -3.50565,-0.1387 a 1.7802557,1.7802557 136.13285 0 0 -1.85064,1.778864 v 34.458027 a 1.8520835,1.8520835 45.000004 0 0 1.85208,1.852083 l 4.10777,10e-7 a 1.8520831,1.8520831 135 0 0 1.85208,-1.852083 z m -14.9288,-25.476167 2.03192,-4.325208 c 0.43493,-0.925805 0.16697,-2.226581 -0.61684,-2.883763 -1.21839,-1.021549 -2.48957,-1.972614 -3.93871,-2.582837 -1.94415,-0.818669 -4.12156,-1.27835 -6.22609,-1.133715 -2.23693,0.153734 -4.44126,0.991318 -6.39072,2.09906 -1.65021,0.9377 -3.15453,2.221028 -4.2954,3.737897 -1.49133,1.98283 -2.45302,4.364951 -3.13685,6.749916 -0.69694,2.43069 -0.88719,4.999978 -0.93403,7.528177 -0.0313,1.691001 0.12228,3.393349 0.43778,5.054953 0.32257,1.698855 0.7872,3.38738 1.47793,4.972642 0.62757,1.440318 1.39818,2.845005 2.39464,4.059677 0.93388,1.138388 2.04257,2.166598 3.29264,2.944669 0.9364,0.582836 2.00065,0.96162 3.06815,1.239073 1.05597,0.274457 2.15668,0.408864 3.24774,0.407249 0.88586,-0.0013 1.77926,-0.112973 2.63594,-0.338464 0.70792,-0.186334 1.40362,-0.456181 2.03364,-0.828928 0.44914,-0.26573 0.8411,-0.623084 1.21592,-0.986197 0.39848,-0.386037 0.72595,-0.83919 1.08892,-1.258785 v 2.872834 h 7.06421 v -19.84868 a 1.8520833,1.8520833 45 0 0 -1.85208,-1.852083 h -9.97527 a 1.8520833,1.8520833 135 0 0 -1.85208,1.852083 v 3.809045 a 1.8520833,1.8520833 45 0 0 1.85208,1.852083 h 4.70326 c -0.01,0.678484 0.0813,1.366066 -0.0299,2.035453 -0.10514,0.633004 -0.28668,1.268126 -0.59547,1.830614 -0.31022,0.565079 -0.76192,1.049212 -1.23045,1.49196 -0.56605,0.534898 -1.16224,1.088831 -1.88366,1.382242 -0.71931,0.292558 -1.53163,0.367114 -2.30697,0.323947 -1.05945,-0.05899 -2.17734,-0.238149 -3.08373,-0.789854 -1.01169,-0.615798 -1.76742,-1.629372 -2.36409,-2.652454 -0.62773,-1.076329 -0.93348,-2.3225 -1.20416,-3.538747 -0.29173,-1.310842 -0.42019,-2.661665 -0.44218,-4.004397 -0.0157,-0.960595 0.0796,-1.923519 0.22238,-2.873578 0.14586,-0.970847 0.35974,-1.934404 0.64569,-2.873579 0.25793,-0.847138 0.54409,-1.695426 0.96087,-2.476745 0.42545,-0.797564 0.90603,-1.591987 1.55352,-2.222755 0.59827,-0.582813 1.3214,-1.055766 2.09062,-1.381178 0.76362,-0.323038 1.60038,-0.515011 2.42928,-0.534541 0.68606,-0.01616 1.37319,0.145946 2.02925,0.347239 0.72492,0.222421 1.44101,0.518744 2.07158,0.939885 0.61375,0.409906 1.13438,0.954051 1.61743,1.512063 0.13399,0.154783 0.25947,0.31618 0.37963,0.481717 0.59991,0.826495 1.37873,0.787815 1.81366,-0.13799 z m -37.90132,16.131485 h 4.67767 l -2.31611,-10.201969 z m -8.58286,11.196765 h 4.288 a 2.3114209,2.3114209 141.29568 0 0 2.25583,-1.80754 l 0.599,-2.681683 c 0,0 7.51322,-0.02993 7.51322,0 l 0.70127,2.696754 a 2.3953009,2.3953009 37.711744 0 0 2.3182,1.792469 h 4.21315 a 1.4349847,1.4349847 127.76834 0 0 1.3895,-1.793387 l -8.26823,-32.055543 -8.76598,2.305361 -7.6356,29.749632 a 1.4367542,1.4367542 52.197468 0 0 1.39164,1.793937 z m -29.61492,23.710003 c 1.30697,0.810013 3.15916,1.951994 4.4769,2.739962 0.87437,0.522849 1.61221,0.06718 1.61221,-0.955698 V 62.481756 c 0,0 6.13812,24.552452 6.09579,24.552452 -0.0423,0 6.13809,-24.383124 6.13809,-24.383124 v 24.308974 a 2.7043091,2.7043091 55.59417 0 0 1.72688,2.52149 l 4.08131,1.582083 a 1.2684247,1.2684247 145.59417 0 0 1.72688,-1.182676 V 28.023661 l -7.53507,3.090222 -5.88412,29.251283 -6.3921,-23.748148 -7.5774,4.23318 -0.0403,36.542872 c -0.001,1.022877 0.70147,2.291047 1.57092,2.829904 z"
           inkscape:path-effect="#path-effect9620"
           inkscape:original-d="m 600.28478,63.836369 v 28.701137 l 17.39223,-7.596944 v -7.2918 l -10.12037,4.461862 V 63.836369 Z m -22.56708,0 v 34.749145 l 20.73622,-5.699988 v -7.61257 L 585.69285,89.08526 V 63.836369 Z m -26.33559,0 c -0.0876,0 -0.0438,37.872231 -0.0438,37.872231 l 24.34006,-3.012618 v -7.332101 l -16.75926,2.278618 0.13146,-8.062807 14.63575,-0.438197 v -6.4853 h -14.67959 v -7.671046 c 0,0 15.68744,-0.22171 15.68744,0 v -7.14878 z M 529.9943,71.13861 v 8.043045 h 6.00664 c 1.81567,0 3.30249,-2.207452 3.31467,-4.246243 0,-1.829322 -1.47113,-3.782808 -3.27462,-3.817966 z m 7.55621,-7.302241 c 0.83504,0 1.62169,0.0324 2.40527,0.216896 0.77998,0.183648 1.53229,0.497365 2.23903,0.875008 0.83128,0.444187 1.64306,0.960816 2.3193,1.617337 0.61151,0.593676 1.11358,1.306099 1.52394,2.053093 0.48388,0.880817 0.84389,1.838087 1.07945,2.815066 0.20125,0.834685 0.26182,1.702573 0.27517,2.561074 0.0101,0.650885 -0.0469,1.304223 -0.14817,1.947262 -0.0937,0.595018 -0.23301,1.185272 -0.42331,1.756772 -0.1917,0.575718 -0.4359,1.135733 -0.71964,1.672106 -0.21507,0.406567 -0.45103,0.806932 -0.7408,1.164124 -0.28603,0.352584 -0.62902,0.656884 -0.97364,0.952466 -0.40165,0.344495 -0.82084,0.672648 -1.26995,0.952465 -0.36957,0.230263 -0.76245,0.424556 -1.16414,0.592646 -0.45279,0.189476 -1.39695,0.465651 -1.39695,0.465651 0.44448,0.253991 0.92395,0.454752 1.33345,0.761973 0.46299,0.347347 0.85947,0.778176 1.24881,1.206455 0.41876,0.46065 0.8135,0.94602 1.16411,1.460447 0.25692,0.376968 0.48199,0.776354 0.68419,1.185291 0.21683,0.438512 0.40531,0.892085 0.56459,1.354619 0.19059,0.553483 0.32066,1.12614 0.46567,1.693273 0.16703,0.653235 0.30355,1.31395 0.46564,1.968428 0.14892,0.601297 0.31044,1.199401 0.46566,1.799103 0.15522,0.5997 0.28596,1.206272 0.46564,1.799101 0.14303,0.471914 0.31006,0.936602 0.48681,1.39695 0.18928,0.492976 0.40972,0.973417 0.61381,1.460449 0.26878,0.641406 0.53621,1.283386 0.80431,1.925076 h -9.01666 c -0.31044,-1.07912 -0.62803,-2.156209 -0.93131,-3.237364 -0.27459,-0.978889 -0.54476,-1.959073 -0.8043,-2.942061 -0.19701,-0.746172 -0.36714,-1.499387 -0.57148,-2.243585 -0.21812,-0.794378 -0.42527,-1.593423 -0.69847,-2.370581 -0.24029,-0.683532 -0.50798,-1.359494 -0.82548,-2.010762 -0.25616,-0.525454 -0.50428,-1.066156 -0.8678,-1.523945 -0.31669,-0.398812 -0.69905,-0.7532 -1.12181,-1.037129 -0.3878,-0.260448 -0.82275,-0.457624 -1.26995,-0.592646 -0.36202,-0.109303 -0.74468,-0.141027 -1.12178,-0.169328 -0.72466,-0.05438 -2.18008,0 -2.18008,0 V 100.79205 L 522.2899,99.83958 V 63.836369 Z m -35.24123,20.044116 c 0,0 5.41706,0.08429 5.43965,0 0.0225,-0.08428 -2.62459,-10.138468 -2.62459,-10.138468 z M 499.8752,63.836369 c 0,0 10.22315,0 10.22315,0 0,0 9.84213,35.770386 9.84213,35.770386 0,0 -8.40285,-1.545111 -8.40285,-1.672106 0,-0.126997 -2.11659,-7.429235 -2.11659,-7.429235 H 500.616 c 0,0 -1.41811,4.275513 -1.43928,4.275513 -0.0212,0 -7.3234,-2.518741 -7.3234,-2.518741 z M 619.62524,36.914931 v 46.997405 l 7.91223,-4.632219 V 41.54715 Z M 603.56699,56.51297 h 7.58484 V 40.553878 l 6.63863,3.090222 v -7.698618 l -19.65243,-8.420921 v 7.822502 l 5.45013,1.989595 z m -7.06943,0 v -7.13291 h -14.30814 v -5.630132 c 0,0 12.72069,0.232825 12.72069,0.211659 0,-0.02117 -0.0423,-6.116947 -0.0423,-6.116947 l -12.65722,-0.804305 v -6.603761 l 13.88483,3.894526 v -7.503091 l -21.44128,-5.597484 v 35.282446 c 7.28114,-2e-6 14.56228,-10e-7 21.84342,-10e-7 z m -41.50632,10e-7 V 36.875522 l 8.93201,19.637448 h 7.40804 V 20.628143 l -7.76245,-1.137867 v 20.425527 l -9.1826,-21.279888 -7.20693,-0.285138 V 56.51297 Z m -15.71631,-25.651932 3.60694,-7.677844 c -1.66129,-1.438037 -3.33057,-2.942836 -5.34306,-3.790282 -1.94415,-0.818669 -4.12156,-1.27835 -6.22609,-1.133715 -2.23693,0.153734 -4.44126,0.991318 -6.39072,2.09906 -1.65021,0.9377 -3.15453,2.221028 -4.2954,3.737897 -1.49133,1.98283 -2.45302,4.364951 -3.13685,6.749916 -0.69694,2.43069 -0.88719,4.999978 -0.93403,7.528177 -0.0313,1.691001 0.12228,3.393349 0.43778,5.054953 0.32257,1.698855 0.7872,3.38738 1.47793,4.972642 0.62757,1.440318 1.39818,2.845005 2.39464,4.059677 0.93388,1.138388 2.04257,2.166598 3.29264,2.944669 0.9364,0.582836 2.00065,0.96162 3.06815,1.239073 1.05597,0.274457 2.15668,0.408864 3.24774,0.407249 0.88586,-0.0013 1.77926,-0.112973 2.63594,-0.338464 0.70792,-0.186334 1.40362,-0.456181 2.03364,-0.828928 0.44914,-0.26573 0.8411,-0.623084 1.21592,-0.986197 0.39848,-0.386037 0.72595,-0.83919 1.08892,-1.258785 v 2.872834 h 7.06421 V 34.812208 H 530.8338 v 7.513211 h 6.55534 c -0.01,0.678484 0.0813,1.366066 -0.0299,2.035453 -0.10514,0.633004 -0.28668,1.268126 -0.59547,1.830614 -0.31022,0.565079 -0.76192,1.049212 -1.23045,1.49196 -0.56605,0.534898 -1.16224,1.088831 -1.88366,1.382242 -0.71931,0.292558 -1.53163,0.367114 -2.30697,0.323947 -1.05945,-0.05899 -2.17734,-0.238149 -3.08373,-0.789854 -1.01169,-0.615798 -1.76742,-1.629372 -2.36409,-2.652454 -0.62773,-1.076329 -0.93348,-2.3225 -1.20416,-3.538747 -0.29173,-1.310842 -0.42019,-2.661665 -0.44218,-4.004397 -0.0157,-0.960595 0.0796,-1.923519 0.22238,-2.873578 0.14586,-0.970847 0.35974,-1.934404 0.64569,-2.873579 0.25793,-0.847138 0.54409,-1.695426 0.96087,-2.476745 0.42545,-0.797564 0.90603,-1.591987 1.55352,-2.222755 0.59827,-0.582813 1.3214,-1.055766 2.09062,-1.381178 0.76362,-0.323038 1.60038,-0.515011 2.42928,-0.534541 0.68606,-0.01616 1.37319,0.145946 2.02925,0.347239 0.72492,0.222421 1.44101,0.518744 2.07158,0.939885 0.61375,0.409906 1.13438,0.954051 1.61743,1.512063 0.53692,0.620239 0.93719,1.346697 1.40578,2.020045 z m -37.11381,14.455167 c 0.0635,0 4.67767,0 4.67767,0 l -2.31611,-10.201969 z m -10.43494,11.196765 h 7.99216 l 1.00275,-4.489223 c 0,0 7.51322,-0.02993 7.51322,0 l 1.16739,4.489223 h 7.91731 l -8.73081,-33.84893 -8.76598,2.305361 z m -29.3358,22.732181 c 0,0 7.66207,4.783495 7.66207,4.614169 0,-0.169328 0,-21.377565 0,-21.377565 0,0 6.13812,24.552452 6.09579,24.552452 -0.0423,0 6.13809,-24.383124 6.13809,-24.383124 v 26.161057 l 7.53507,2.920897 V 28.023661 l -7.53507,3.090222 -5.88412,29.251283 -6.3921,-23.748148 -7.5774,4.23318 z" /></g></g><g
       id="g427"
       style="display:inline"
       transform="matrix(0.10035221,0,0,0.10035221,75.082049,173.31425)"><rect
         style="fill:#efedf2;fill-opacity:1;fill-rule:evenodd;stroke-width:3.27407;stroke-linecap:round;stroke-linejoin:round;paint-order:markers fill stroke"
         id="rect373"
         width="145.43381"
         height="66.516563"
         x="-46.446472"
         y="28.619644"
         inkscape:label="background" /><path
         id="path375"
         style="opacity:1;fill:#fe0000;fill-opacity:1;fill-rule:evenodd;stroke:none;stroke-width:0.799999;stroke-linecap:round;stroke-linejoin:round;stroke-opacity:1;paint-order:markers fill stroke"
         d="m 26.526612,80.430233 -68.408228,9.990604 V 35.89755 l 68.408228,8.97413 0.0842,-17.271298 h -74.757679 v 69.593685 h 74.757709 z"
         sodipodi:nodetypes="ccccccccc"
         inkscape:label="left" /><path
         id="path377"
         style="opacity:1;fill:#000000;fill-opacity:1;fill-rule:evenodd;stroke:none;stroke-width:0.799999;stroke-linecap:round;stroke-linejoin:round;stroke-opacity:1;paint-order:markers fill stroke"
         d="M 26.610842,97.194067 H 101.36907 V 27.600382 H 26.610842 l -0.0842,17.271298 68.40823,-8.97413 v 54.523287 l -68.40823,-9.990604 z"
         sodipodi:nodetypes="ccccccccc"
         inkscape:label="right" /><g
         id="g395"
         inkscape:label="champion"
         style="opacity:1;fill:#000000;fill-opacity:1;stroke:#000000;stroke-width:0.5;stroke-dasharray:none;stroke-opacity:1"
         transform="translate(-76.763206)"><path
           id="path379"
           style="fill:#000000;fill-opacity:1;stroke:#000000;stroke-width:0.5;stroke-linecap:butt;stroke-linejoin:miter;stroke-dasharray:none;stroke-opacity:1"
           d="m 115.31186,62.143102 v -6.688428 h 3.49228 a 2.6458333,2.6458333 45 0 1 2.64583,2.645833 v 1.389058 a 2.6491562,2.6491562 134.96404 0 1 -2.64583,2.649154 z m -3.51354,-10.625285 v 22.478192 h 3.4712 V 65.82597 h 4.1695 c 2.92251,0 5.29963,-2.369151 5.3059,-5.291655 0.003,-1.204625 0.005,-2.484465 0.006,-3.688842 0.003,-2.919025 -2.38855,-5.333598 -5.31038,-5.336536 -3.5732,-0.0036 -7.64218,0.0089 -7.64218,0.0089 z" /><path
           style="fill:#000000;fill-opacity:1;stroke:#000000;stroke-width:0.5;stroke-linecap:butt;stroke-linejoin:miter;stroke-dasharray:none;stroke-opacity:1"
           d="m 127.36539,51.484953 v 22.569566 h 3.56204 V 51.544817 Z"
           id="path381" /><path
           style="fill:#000000;fill-opacity:1;stroke:#000000;stroke-width:0.5;stroke-linecap:butt;stroke-linejoin:miter;stroke-dasharray:none;stroke-opacity:1"
           d="M 153.05067,74.03834 V 51.544817 h 3.82877 l 7.03428,15.864552 V 51.514885 h 3.11304 v 22.629434 h -3.41237 l -7.12408,-16.163883 v 16.068636 z"
           id="path383"
           sodipodi:nodetypes="ccccccccccc" /><path
           id="path385"
           style="opacity:1;fill:#000000;fill-opacity:1;fill-rule:evenodd;stroke:#000000;stroke-width:0.5;stroke-linecap:round;stroke-linejoin:round;stroke-dasharray:none;stroke-opacity:1;paint-order:markers fill stroke"
           d="m 135.20482,69.160759 a 8.1859975,11.539161 0 0 1 2.37338,-15.954942 8.1859975,11.539161 0 0 1 11.32349,3.312504 8.1859975,11.539161 0 0 1 -2.32647,15.968664 8.1859975,11.539161 0 0 1 -11.33313,-3.246354 m 3.06153,-2.038801 a 4.6408797,7.9518576 0 0 1 1.34553,-10.994857 4.6408797,7.9518576 0 0 1 6.41961,2.28271 4.6408797,7.9518576 0 0 1 -1.31894,11.004313 4.6408797,7.9518576 0 0 1 -6.42508,-2.237125" /><path
           id="path387"
           style="display:inline;opacity:1;fill:#000000;fill-opacity:1;fill-rule:evenodd;stroke:#000000;stroke-width:0.487612;stroke-linecap:round;stroke-linejoin:round;stroke-dasharray:none;stroke-opacity:1;paint-order:markers fill stroke"
           d="M 46.036031,51.314652 A 7.7811737,11.545407 0 0 0 41.84553,53.20083 7.7811737,11.545407 0 0 0 39.589409,69.164047 l 0.03585,0.08014 a 7.7811737,11.545407 0 0 0 10.772697,3.24807 7.7811737,11.545407 0 0 0 3.133421,-6.174539 h -3.32794 a 4.4113733,7.9561619 0 0 1 -1.540921,3.17982 4.4113733,7.9561619 0 0 1 -6.107197,-2.238283 l -0.02014,-0.05532 a 4.4113733,7.9561619 0 0 1 1.279108,-11.000629 4.4113733,7.9561619 0 0 1 6.102285,2.283784 4.4113733,7.9561619 0 0 1 0.300128,0.963253 h 3.325483 a 7.7811737,11.545407 0 0 0 -0.932805,-2.935259 7.7811737,11.545407 0 0 0 -6.573354,-5.20043 z" /><path
           style="fill:#000000;fill-opacity:1;stroke:#000000;stroke-width:0.5;stroke-linecap:butt;stroke-linejoin:miter;stroke-dasharray:none;stroke-opacity:1"
           d="M 56.766959,51.644811 V 74.03834 h 3.682868 v -9.905645 h 6.857754 v 9.947976 c 0,0 3.428878,0 3.428878,0 0,0 0,-22.47819 0,-22.47819 h -3.640537 v 8.635687 H 60.49216 v -8.635687 z"
           id="path389" /><path
           id="path391"
           style="fill:#000000;fill-opacity:1;stroke:#000000;stroke-width:0.5;stroke-linecap:butt;stroke-linejoin:miter;stroke-dasharray:none;stroke-opacity:1"
           d="m 79.033493,65.635475 h 4.466008 L 81.255914,56.87279 Z m -6.049084,8.50136 6.308405,-22.53215 h 4.055936 c 0,0 6.12132,22.509699 6.106355,22.509699 h -3.831439 l -1.107525,-4.609698 h -6.420654 l -1.152424,4.624665 z" /><path
           style="fill:#000000;fill-opacity:1;stroke:#000000;stroke-width:0.5;stroke-linecap:butt;stroke-linejoin:miter;stroke-dasharray:none;stroke-opacity:1"
           d="m 91.685122,51.574752 h 5.11856 l 3.202848,17.421072 3.17291,-17.480939 h 5.08862 v 22.539634 h -3.29264 c 0.0299,0 0,-18.375612 0,-18.375612 l -3.29264,18.375612 H 98.270405 L 95.037631,55.675898 v 18.408554 h -3.322577 z"
           id="path393"
           sodipodi:nodetypes="cccccccccccccc" /></g><g
         id="g417"
         inkscape:label="facom"
         style="display:inline"
         transform="matrix(1.0036594,0,0,1.0036594,118.05635,-20.94854)"><rect
           style="display:inline;opacity:1;fill:#efecf2;fill-opacity:0.698039;fill-rule:evenodd;stroke-width:0.328999;stroke-linecap:round;stroke-linejoin:round;paint-order:markers fill stroke"
           id="rect397"
           width="86.207359"
           height="73.156525"
           x="282.9278"
           y="48.37191"
           inkscape:label="background.white" /><rect
           style="display:inline;opacity:1;fill:#242021;fill-opacity:1;fill-rule:evenodd;stroke-width:0.328999;stroke-linecap:round;stroke-linejoin:round;paint-order:markers fill stroke"
           id="rect399"
           width="86.207359"
           height="73.156525"
           x="282.9278"
           y="48.37191"
           inkscape:label="background.black"
           transform="matrix(0.94008911,0,0,0.22431551,19.345106,91.750671)" /><rect
           style="display:inline;opacity:1;fill:#ee4035;fill-opacity:1;fill-rule:evenodd;stroke-width:0.328999;stroke-linecap:round;stroke-linejoin:round;paint-order:markers fill stroke"
           id="rect401"
           width="86.207359"
           height="73.156525"
           x="282.9278"
           y="48.37191"
           transform="matrix(0.94008911,0,0,0.67103109,19.345106,18.666701)"
           inkscape:label="background.red" /><path
           id="path403"
           style="display:inline;opacity:1;fill:#efecf2;fill-opacity:1;stroke:none;stroke-width:0.264583px;stroke-linecap:butt;stroke-linejoin:miter;stroke-opacity:1"
           d="m 338.34627,59.912105 c -16.60491,-0.0076 -43.20873,0.114205 -43.20873,0.114205 v 7.70444 c 0,0.253988 33.78088,0 33.78088,0 l -2.28616,3.725354 h -31.74897 l 4.57182,7.704439 h 27.34665 l 2.11666,3.555855 h -27.2619 l 4.65657,7.958171 h 45.04117 c 0,0 8.97418,-15.23938 9.05888,-15.23938 0.0847,0 -9.12808,-15.150736 -9.05888,-15.408879 0.0216,-0.08067 -5.4603,-0.110738 -13.00799,-0.114205 z m 3.88504,7.662065 a 7.8313851,7.8313851 0 0 1 6.98768,3.515031 7.8313851,7.8313851 0 0 1 -2.2257,10.837581 7.8313851,7.8313851 0 0 1 -10.84223,-2.202966 l -0.0357,-0.05426 a 7.8313851,7.8313851 0 0 1 2.27066,-10.82828 7.8313851,7.8313851 0 0 1 3.84525,-1.267106 z" /><g
           id="g415"
           inkscape:label="facom"
           style="fill:#efecf2;fill-opacity:1;stroke:none"><path
             style="display:inline;opacity:1;fill:#efecf2;fill-opacity:1;stroke:none;stroke-width:0.264583px;stroke-linecap:butt;stroke-linejoin:miter;stroke-opacity:1"
             d="m 355.59715,105.39548 h 1.83007 c 1.72962,0.031 4.20644,-0.2172 5.33043,1.66735 0.3049,0.57701 0.2574,1.25672 0.2718,2.34269 l -10e-6,6.52542 h -3.7423 v -7.18577 c 0,-0.39454 -0.31984,-0.71438 -0.71438,-0.71438 h -2.97141 c -0.39454,0 -0.71437,0.31984 -0.71437,0.71438 v 7.18577 h -3.80151 v -7.18577 c 0,-0.39454 -0.31984,-0.71438 -0.71438,-0.71438 h -2.79182 c -0.39454,0 -0.71437,0.31984 -0.71437,0.71438 v 7.18577 h -4.03643 v -6.52542 c 0.0144,-1.08597 -0.0331,-1.76568 0.2718,-2.34269 1.12399,-1.88455 3.60081,-1.63635 5.33043,-1.66735 h 1.97973 c 1.19443,-0.0378 2.4792,0.77873 2.51853,1.73513 0.35113,-1.42029 1.51884,-1.73513 2.66819,-1.73513 z"
             id="path405"
             sodipodi:nodetypes="cccccccccccccccccccccccc"
             inkscape:label="M" /><path
             id="path407"
             style="fill:#efecf2;fill-opacity:1;fill-rule:evenodd;stroke:none;stroke-width:0.264583px;stroke-linecap:butt;stroke-linejoin:miter;stroke-opacity:1"
             d="m 332.94197,108.03079 h 3.71975 a 0.714375,0.714375 45 0 1 0.71438,0.71438 v 3.88388 a 0.714375,0.714375 135 0 1 -0.71437,0.71438 h -3.71975 a 0.714375,0.714375 45 0 1 -0.71438,-0.71438 v -3.88388 a 0.714375,0.714375 135 0 1 0.71437,-0.71438 z m 8.05671,1.37473 c -0.0144,-1.08597 0.0331,-1.76568 -0.2718,-2.34269 -1.12399,-1.88455 -3.60081,-1.63635 -5.33043,-1.66735 h -1.27378 c -1.72962,0.031 -4.20644,-0.2172 -5.33043,1.66735 -0.3049,0.57701 -0.2574,1.25672 -0.2718,2.34269 v 2.50764 c 0.0144,1.08597 -0.0331,1.76568 0.2718,2.34269 1.12399,1.88455 3.60081,1.63634 5.33043,1.66735 h 1.27378 c 1.72962,-0.031 4.20644,0.2172 5.33043,-1.66735 0.3049,-0.57701 0.2574,-1.25672 0.2718,-2.34269 z"
             inkscape:label="O" /><path
             style="display:inline;opacity:1;fill:#efecf2;fill-opacity:1;stroke:none;stroke-width:0.264583px;stroke-linecap:butt;stroke-linejoin:miter;stroke-opacity:1"
             d="m 327.13965,111.53077 c 0,0 6e-4,0.43685 0,0.40925 -0.0144,1.08597 0.0331,1.76568 -0.2718,2.34269 -1.12399,1.88455 -3.60081,1.63635 -5.33043,1.66735 h -1.27378 c -1.72962,-0.031 -4.20644,0.2172 -5.33043,-1.66735 -0.3049,-0.57701 -0.2574,-1.25672 -0.2718,-2.34269 v -2.5345 c 0.0144,-1.08597 -0.0331,-1.76568 0.2718,-2.34269 1.12399,-1.88455 3.60081,-1.63635 5.33043,-1.66735 h 1.27378 c 1.72962,0.031 4.20644,-0.2172 5.33043,1.66735 0.3049,0.57701 0.2574,1.25672 0.2718,2.34269 v 0.5388 h -4.12675 v -1.19915 a 0.714375,0.714375 45 0 0 -0.71438,-0.71438 h -2.55044 a 0.714375,0.714375 135 0 0 -0.71437,0.71438 v 3.88389 a 0.714375,0.714375 45 0 0 0.71437,0.71437 h 2.55044 a 0.714375,0.714375 135 0 0 0.71438,-0.71437 v -1.09829 z"
             id="path409"
             sodipodi:nodetypes="cccccccccccc"
             inkscape:label="C" /><path
             id="path411"
             style="display:inline;opacity:1;fill:#efecf2;fill-opacity:1;fill-rule:evenodd;stroke:none;stroke-width:0.264583px;stroke-linecap:butt;stroke-linejoin:miter;stroke-opacity:1"
             d="m 309.05939,110.66321 h -4.86299 v -1.8903 a 0.714375,0.714375 135 0 1 0.71437,-0.71438 h 3.39708 a 0.7246422,0.7246422 44.591209 0 1 0.72456,0.7143 z m 3.86203,-1.25769 c -0.0144,-1.08597 0.0331,-1.76568 -0.2718,-2.34269 -1.12399,-1.88455 -3.60081,-1.63635 -5.33043,-1.66735 h -1.27378 c -1.72962,0.031 -4.20644,-0.2172 -5.33043,1.66735 -0.3049,0.57701 -0.2574,1.25672 -0.2718,2.34269 v 6.52542 h 3.75323 v -2.82034 h 4.82582 v 2.82034 h 3.89919 z"
             inkscape:label="A" /><path
             id="path413"
             style="display:inline;fill:#efecf2;fill-opacity:1;stroke:none;stroke-width:0.264583px;stroke-linecap:butt;stroke-linejoin:miter;stroke-opacity:1"
             d="m 288.67494,109.40552 c 0.0144,-1.08597 -0.0331,-1.76568 0.2718,-2.34269 1.12399,-1.88455 3.60081,-1.63635 5.33043,-1.66735 h 4.44435 c 0.39453,0 0.71437,0.31984 0.71437,0.71437 v 2.33781 h -6.00562 c -0.39454,0 -0.71438,0.31984 -0.71438,0.71438 v 1.39591 h 6.72 v 3.03947 h -6.72 v 2.32825 h -4.04096 z"
             sodipodi:nodetypes="cccccccsccccccc"
             inkscape:label="F" /></g></g><g
         id="g425"
         style="display:inline;stroke:#000000;stroke-width:0.6;stroke-dasharray:none;stroke-opacity:1"
         inkscape:label="magnetimarelli"
         transform="matrix(0.78451071,0,0,0.78451071,-861.0307,15.523335)"><path
           id="path419"
           style="display:none;opacity:1;fill:#efecf2;fill-opacity:1;fill-rule:evenodd;stroke:#000000;stroke-width:0.6;stroke-linecap:round;stroke-linejoin:round;stroke-dasharray:none;stroke-dashoffset:0;stroke-opacity:1;paint-order:markers fill stroke"
           d="M 462.4358,79.280117 V 41.547151 c 22.9541,-14.612851 53.96667,-23.213129 82.55084,-23.213129 28.58417,0 59.59674,8.600278 82.55084,23.213129 v 37.732966 c -22.9541,14.612851 -53.96667,23.213133 -82.55084,23.213133 -28.58417,0 -59.59674,-8.600282 -82.55084,-23.213133 z"
           sodipodi:nodetypes="ccaccac" /><path
           id="path421"
           style="display:inline;opacity:1;fill:#f8f7f9;fill-opacity:1;fill-rule:evenodd;stroke:none;stroke-width:0.66;stroke-linecap:round;stroke-linejoin:round;stroke-dasharray:none;stroke-dashoffset:0;stroke-opacity:1;paint-order:markers fill stroke"
           d="M 454.18072,81.166765 V 39.660502 c 25.24951,-16.074136 59.36333,-25.534441 90.80592,-25.534441 31.44259,0 65.55641,9.460305 90.80592,25.534441 v 41.506263 c -25.24951,16.074136 -59.36333,25.534445 -90.80592,25.534445 -31.44259,0 -65.55641,-9.460309 -90.80592,-25.534445 z"
           sodipodi:nodetypes="ccaccac" /><path
           id="path423"
           style="display:inline;opacity:1;fill:#144e81;fill-opacity:1;fill-rule:evenodd;stroke:none;stroke-width:0.264583px;stroke-linecap:butt;stroke-linejoin:miter;stroke-opacity:1"
           d="m 600.28478,65.688452 v 24.996971 a 1.2120673,1.2120673 33.202122 0 0 1.69724,1.110729 l 13.99775,-6.114236 a 2.8300511,2.8300511 123.20212 0 0 1.69724,-2.593437 v -3.587634 a 1.2075493,1.2075493 33.104154 0 0 -1.69469,-1.104929 l -8.42568,3.714708 V 65.688452 a 1.8520833,1.8520833 45 0 0 -1.85208,-1.852083 h -3.5677 a 1.8520833,1.8520833 135 0 0 -1.85208,1.852083 z m -22.56708,0 v 31.044979 a 1.4116784,1.4116784 37.31505 0 0 1.78584,1.361189 l 17.16454,-4.7182 a 2.4298825,2.4298825 127.31505 0 0 1.78584,-2.342977 v -3.908404 a 1.3796647,1.3796647 36.683378 0 0 -1.77459,-1.321935 L 585.69285,89.08526 V 65.688452 a 1.8520833,1.8520833 45 0 0 -1.85208,-1.852083 h -4.27099 a 1.8520833,1.8520833 135 0 0 -1.85208,1.852083 z m -26.36411,-8.19e-4 c -0.0407,6.428021 -0.0235,27.739629 -0.0172,34.168896 0.001,1.022871 0.82486,1.750211 1.83999,1.624571 l 20.66394,-2.557618 a 2.0954519,2.0954519 131.47214 0 0 1.83806,-2.079583 v -3.627935 a 1.6173109,1.6173109 41.128721 0 0 -1.8352,-1.602566 l -14.92406,2.029101 0.13146,-8.062807 12.7845,-0.38277 a 1.9083649,1.9083649 134.14253 0 0 1.85125,-1.90751 v -2.781134 a 1.8520833,1.8520833 45 0 0 -1.85208,-1.852083 h -12.82751 v -7.671046 c 0,0 9.69766,-0.137057 13.84353,-0.08789 1.01945,0.01209 1.84391,-0.741316 1.84391,-1.764193 v -3.444614 a 1.8520833,1.8520833 45 0 0 -1.85208,-1.852083 l -19.6079,0 c -1.02287,0 -1.87412,0.828738 -1.8806,1.851264 z M 529.9943,71.13861 v 8.043045 h 6.00664 c 1.81567,0 3.30249,-2.207452 3.31467,-4.246243 0,-1.829322 -1.47113,-3.782808 -3.27462,-3.817966 z m 7.55621,-7.302241 c 0.83504,0 1.62169,0.0324 2.40527,0.216896 0.77998,0.183648 1.53229,0.497365 2.23903,0.875008 0.83128,0.444187 1.64306,0.960816 2.3193,1.617337 0.61151,0.593676 1.11358,1.306099 1.52394,2.053093 0.48388,0.880817 0.84389,1.838087 1.07945,2.815066 0.20125,0.834685 0.26182,1.702573 0.27517,2.561074 0.0101,0.650885 -0.0469,1.304223 -0.14817,1.947262 -0.0937,0.595018 -0.23301,1.185272 -0.42331,1.756772 -0.1917,0.575718 -0.4359,1.135733 -0.71964,1.672106 -0.21507,0.406567 -0.45103,0.806932 -0.7408,1.164124 -0.28603,0.352584 -0.62902,0.656884 -0.97364,0.952466 -0.40165,0.344495 -0.82084,0.672648 -1.26995,0.952465 -0.36957,0.230263 -0.76245,0.424556 -1.16414,0.592646 -0.45279,0.189476 -1.39695,0.465651 -1.39695,0.465651 0.44448,0.253991 0.92395,0.454752 1.33345,0.761973 0.46299,0.347347 0.85947,0.778176 1.24881,1.206455 0.41876,0.46065 0.8135,0.94602 1.16411,1.460447 0.25692,0.376968 0.48199,0.776354 0.68419,1.185291 0.21683,0.438512 0.40531,0.892085 0.56459,1.354619 0.19059,0.553483 0.32066,1.12614 0.46567,1.693273 0.16703,0.653235 0.30355,1.31395 0.46564,1.968428 0.14892,0.601297 0.31044,1.199401 0.46566,1.799103 0.15522,0.5997 0.28596,1.206272 0.46564,1.799101 0.14303,0.471914 0.31006,0.936602 0.48681,1.39695 0.31361,0.816796 0.93369,2.225475 1.32783,3.169365 0.0499,0.11939 -0.73892,0.21616 -1.76179,0.21616 h -5.3125 c -1.02287,0 -2.08299,-0.79641 -2.36703,-1.779055 -0.14038,-0.48565 -0.27982,-0.971567 -0.41636,-1.458309 -0.27459,-0.978889 -0.54476,-1.959073 -0.8043,-2.942061 -0.19701,-0.746172 -0.36714,-1.499387 -0.57148,-2.243585 -0.21812,-0.794378 -0.42527,-1.593423 -0.69847,-2.370581 -0.24029,-0.683532 -0.50798,-1.359494 -0.82548,-2.010762 -0.25616,-0.525454 -0.50428,-1.066156 -0.8678,-1.523945 -0.31669,-0.398812 -0.69905,-0.7532 -1.12181,-1.037129 -0.3878,-0.260448 -0.82275,-0.457624 -1.26995,-0.592646 -0.36202,-0.109303 -0.74468,-0.141027 -1.12178,-0.169328 -0.72466,-0.05438 -2.18008,0 -2.18008,0 v 13.577868 a 1.6349857,1.6349857 138.56252 0 1 -1.83778,1.622363 l -3.94418,-0.49303 A 2.0980077,2.0980077 48.562517 0 1 522.2899,97.987497 V 65.688452 a 1.8520833,1.8520833 135 0 1 1.85208,-1.852083 z m -35.24123,20.044116 c 0,0 5.41706,0.08429 5.43965,0 0.0225,-0.08428 -2.62459,-10.138468 -2.62459,-10.138468 z m -0.582,-20.044116 h 6.51899 a 2.4305074,2.4305074 37.307948 0 1 2.34342,1.785721 l 8.85945,32.198944 c 0.27136,0.986226 -0.32418,1.635581 -1.32962,1.447436 -1.41571,-0.264917 -3.36961,-0.634925 -4.78036,-0.919359 -1.00081,-0.201783 -2.01429,-1.215892 -2.29409,-2.199643 -0.62537,-2.198689 -1.62403,-5.644054 -1.62403,-5.644054 H 500.616 c 0,0 -0.44699,1.347634 -0.84281,2.52971 -0.32352,0.966176 -1.38156,1.478948 -2.34885,1.146342 -1.15615,-0.397549 -2.66488,-0.917375 -3.82063,-1.315754 -0.96674,-0.333233 -1.52518,-1.401563 -1.24737,-2.385992 l 7.01584,-24.860885 a 2.4470852,2.4470852 142.87964 0 1 2.3551,-1.782466 z m 117.89796,-25.069355 0,43.293239 a 1.061839,1.061839 29.82657 0 0 1.59832,0.916348 l 6.31391,-3.696484 V 41.54715 l -6.31391,-3.696484 a 1.061839,1.061839 150.17343 0 0 -1.59832,0.916348 z m -14.20617,17.745956 3.88068,0 a 1.8520833,1.8520833 135 0 0 1.85208,-1.852083 V 40.553878 l 4.95955,2.308624 a 1.180781,1.180781 147.48078 0 0 1.67908,-1.070485 v -3.994452 a 2.8085531,2.8085531 56.597388 0 0 -1.70238,-2.581541 l -16.24767,-6.962005 a 1.2213451,1.2213451 146.59739 0 0 -1.70238,1.122625 v 4.118336 a 2.6477452,2.6477452 55.027421 0 0 1.73978,2.487198 l 3.71035,1.35448 -0.0191,17.32423 a 1.8500398,1.8500398 45.031626 0 0 1.85004,1.852082 z m -8.92151,-1.852083 v -3.428744 a 1.8520833,1.8520833 45 0 0 -1.85208,-1.852083 h -12.45606 v -5.630132 c 0,0 7.34013,0.134345 10.86897,0.189656 1.02262,0.01603 1.84605,-0.80719 1.83898,-1.83005 -0.005,-0.764386 -0.0114,-1.648491 -0.0167,-2.412869 -0.007,-1.022845 -0.84038,-1.904611 -1.8612,-1.969479 l -10.80886,-0.686851 v -6.603761 l 12.10157,3.394342 a 1.4040721,1.4040721 142.83408 0 0 1.78326,-1.351899 v -3.798925 a 2.3976624,2.3976624 52.315574 0 0 -1.79202,-2.319911 l -17.85724,-4.661828 a 1.4306487,1.4306487 142.31557 0 0 -1.79202,1.384255 v 31.57828 c 0,1.022877 0.82921,1.852083 1.85208,1.852083 6.04642,-2e-6 12.09284,-10e-7 18.13926,-10e-7 1.02287,0 1.85208,-0.829206 1.85208,-1.852083 z m -41.50632,10e-7 V 36.875522 l 8.16519,17.951564 a 2.8770795,2.8770795 32.770893 0 0 2.6189,1.685884 h 3.70388 a 1.8520833,1.8520833 135 0 0 1.85208,-1.852083 V 22.480226 a 2.1433654,2.1433654 49.169685 0 0 -1.8325,-2.120702 l -4.09745,-0.600629 a 1.6003862,1.6003862 139.16969 0 0 -1.8325,1.583464 l 0,18.573444 -8.4488,-19.579373 a 2.9414361,2.9414361 34.462375 0 0 -2.58444,-1.773734 l -3.50565,-0.1387 a 1.7802557,1.7802557 136.13285 0 0 -1.85064,1.778864 v 34.458027 a 1.8520835,1.8520835 45.000004 0 0 1.85208,1.852083 l 4.10777,10e-7 a 1.8520831,1.8520831 135 0 0 1.85208,-1.852083 z m -14.9288,-25.476167 2.03192,-4.325208 c 0.43493,-0.925805 0.16697,-2.226581 -0.61684,-2.883763 -1.21839,-1.021549 -2.48957,-1.972614 -3.93871,-2.582837 -1.94415,-0.818669 -4.12156,-1.27835 -6.22609,-1.133715 -2.23693,0.153734 -4.44126,0.991318 -6.39072,2.09906 -1.65021,0.9377 -3.15453,2.221028 -4.2954,3.737897 -1.49133,1.98283 -2.45302,4.364951 -3.13685,6.749916 -0.69694,2.43069 -0.88719,4.999978 -0.93403,7.528177 -0.0313,1.691001 0.12228,3.393349 0.43778,5.054953 0.32257,1.698855 0.7872,3.38738 1.47793,4.972642 0.62757,1.440318 1.39818,2.845005 2.39464,4.059677 0.93388,1.138388 2.04257,2.166598 3.29264,2.944669 0.9364,0.582836 2.00065,0.96162 3.06815,1.239073 1.05597,0.274457 2.15668,0.408864 3.24774,0.407249 0.88586,-0.0013 1.77926,-0.112973 2.63594,-0.338464 0.70792,-0.186334 1.40362,-0.456181 2.03364,-0.828928 0.44914,-0.26573 0.8411,-0.623084 1.21592,-0.986197 0.39848,-0.386037 0.72595,-0.83919 1.08892,-1.258785 v 2.872834 h 7.06421 v -19.84868 a 1.8520833,1.8520833 45 0 0 -1.85208,-1.852083 h -9.97527 a 1.8520833,1.8520833 135 0 0 -1.85208,1.852083 v 3.809045 a 1.8520833,1.8520833 45 0 0 1.85208,1.852083 h 4.70326 c -0.01,0.678484 0.0813,1.366066 -0.0299,2.035453 -0.10514,0.633004 -0.28668,1.268126 -0.59547,1.830614 -0.31022,0.565079 -0.76192,1.049212 -1.23045,1.49196 -0.56605,0.534898 -1.16224,1.088831 -1.88366,1.382242 -0.71931,0.292558 -1.53163,0.367114 -2.30697,0.323947 -1.05945,-0.05899 -2.17734,-0.238149 -3.08373,-0.789854 -1.01169,-0.615798 -1.76742,-1.629372 -2.36409,-2.652454 -0.62773,-1.076329 -0.93348,-2.3225 -1.20416,-3.538747 -0.29173,-1.310842 -0.42019,-2.661665 -0.44218,-4.004397 -0.0157,-0.960595 0.0796,-1.923519 0.22238,-2.873578 0.14586,-0.970847 0.35974,-1.934404 0.64569,-2.873579 0.25793,-0.847138 0.54409,-1.695426 0.96087,-2.476745 0.42545,-0.797564 0.90603,-1.591987 1.55352,-2.222755 0.59827,-0.582813 1.3214,-1.055766 2.09062,-1.381178 0.76362,-0.323038 1.60038,-0.515011 2.42928,-0.534541 0.68606,-0.01616 1.37319,0.145946 2.02925,0.347239 0.72492,0.222421 1.44101,0.518744 2.07158,0.939885 0.61375,0.409906 1.13438,0.954051 1.61743,1.512063 0.13399,0.154783 0.25947,0.31618 0.37963,0.481717 0.59991,0.826495 1.37873,0.787815 1.81366,-0.13799 z m -37.90132,16.131485 h 4.67767 l -2.31611,-10.201969 z m -8.58286,11.196765 h 4.288 a 2.3114209,2.3114209 141.29568 0 0 2.25583,-1.80754 l 0.599,-2.681683 c 0,0 7.51322,-0.02993 7.51322,0 l 0.70127,2.696754 a 2.3953009,2.3953009 37.711744 0 0 2.3182,1.792469 h 4.21315 a 1.4349847,1.4349847 127.76834 0 0 1.3895,-1.793387 l -8.26823,-32.055543 -8.76598,2.305361 -7.6356,29.749632 a 1.4367542,1.4367542 52.197468 0 0 1.39164,1.793937 z m -29.61492,23.710003 c 1.30697,0.810013 3.15916,1.951994 4.4769,2.739962 0.87437,0.522849 1.61221,0.06718 1.61221,-0.955698 V 62.481756 c 0,0 6.13812,24.552452 6.09579,24.552452 -0.0423,0 6.13809,-24.383124 6.13809,-24.383124 v 24.308974 a 2.7043091,2.7043091 55.59417 0 0 1.72688,2.52149 l 4.08131,1.582083 a 1.2684247,1.2684247 145.59417 0 0 1.72688,-1.182676 V 28.023661 l -7.53507,3.090222 -5.88412,29.251283 -6.3921,-23.748148 -7.5774,4.23318 -0.0403,36.542872 c -0.001,1.022877 0.70147,2.291047 1.57092,2.829904 z"
           inkscape:path-effect="#path-effect431"
           inkscape:original-d="m 600.28478,63.836369 v 28.701137 l 17.39223,-7.596944 v -7.2918 l -10.12037,4.461862 V 63.836369 Z m -22.56708,0 v 34.749145 l 20.73622,-5.699988 v -7.61257 L 585.69285,89.08526 V 63.836369 Z m -26.33559,0 c -0.0876,0 -0.0438,37.872231 -0.0438,37.872231 l 24.34006,-3.012618 v -7.332101 l -16.75926,2.278618 0.13146,-8.062807 14.63575,-0.438197 v -6.4853 h -14.67959 v -7.671046 c 0,0 15.68744,-0.22171 15.68744,0 v -7.14878 z M 529.9943,71.13861 v 8.043045 h 6.00664 c 1.81567,0 3.30249,-2.207452 3.31467,-4.246243 0,-1.829322 -1.47113,-3.782808 -3.27462,-3.817966 z m 7.55621,-7.302241 c 0.83504,0 1.62169,0.0324 2.40527,0.216896 0.77998,0.183648 1.53229,0.497365 2.23903,0.875008 0.83128,0.444187 1.64306,0.960816 2.3193,1.617337 0.61151,0.593676 1.11358,1.306099 1.52394,2.053093 0.48388,0.880817 0.84389,1.838087 1.07945,2.815066 0.20125,0.834685 0.26182,1.702573 0.27517,2.561074 0.0101,0.650885 -0.0469,1.304223 -0.14817,1.947262 -0.0937,0.595018 -0.23301,1.185272 -0.42331,1.756772 -0.1917,0.575718 -0.4359,1.135733 -0.71964,1.672106 -0.21507,0.406567 -0.45103,0.806932 -0.7408,1.164124 -0.28603,0.352584 -0.62902,0.656884 -0.97364,0.952466 -0.40165,0.344495 -0.82084,0.672648 -1.26995,0.952465 -0.36957,0.230263 -0.76245,0.424556 -1.16414,0.592646 -0.45279,0.189476 -1.39695,0.465651 -1.39695,0.465651 0.44448,0.253991 0.92395,0.454752 1.33345,0.761973 0.46299,0.347347 0.85947,0.778176 1.24881,1.206455 0.41876,0.46065 0.8135,0.94602 1.16411,1.460447 0.25692,0.376968 0.48199,0.776354 0.68419,1.185291 0.21683,0.438512 0.40531,0.892085 0.56459,1.354619 0.19059,0.553483 0.32066,1.12614 0.46567,1.693273 0.16703,0.653235 0.30355,1.31395 0.46564,1.968428 0.14892,0.601297 0.31044,1.199401 0.46566,1.799103 0.15522,0.5997 0.28596,1.206272 0.46564,1.799101 0.14303,0.471914 0.31006,0.936602 0.48681,1.39695 0.18928,0.492976 0.40972,0.973417 0.61381,1.460449 0.26878,0.641406 0.53621,1.283386 0.80431,1.925076 h -9.01666 c -0.31044,-1.07912 -0.62803,-2.156209 -0.93131,-3.237364 -0.27459,-0.978889 -0.54476,-1.959073 -0.8043,-2.942061 -0.19701,-0.746172 -0.36714,-1.499387 -0.57148,-2.243585 -0.21812,-0.794378 -0.42527,-1.593423 -0.69847,-2.370581 -0.24029,-0.683532 -0.50798,-1.359494 -0.82548,-2.010762 -0.25616,-0.525454 -0.50428,-1.066156 -0.8678,-1.523945 -0.31669,-0.398812 -0.69905,-0.7532 -1.12181,-1.037129 -0.3878,-0.260448 -0.82275,-0.457624 -1.26995,-0.592646 -0.36202,-0.109303 -0.74468,-0.141027 -1.12178,-0.169328 -0.72466,-0.05438 -2.18008,0 -2.18008,0 V 100.79205 L 522.2899,99.83958 V 63.836369 Z m -35.24123,20.044116 c 0,0 5.41706,0.08429 5.43965,0 0.0225,-0.08428 -2.62459,-10.138468 -2.62459,-10.138468 z M 499.8752,63.836369 c 0,0 10.22315,0 10.22315,0 0,0 9.84213,35.770386 9.84213,35.770386 0,0 -8.40285,-1.545111 -8.40285,-1.672106 0,-0.126997 -2.11659,-7.429235 -2.11659,-7.429235 H 500.616 c 0,0 -1.41811,4.275513 -1.43928,4.275513 -0.0212,0 -7.3234,-2.518741 -7.3234,-2.518741 z M 619.62524,36.914931 v 46.997405 l 7.91223,-4.632219 V 41.54715 Z M 603.56699,56.51297 h 7.58484 V 40.553878 l 6.63863,3.090222 v -7.698618 l -19.65243,-8.420921 v 7.822502 l 5.45013,1.989595 z m -7.06943,0 v -7.13291 h -14.30814 v -5.630132 c 0,0 12.72069,0.232825 12.72069,0.211659 0,-0.02117 -0.0423,-6.116947 -0.0423,-6.116947 l -12.65722,-0.804305 v -6.603761 l 13.88483,3.894526 v -7.503091 l -21.44128,-5.597484 v 35.282446 c 7.28114,-2e-6 14.56228,-10e-7 21.84342,-10e-7 z m -41.50632,10e-7 V 36.875522 l 8.93201,19.637448 h 7.40804 V 20.628143 l -7.76245,-1.137867 v 20.425527 l -9.1826,-21.279888 -7.20693,-0.285138 V 56.51297 Z m -15.71631,-25.651932 3.60694,-7.677844 c -1.66129,-1.438037 -3.33057,-2.942836 -5.34306,-3.790282 -1.94415,-0.818669 -4.12156,-1.27835 -6.22609,-1.133715 -2.23693,0.153734 -4.44126,0.991318 -6.39072,2.09906 -1.65021,0.9377 -3.15453,2.221028 -4.2954,3.737897 -1.49133,1.98283 -2.45302,4.364951 -3.13685,6.749916 -0.69694,2.43069 -0.88719,4.999978 -0.93403,7.528177 -0.0313,1.691001 0.12228,3.393349 0.43778,5.054953 0.32257,1.698855 0.7872,3.38738 1.47793,4.972642 0.62757,1.440318 1.39818,2.845005 2.39464,4.059677 0.93388,1.138388 2.04257,2.166598 3.29264,2.944669 0.9364,0.582836 2.00065,0.96162 3.06815,1.239073 1.05597,0.274457 2.15668,0.408864 3.24774,0.407249 0.88586,-0.0013 1.77926,-0.112973 2.63594,-0.338464 0.70792,-0.186334 1.40362,-0.456181 2.03364,-0.828928 0.44914,-0.26573 0.8411,-0.623084 1.21592,-0.986197 0.39848,-0.386037 0.72595,-0.83919 1.08892,-1.258785 v 2.872834 h 7.06421 V 34.812208 H 530.8338 v 7.513211 h 6.55534 c -0.01,0.678484 0.0813,1.366066 -0.0299,2.035453 -0.10514,0.633004 -0.28668,1.268126 -0.59547,1.830614 -0.31022,0.565079 -0.76192,1.049212 -1.23045,1.49196 -0.56605,0.534898 -1.16224,1.088831 -1.88366,1.382242 -0.71931,0.292558 -1.53163,0.367114 -2.30697,0.323947 -1.05945,-0.05899 -2.17734,-0.238149 -3.08373,-0.789854 -1.01169,-0.615798 -1.76742,-1.629372 -2.36409,-2.652454 -0.62773,-1.076329 -0.93348,-2.3225 -1.20416,-3.538747 -0.29173,-1.310842 -0.42019,-2.661665 -0.44218,-4.004397 -0.0157,-0.960595 0.0796,-1.923519 0.22238,-2.873578 0.14586,-0.970847 0.35974,-1.934404 0.64569,-2.873579 0.25793,-0.847138 0.54409,-1.695426 0.96087,-2.476745 0.42545,-0.797564 0.90603,-1.591987 1.55352,-2.222755 0.59827,-0.582813 1.3214,-1.055766 2.09062,-1.381178 0.76362,-0.323038 1.60038,-0.515011 2.42928,-0.534541 0.68606,-0.01616 1.37319,0.145946 2.02925,0.347239 0.72492,0.222421 1.44101,0.518744 2.07158,0.939885 0.61375,0.409906 1.13438,0.954051 1.61743,1.512063 0.53692,0.620239 0.93719,1.346697 1.40578,2.020045 z m -37.11381,14.455167 c 0.0635,0 4.67767,0 4.67767,0 l -2.31611,-10.201969 z m -10.43494,11.196765 h 7.99216 l 1.00275,-4.489223 c 0,0 7.51322,-0.02993 7.51322,0 l 1.16739,4.489223 h 7.91731 l -8.73081,-33.84893 -8.76598,2.305361 z m -29.3358,22.732181 c 0,0 7.66207,4.783495 7.66207,4.614169 0,-0.169328 0,-21.377565 0,-21.377565 0,0 6.13812,24.552452 6.09579,24.552452 -0.0423,0 6.13809,-24.383124 6.13809,-24.383124 v 26.161057 l 7.53507,2.920897 V 28.023661 l -7.53507,3.090222 -5.88412,29.251283 -6.3921,-23.748148 -7.5774,4.23318 z" /></g></g></g></svg>
