<?xml version="1.0" encoding="UTF-8" standalone="no"?>
<!-- Created with Inkscape (http://www.inkscape.org/) -->

<svg
   width="210mm"
   height="297mm"
   viewBox="0 0 210 297"
   version="1.1"
   id="svg5"
   inkscape:version="1.2.2 (732a01da63, 2022-12-09)"
   sodipodi:docname="drivername.decals.svg"
   xmlns:inkscape="http://www.inkscape.org/namespaces/inkscape"
   xmlns:sodipodi="http://sodipodi.sourceforge.net/DTD/sodipodi-0.dtd"
   xmlns="http://www.w3.org/2000/svg"
   xmlns:svg="http://www.w3.org/2000/svg">
  <sodipodi:namedview
     id="namedview7"
     pagecolor="#ffffff"
     bordercolor="#666666"
     borderopacity="1.0"
     inkscape:showpageshadow="2"
     inkscape:pageopacity="0.0"
     inkscape:pagecheckerboard="0"
     inkscape:deskcolor="#d1d1d1"
     inkscape:document-units="mm"
     showgrid="false"
     showguides="true"
     inkscape:zoom="1.5625561"
     inkscape:cx="204.79265"
     inkscape:cy="191.9931"
     inkscape:window-width="1846"
     inkscape:window-height="1057"
     inkscape:window-x="1986"
     inkscape:window-y="-8"
     inkscape:window-maximized="1"
     inkscape:current-layer="layer1">
    <sodipodi:guide
       position="54.608039,257.02819"
       orientation="0,-1"
       id="guide4825"
       inkscape:locked="false" />
    <sodipodi:guide
       position="52.941224,248.99572"
       orientation="0,-1"
       id="guide4827"
       inkscape:locked="false" />
  </sodipodi:namedview>
  <defs
     id="defs2" />
  <g
     inkscape:label="Laag 1"
     inkscape:groupmode="layer"
     id="layer1">
    <text
       xml:space="preserve"
       style="font-size:7.55068px;line-height:1.25;font-family:'Futura BQ';-inkscape-font-specification:'Futura BQ';letter-spacing:0px;word-spacing:0px;stroke-width:0.188767"
       x="4.2943316"
       y="102.15521"
       id="text398"><tspan
         sodipodi:role="line"
         id="tspan396"
         style="font-style:normal;font-variant:normal;font-weight:normal;font-stretch:normal;font-size:7.55068px;font-family:'Helvetica Rounded';-inkscape-font-specification:'Helvetica Rounded, Normal';font-variant-ligatures:normal;font-variant-caps:normal;font-variant-numeric:normal;font-variant-east-asian:normal;stroke-width:0.188767"
         x="4.2943316"
         y="102.15521">Helvetica Rounded</tspan></text>
    <rect
       style="fill:#254dc4;fill-opacity:1;fill-rule:evenodd;stroke:none;stroke-width:0.833786;stroke-linecap:round;stroke-linejoin:round;stroke-dasharray:none;stroke-opacity:1;paint-order:markers fill stroke"
       id="rect1856"
       width="110.06271"
       height="49.782211"
       x="17.102055"
       y="31.325541"
       inkscape:label="background" />
    <g
       aria-label="J. LAFFITE"
       id="text236"
       style="font-size:10.5833px;line-height:1.25;font-family:'Futura BQ';-inkscape-font-specification:'Futura BQ';letter-spacing:0px;word-spacing:0px;stroke:#ffffff;stroke-width:0.565;stroke-dasharray:none;stroke-opacity:1;fill:#ffffff;fill-opacity:1"
       transform="matrix(0.94090261,0,0,0.94090261,2.8836345,3.2738265)"
       inkscape:label="jlaffite">
      <path
         d="m 54.375384,40.183247 c 0,-0.518582 -0.338666,-0.86783 -0.867831,-0.86783 -0.529165,0 -0.867831,0.349248 -0.867831,0.86783 v 4.487319 c 0,0.825498 -0.317499,1.248829 -0.888997,1.248829 -0.613831,0 -0.846664,-0.359832 -0.846664,-0.857247 0,-0.518581 -0.158749,-1.005413 -0.783164,-1.005413 -0.529165,0 -0.825497,0.412748 -0.825497,1.05833 0,0.751414 0.391582,2.137826 2.476492,2.137826 1.714494,0 2.603492,-0.96308 2.603492,-2.561158 z"
         style="font-family:'Helvetica Rounded';-inkscape-font-specification:'Helvetica Rounded, Normal';fill:#ffffff;fill-opacity:1;stroke:#ffffff;stroke-width:0.565;stroke-dasharray:none;stroke-opacity:1"
         id="path400" />
      <path
         d="m 55.666544,46.279228 c 0,0.476248 0.391582,0.86783 0.867831,0.86783 0.476248,0 0.86783,-0.391582 0.86783,-0.86783 0,-0.476249 -0.391582,-0.867831 -0.86783,-0.867831 -0.476249,0 -0.867831,0.391582 -0.867831,0.867831 z"
         style="font-family:'Helvetica Rounded';-inkscape-font-specification:'Helvetica Rounded, Normal';stroke:#ffffff;stroke-width:0.565;stroke-dasharray:none;stroke-opacity:1;fill:#ffffff;fill-opacity:1"
         id="path402" />
      <path
         d="m 62.196434,46.056978 c 0,0.772581 0.402165,1.015997 1.015997,1.015997 h 3.619488 c 0.497415,0 0.899581,-0.253999 0.899581,-0.730248 0,-0.476248 -0.402166,-0.730247 -0.899581,-0.730247 h -2.899824 v -5.429233 c 0,-0.518582 -0.338665,-0.86783 -0.86783,-0.86783 -0.529165,0 -0.867831,0.349248 -0.867831,0.86783 z"
         style="font-family:'Helvetica Rounded';-inkscape-font-specification:'Helvetica Rounded, Normal';stroke:#ffffff;stroke-width:0.565;stroke-dasharray:none;stroke-opacity:1;fill:#ffffff;fill-opacity:1"
         id="path404" />
      <path
         d="m 68.123084,45.781813 c -0.0635,0.169332 -0.169333,0.476248 -0.169333,0.666747 0,0.465666 0.328082,0.761998 0.804331,0.761998 0.412749,0 0.656164,-0.137583 0.772581,-0.476248 l 0.455082,-1.269996 h 2.793991 l 0.444498,1.269996 c 0.127,0.338665 0.402166,0.476248 0.783165,0.476248 0.444498,0 0.814914,-0.338666 0.814914,-0.761998 0,-0.190499 -0.105833,-0.497415 -0.169333,-0.666747 l -2.095494,-5.831398 c -0.190499,-0.539749 -0.539748,-0.634998 -0.93133,-0.634998 h -0.412749 c -0.423332,0 -0.698497,0.137582 -0.846664,0.529165 z m 4.275653,-1.523996 h -2.031994 l 1.026581,-3.058573 h 0.02117 z"
         style="font-family:'Helvetica Rounded';-inkscape-font-specification:'Helvetica Rounded, Normal';stroke:#ffffff;stroke-width:0.565;stroke-dasharray:none;stroke-opacity:1;fill:#ffffff;fill-opacity:1"
         id="path406" />
      <path
         d="m 75.764225,46.342727 c 0,0.518582 0.338665,0.867831 0.86783,0.867831 0.529165,0 0.867831,-0.349249 0.867831,-0.867831 v -2.381242 h 2.624658 c 0.455082,0 0.814914,-0.127 0.814914,-0.666748 0,-0.539748 -0.359832,-0.666748 -0.814914,-0.666748 h -2.624658 v -1.777994 h 3.100906 c 0.507999,0 0.878414,-0.148166 0.878414,-0.698498 0,-0.550331 -0.370415,-0.698498 -0.878414,-0.698498 h -3.820571 c -0.613831,0 -1.015996,0.243416 -1.015996,1.015997 z"
         style="font-family:'Helvetica Rounded';-inkscape-font-specification:'Helvetica Rounded, Normal';stroke:#ffffff;stroke-width:0.565;stroke-dasharray:none;stroke-opacity:1;fill:#ffffff;fill-opacity:1"
         id="path408" />
      <path
         d="m 82.431694,46.342727 c 0,0.518582 0.338665,0.867831 0.86783,0.867831 0.529165,0 0.867831,-0.349249 0.867831,-0.867831 v -2.381242 h 2.624658 c 0.455082,0 0.814914,-0.127 0.814914,-0.666748 0,-0.539748 -0.359832,-0.666748 -0.814914,-0.666748 h -2.624658 v -1.777994 h 3.100907 c 0.507998,0 0.878413,-0.148166 0.878413,-0.698498 0,-0.550331 -0.370415,-0.698498 -0.878413,-0.698498 H 83.44769 c -0.613831,0 -1.015996,0.243416 -1.015996,1.015997 z"
         style="font-family:'Helvetica Rounded';-inkscape-font-specification:'Helvetica Rounded, Normal';stroke:#ffffff;stroke-width:0.565;stroke-dasharray:none;stroke-opacity:1;fill:#ffffff;fill-opacity:1"
         id="path410" />
      <path
         d="m 89.056829,46.342727 c 0,0.518582 0.338666,0.867831 0.867831,0.867831 0.529165,0 0.867831,-0.349249 0.867831,-0.867831 v -6.15948 c 0,-0.518582 -0.338666,-0.86783 -0.867831,-0.86783 -0.529165,0 -0.867831,0.349248 -0.867831,0.86783 z"
         style="font-family:'Helvetica Rounded';-inkscape-font-specification:'Helvetica Rounded, Normal';stroke:#ffffff;stroke-width:0.565;stroke-dasharray:none;stroke-opacity:1;fill:#ffffff;fill-opacity:1"
         id="path412" />
      <path
         d="m 94.263812,46.342727 c 0,0.518582 0.338666,0.867831 0.867831,0.867831 0.529165,0 0.86783,-0.349249 0.86783,-0.867831 v -5.429232 h 1.640412 c 0.497415,0 0.89958,-0.253999 0.89958,-0.730248 0,-0.476248 -0.402165,-0.730248 -0.89958,-0.730248 h -5.016484 c -0.497415,0 -0.899581,0.254 -0.899581,0.730248 0,0.476249 0.402166,0.730248 0.899581,0.730248 h 1.640411 z"
         style="font-family:'Helvetica Rounded';-inkscape-font-specification:'Helvetica Rounded, Normal';stroke:#ffffff;stroke-width:0.565;stroke-dasharray:none;stroke-opacity:1;fill:#ffffff;fill-opacity:1"
         id="path414" />
      <path
         d="m 99.513122,46.056978 c 0,0.772581 0.402165,1.015997 1.015998,1.015997 h 4.15924 c 0.50799,0 0.87841,-0.148166 0.87841,-0.698498 0,-0.550331 -0.37042,-0.698497 -0.87841,-0.698497 h -3.43958 v -1.841495 h 2.94216 c 0.45508,0 0.81491,-0.126999 0.81491,-0.666747 0,-0.539749 -0.35983,-0.666748 -0.81491,-0.666748 h -2.94216 v -1.650995 h 3.35491 c 0.508,0 0.87841,-0.148166 0.87841,-0.698498 0,-0.550331 -0.37041,-0.698498 -0.87841,-0.698498 h -4.07457 c -0.613833,0 -1.015998,0.243416 -1.015998,1.015997 z"
         style="font-family:'Helvetica Rounded';-inkscape-font-specification:'Helvetica Rounded, Normal';stroke:#ffffff;stroke-width:0.565;stroke-dasharray:none;stroke-opacity:1;fill:#ffffff;fill-opacity:1"
         id="path416" />
    </g>
    <g
       id="g4823"
       inkscape:label="flag"
       transform="matrix(1.0514807,0,0,1.0514807,-1.8066861,-2.2859775)"
       style="stroke:none">
      <rect
         style="fill:#ffffff;fill-opacity:1;fill-rule:evenodd;stroke:none;stroke-width:0.313013;stroke-linecap:round;stroke-linejoin:round;stroke-dasharray:none;stroke-opacity:1;paint-order:markers fill stroke"
         id="rect1072"
         width="3.8148344"
         height="7.6296687"
         x="36.927444"
         y="40.190487" />
      <rect
         style="fill:#0017aa;fill-opacity:1;fill-rule:evenodd;stroke:none;stroke-width:0.313012;stroke-linecap:round;stroke-linejoin:round;stroke-dasharray:none;stroke-opacity:1;paint-order:markers fill stroke"
         id="rect1074"
         width="3.8148344"
         height="7.6296687"
         x="33.11261"
         y="40.19038" />
      <rect
         style="fill:#d6170c;fill-opacity:1;fill-rule:evenodd;stroke:none;stroke-width:0.312751;stroke-linecap:round;stroke-linejoin:round;stroke-dasharray:none;stroke-opacity:1;paint-order:markers fill stroke"
         id="rect1802"
         width="3.8148344"
         height="7.6296687"
         x="40.742279"
         y="40.19038" />
    </g>
  </g>
</svg>
