<?xml version="1.0" encoding="UTF-8" standalone="no"?>
<!-- Created with Inkscape (http://www.inkscape.org/) -->

<svg
   width="210mm"
   height="297mm"
   viewBox="0 0 210 297"
   version="1.1"
   id="svg5"
   xml:space="preserve"
   inkscape:version="1.2.2 (732a01da63, 2022-12-09)"
   sodipodi:docname="gitanes-logo.svg"
   xmlns:inkscape="http://www.inkscape.org/namespaces/inkscape"
   xmlns:sodipodi="http://sodipodi.sourceforge.net/DTD/sodipodi-0.dtd"
   xmlns:xlink="http://www.w3.org/1999/xlink"
   xmlns="http://www.w3.org/2000/svg"
   xmlns:svg="http://www.w3.org/2000/svg"><sodipodi:namedview
     id="namedview7"
     pagecolor="#ffffff"
     bordercolor="#666666"
     borderopacity="1.0"
     inkscape:showpageshadow="2"
     inkscape:pageopacity="0.0"
     inkscape:pagecheckerboard="0"
     inkscape:deskcolor="#d1d1d1"
     inkscape:document-units="mm"
     showgrid="false"
     inkscape:zoom="2.9122824"
     inkscape:cx="493.7708"
     inkscape:cy="396.25278"
     inkscape:window-width="1846"
     inkscape:window-height="1057"
     inkscape:window-x="1986"
     inkscape:window-y="-8"
     inkscape:window-maximized="1"
     inkscape:current-layer="layer1" /><defs
     id="defs2" /><g
     inkscape:label="Laag 1"
     inkscape:groupmode="layer"
     id="layer1"><image
       width="444.21671"
       height="444.21671"
       preserveAspectRatio="none"
       xlink:href="../references/gitanes-blondes-logo-png-transparent.png"
       id="image190"
       x="-71.920357"
       y="-15.668677"
       style="display:none" /><path
       style="display:none;fill:#000000;fill-opacity:1;stroke:none;stroke-width:0.264583px;stroke-linecap:butt;stroke-linejoin:miter;stroke-opacity:1"
       d="m 129.30252,69.656996 -2.48699,-0.09525 -2.22242,-0.179911 -2.11659,-0.253989 -1.35462,-0.264576 -0.98422,-0.09524 -1.28053,0.05291 -0.6244,0.222242 -0.58206,0.370403 -0.40215,0.476232 -0.29632,0.529148 -0.17992,0.571479 -0.19049,0.730226 -0.0529,0.867801 0.12699,0.825471 0.35982,0.836052 0.45507,0.677309 -1.38637,0.64556 -2.97381,1.492197 -2.1695,1.090043 -1.9261,0.899552 -2.26475,1.132377 0.20107,1.915515 0.34924,2.264751 0.41274,2.635155 0.34923,2.50816 0.30691,2.042509 0.24341,1.947264 -0.67731,0.698474 -1.14296,1.195874 -0.96305,1.026546 -0.59264,0.603229 -0.28574,0.67731 0.15874,1.121793 0.6244,1.396948 0.66672,1.35461 0.71964,1.22763 1.07946,1.51336 -0.79372,1.32287 -0.84663,1.44986 -0.69848,1.10063 -0.53973,0.98421 -1.71444,1.69328 -2.46583,2.44466 -3.079636,3.01614 -3.555873,3.39713 -4.159099,4.04269 -3.93686,3.69345 -3.820446,3.52412 -1.746186,1.64036 -1.576861,1.35462 -1.153541,0.91013 -1.142961,0.79372 -1.037129,1.01597 -0.64556,0.84663 -0.539731,1.03713 -0.751388,1.64036 -0.35982,1.59802 -0.222242,1.20646 -0.126997,1.76736 -0.03175,1.12179 -0.201078,0.94188 -0.370403,1.11121 -0.709057,1.38637 -0.994796,1.7356 -1.185291,1.56628 -1.164127,1.3652 -1.513361,1.74619 -1.142958,1.20645 -1.322872,1.53453 -0.814884,0.81489 -0.910135,0.65614 -0.963049,0.57148 -1.407533,0.66673 -1.333453,0.52915 -1.206455,0.4339 -1.936681,0.51856 -1.545111,0.35982 -1.735606,0.39157 -1.936678,0.32807 -1.471031,0.10583 -0.158744,0.31749 -0.01058,0.33866 0.306906,0.17991 0.836052,0.0635 h 1.735606 l 1.513361,-0.14816 1.629775,-0.10583 1.280538,0.0423 0.592646,0.1905 0.603229,0.47623 0.275156,0.65614 0.211658,1.03713 0.07408,1.50278 0.03175,1.65094 0.116411,1.14296 0.560896,1.58744 0.582062,0.87839 0.804307,0.59264 1.227622,0.57149 1.333452,0.28574 1.344036,0.10582 1.883764,0.0423 1.989595,-0.0423 1.926098,-0.20107 1.513361,-0.24341 1.619192,-0.22224 1.164124,-0.19049 0.867805,-0.0741 -1.217041,1.39695 -1.344036,1.46045 -0.963046,1.10063 -1.418117,1.51336 -1.174707,0.35982 -3.016142,0.88897 0.518565,0.42332 0.825468,0.35982 0.931302,0.24341 1.132374,0.0635 1.195874,-0.0529 0.857221,-0.20108 1.037127,-0.44448 1.238208,-0.58206 1.576858,-1.01597 1.883768,-1.29112 2.370582,-1.78852 -1.121794,4.61417 1.83085,0.0212 1.185291,-2.68807 0.952466,-2.20126 0.761973,-1.83085 1.058294,0.85722 1.534528,1.12179 1.407533,0.81489 1.492197,0.66673 1.39695,0.44448 0.920718,0.0529 0.857218,-0.0741 1.026546,-0.8678 0.349237,-0.75139 0.222242,-0.9313 0.31749,-0.47623 0.603229,-0.31749 0.560895,-0.0423 0.592646,0.127 1.195874,0.55031 1.449864,0.94188 1.058296,0.67731 1.51336,0.9948 1.34404,0.81489 0.89955,0.39156 1.01596,0.17992 h 0.5609 l 0.46565,-0.27516 0.24341,-0.44448 0.15874,-0.6879 0.0106,-2.33883 -0.10582,-1.74619 0.0212,-1.3652 0.29632,-1.29112 0.51857,-0.9948 0.76197,-0.75139 1.06888,-0.48681 1.21704,-0.29632 1.56628,-0.10583 1.70385,0.0317 1.44987,0.0952 2.106,0.0212 2.31767,-0.127 1.93668,-0.34923 1.77794,-0.58206 1.66152,-1.17471 1.3017,-1.24879 0.83606,-0.88897 0.71964,-0.79372 0.24341,-0.0847 0.17991,0.23282 -0.43391,0.39157 -0.64556,0.58206 -0.8678,0.96305 -0.33865,0.58206 -0.25399,1.01597 0.16933,0.9313 0.11641,0.58206 -0.0847,0.9948 -0.65614,1.53453 -1.05829,1.39695 -0.87839,0.99479 -0.83605,0.76198 -1.03713,0.85721 -1.03713,0.59265 -0.67731,0.45507 -0.51857,0.45506 -0.3069,0.46565 0.29632,0.53973 0.60323,0.20108 1.4287,0.14816 1.14296,-0.0318 0.95246,-0.28574 0.97363,-0.4974 0.95247,-0.64556 1.12179,-0.94188 0.76198,-0.68789 1.37578,-1.25937 1.03713,-1.02655 0.96305,-0.82547 0.50798,-0.40215 -0.0106,5.82062 1.35462,0.45507 0.2434,-3.09022 0.38099,-4.11677 0.10583,-0.67731 0.14816,-2.69865 1.14296,-0.47624 1.9261,-0.95246 2.05309,-1.12179 1.82027,-1.07947 1.48161,-1.10062 1.22762,-0.97363 0.97364,-1.01597 0.6773,-0.8678 0.31749,-0.78314 0.0423,-0.8678 -0.27515,-0.65614 -0.50798,-0.65615 -0.88897,-1.35462 -0.69848,-1.18529 -0.75139,-1.3652 -1.21704,-2.46583 -0.78314,-1.80968 -0.99479,-2.2965 -0.9948,-2.40233 -0.92072,-2.39175 -0.81488,-2.33883 -1.04772,-3.32305 -0.69847,-2.65632 -0.33866,-1.47103 -0.22224,-1.52395 -0.0847,-1.29112 -0.0423,-1.71443 0.0741,-2.18009 0.10583,-2.26475 0.21165,-2.41292 0.27516,-2.11659 0.37041,-2.18009 0.29632,-1.70385 0.40215,-1.9896 0.40215,-2.08484 0.48682,-2.22242 0.66672,-2.44466 0.38099,-1.31229 0.28574,-1.40753 0.14816,-1.62978 -0.0952,-1.58744 -0.20107,-1.02654 -0.38099,-1.14296 -0.48681,-1.068877 -0.57148,-0.963049 -0.59265,-0.793721 -0.44448,-0.497398 -0.74081,-0.730224 -0.17991,0.656141 -0.29632,0.656145 -0.44449,0.582063 -0.34923,0.232825 -0.20108,-0.137581 -0.0635,-0.71964 0.23283,-0.783138 0.3704,-0.550313 0.65614,-0.253993 0.22225,-0.571477 0.38098,-0.952468 0.70906,-1.238205 0.85722,-1.259372 0.84664,-1.058293 0.73022,-0.857221 1.17471,-1.238205 1.18529,-1.164124 1.40753,-1.39695 1.34404,-1.217041 1.78852,-1.576858 1.07946,-0.973633 1.19587,-1.11121 1.21704,-1.142958 1.41812,-1.418116 0.59264,-0.687893 0.5609,-0.772554 0.46565,-0.867802 0.11641,-0.698476 0.0529,-0.804304 -0.0635,-0.634976 -0.23283,-0.634979 -0.28574,-0.656143 0.1905,-0.349237 0.68789,-0.529148 1.2382,-0.910135 0.84664,-0.656143 0.61381,-0.518564 0.4339,-0.529149 0.22224,-0.825468 -0.0635,-0.687893 -0.47624,-0.761973 -0.56089,-0.761971 -0.98422,-0.888968 -0.84663,-0.730224 -0.92072,-0.709059 -0.63498,-0.539729 -0.4339,-0.507984 -0.12699,-0.35982 0.21165,-0.370404 0.45507,-0.338653 0.76197,-0.761974 0.6879,-0.952465 0.77255,-1.312286 0.4974,-1.090044 0.33865,-1.037129 0.20108,-0.910135 0.0317,-0.888968 -0.19049,-0.603227 -0.32808,-0.46565 -0.67731,-0.296323 -0.56089,-0.08466 -0.59265,0.158745 -0.71964,0.306906 -0.48681,0.264572 -0.34924,0.169328 -0.16933,-0.158744 0.0953,-0.412734 0.22224,-1.386369 0.46565,-2.148338 0.13758,-0.804307 -1.19587,-0.941882 -4.75175,-3.259547 -5.49255,-3.831029 -1.1218,-0.740807 -0.0317,-0.814888 0.27515,-0.994799 0.44449,-1.005379 0.76197,-1.555695 0.56089,-1.090043 0.17992,-0.645563 0.0635,-0.867801 -0.0952,-0.899552 -0.37041,-0.783137 -0.68789,-0.963049 -0.76197,-0.761974 -1.18529,-0.761971 -1.34404,-0.539731 -1.21704,-0.243409 -1.43928,-0.105828 -1.19587,0.01058 -1.09005,0.179909 -1.57686,0.433901 -1.38636,0.550315 -1.23821,0.624393 -1.29112,0.761973 -0.94188,0.613812 -1.21704,0.899552 -1.31229,1.132374 -1.3017,1.280539 -0.98422,0.994796 -0.97363,1.068879 -1.04771,1.291119 -1.00538,1.386367 -0.73022,1.015965 -0.66673,1.3652 -0.4339,0.984216 -0.29632,0.899551 -0.10583,0.984213 -0.0423,0.888968 0.19049,0.963049 0.33865,0.719641 0.57148,0.719642 0.67731,0.529146 1.00538,0.476234 0.97363,0.306906 1.06888,0.222242 1.3652,0.07408 1.57686,0.01058 1.16413,-0.201078 1.92609,-0.497398 1.47104,-0.476231 1.56627,-0.666727 1.58745,-0.867804 1.52394,-1.068877 1.39695,-1.206457 0.84664,-0.899552 0.61381,-0.761971 0.50798,-0.740807 1.65094,0.910135 2.07426,1.33345 1.87318,1.248788 1.76735,1.333453 1.1853,1.259371 0.47623,0.687893 0.35982,0.698474 0.0635,1.185291 -0.0317,1.661525 -0.127,1.047713 -0.28574,1.481611 -0.32807,1.523947 -0.40215,1.015963 -0.5609,-1.248789 -0.83605,-1.492197 -0.68789,-1.11121 -0.58207,-0.71964 -0.68789,-0.666726 -0.55031,-0.444484 -0.61381,-0.31749 -0.44449,-0.126995 -0.50798,0.0635 -0.26457,0.264575 -0.3704,0.603229 -0.0952,0.772554 -0.27516,1.502781 -0.28574,1.629775 -0.31749,1.312285 -0.29632,1.047711 -0.24341,0.719643 -0.48681,-0.211659 -0.69848,-0.31749 -0.87838,0.0635 -0.92072,0.507981 -0.53973,0.455068 -0.46565,0.963049 -0.31749,0.836054 -0.10583,1.174707 -0.0106,1.65094 0.3069,1.957847 0.34924,1.3652 0.50798,1.598025 0.4974,1.132377 0.52359,0.950007 z"
       id="path370"
       sodipodi:nodetypes="cccccccccccccccccccccccccccccccccccccccccccccccccccccccccccccccccccccccccccccccccccccccccccccccccccccccccccccccccccccccccccccccccccccccccccccccccccccccccccccccccccccccccccccccccccccccccccccccccccccccccccccccccccccccccccccccccccccccccccccccccccccccccccccccccccccccccccccccccccccccccccccccccccccccccccccccccccccccccccccccccccccccccccccccccccccccccccccccccccccccccccccccccccccccccccccccccccccccccccccccccccccccccccccccccccccccccccccccccc"
       inkscape:label="logo" /><path
       id="path1783"
       style="fill:#000000;fill-opacity:1;fill-rule:evenodd;stroke:none;stroke-width:0.264583px;stroke-linecap:butt;stroke-linejoin:miter;stroke-opacity:1"
       d="m 111.33772,97.028708 c 0.16609,-0.117885 0.33646,-0.229958 0.49827,-0.353655 0.24777,-0.189415 0.47462,-0.40523 0.72271,-0.594231 0.27351,-0.20837 0.55888,-0.400816 0.84317,-0.59423 0.34681,-0.23595 0.69152,-0.476037 1.05195,-0.690594 0.31592,-0.18806 0.64124,-0.360714 0.97165,-0.52196 0.3102,-0.15138 0.62868,-0.285453 0.94756,-0.417568 0.321,-0.132994 0.64497,-0.25907 0.97165,-0.377417 0.27616,-0.100043 0.55191,-0.203214 0.83513,-0.281057 0.24552,-0.06748 0.5063,-0.077 0.74681,-0.160602 0.17752,-0.06171 0.34691,-0.14871 0.5059,-0.248936 0.14994,-0.09452 0.30175,-0.195063 0.41757,-0.329237 0.10891,-0.126162 0.18237,-0.280828 0.24893,-0.433628 0.0795,-0.182407 0.14796,-0.37326 0.17666,-0.57014 0.0351,-0.241048 0.0159,-0.488328 -0.008,-0.730745 -0.027,-0.273759 -0.083,-0.5449 -0.15258,-0.811045 -0.0572,-0.218655 -0.13597,-0.431362 -0.21681,-0.642414 -0.10422,-0.272093 -0.22211,-0.538969 -0.3453,-0.803016 -0.15335,-0.3287 -0.32326,-0.649448 -0.48984,-0.971648 -0.13913,-0.269105 -0.27622,-0.539456 -0.42559,-0.803015 -0.13263,-0.234037 -0.27575,-0.462006 -0.41757,-0.690595 -0.11039,-0.177939 -0.22485,-0.353326 -0.33727,-0.529989 -0.12848,-0.04818 -0.25984,-0.0893 -0.38545,-0.144542 -0.17313,-0.07615 -0.34913,-0.151145 -0.5059,-0.256966 -0.16195,-0.109323 -0.31215,-0.239122 -0.44165,-0.385448 -0.19287,-0.217938 -0.3438,-0.470986 -0.48985,-0.722714 -0.15259,-0.263004 -0.28472,-0.538333 -0.4015,-0.819076 -0.11964,-0.287622 -0.22222,-0.583046 -0.30515,-0.883317 -0.0626,-0.226698 -0.0965,-0.460359 -0.14454,-0.690594 -0.0725,-0.347917 -0.15627,-0.693716 -0.21682,-1.043919 -0.0299,-0.17308 -0.0482,-0.347975 -0.0723,-0.521962 l -3.59751,2.698134 0.0157,14.326126 z m 17.9648,-27.371712 c -0.82945,-0.01588 -1.65886,-0.04589 -2.48699,-0.09525 -0.74191,-0.04422 -1.48291,-0.105636 -2.22242,-0.179911 -0.70703,-0.07101 -1.41464,-0.143476 -2.11659,-0.253989 -0.45447,-0.07155 -0.89935,-0.198247 -1.35462,-0.264576 -0.32616,-0.04752 -0.65474,-0.08615 -0.98422,-0.09524 -0.42705,-0.01178 -0.86114,-0.02845 -1.28053,0.05291 -0.21688,0.04208 -0.42589,0.125285 -0.6244,0.222242 -0.20664,0.100928 -0.40888,0.219085 -0.58206,0.370403 -0.15646,0.13671 -0.28383,0.305442 -0.40215,0.476232 -0.11512,0.166173 -0.21616,0.343565 -0.29632,0.529148 -0.0792,0.183338 -0.12471,0.379551 -0.17992,0.571479 -0.0695,0.241751 -0.1509,0.481806 -0.19049,0.730226 -0.0456,0.286193 -0.0662,0.578302 -0.0529,0.867801 0.0128,0.278101 0.0502,0.557883 0.12699,0.825471 0.0837,0.291622 0.21463,0.569651 0.35982,0.836052 0.13017,0.238828 0.45507,0.677309 0.45507,0.677309 -0.46212,0.215187 -0.92745,0.423631 -1.38637,0.64556 -0.99845,0.482834 -1.98267,0.994537 -2.97381,1.492197 -0.72326,0.363157 -1.4412,0.737099 -2.1695,1.090043 -0.63767,0.309023 -1.28813,0.591151 -1.9261,0.899552 -0.75989,0.36734 -1.50983,0.754918 -2.26475,1.132377 0.067,0.638505 0.11861,1.278819 0.20107,1.915515 0.0981,0.757514 0.23193,1.509972 0.34924,2.264751 0.13654,0.878547 0.28264,1.755631 0.41274,2.635155 0.12352,0.835033 0.22831,1.672747 0.34923,2.50816 0.0986,0.681379 0.21305,1.360457 0.30691,2.042509 0.0892,0.648033 0.16227,1.298176 0.24341,1.947264 0,0 -0.45078,0.46639 -0.67731,0.698474 -0.67298,0.68948 -1.36939,1.356453 -2.02571,2.061817 -0.40561,0.438037 -0.87609,0.869403 -0.95868,1.441142 -0.0487,0.374503 0.0542,0.758892 0.15874,1.121793 0.14118,0.49012 0.40768,0.935233 0.6244,1.396948 0.21384,0.45558 0.42819,0.91146 0.66672,1.35461 0.22482,0.41767 0.46172,0.82954 0.71964,1.22763 0.33693,0.52002 0.71964,1.00891 1.07946,1.51336 l -2.87856,4.85757 c -0.57148,0.56443 -1.1435,1.12831 -1.71444,1.69328 -0.82272,0.81411 -1.6414,1.63229 -2.46583,2.44466 -1.02347,1.00851 -2.046872,2.01715 -3.079636,3.01614 -1.178241,1.13971 -2.375482,2.25965 -3.555873,3.39713 -1.392171,1.34157 -2.760863,2.70745 -4.159099,4.04269 -1.301341,1.24271 -2.619393,2.46785 -3.93686,3.69345 -1.268516,1.18007 -2.552314,2.34364 -3.820446,3.52412 -0.58454,0.54414 -1.152122,1.10664 -1.746186,1.64036 -0.515461,0.4631 -1.041932,0.91415 -1.576861,1.35462 -0.378099,0.31133 -0.759954,0.61862 -1.153541,0.91013 -0.372741,0.27607 -0.785531,0.4981 -1.142961,0.79372 -0.372921,0.30844 -0.716722,0.65328 -1.037129,1.01597 -0.234964,0.26597 -0.455351,0.54702 -0.64556,0.84663 -0.208877,0.32902 -0.368572,0.687 -0.539731,1.03713 -0.264134,0.54032 -0.559061,1.07052 -0.751388,1.64036 -0.174607,0.51734 -0.250371,1.06309 -0.35982,1.59802 -0.08197,0.40062 -0.170469,0.80083 -0.222242,1.20646 -0.07478,0.58589 -0.09747,1.17746 -0.126997,1.76736 -0.0187,0.37361 0.01278,0.75037 -0.03175,1.12179 -0.03821,0.31875 -0.116674,0.63214 -0.201078,0.94188 -0.102651,0.3767 -0.219346,0.75118 -0.370403,1.11121 -0.200818,0.47864 -0.461753,0.93001 -0.709057,1.38637 -0.317709,0.58628 -0.627056,1.17934 -0.994796,1.7356 -0.361074,0.54618 -0.775156,1.05592 -1.185291,1.56628 -0.374624,0.46618 -0.774263,0.91169 -1.164127,1.3652 -0.502115,0.58408 -0.996142,1.17544 -1.513361,1.74619 -0.371988,0.41049 -0.771511,0.79547 -1.142958,1.20645 -0.452835,0.50103 -0.863311,1.03967 -1.322872,1.53453 -0.261403,0.28148 -0.522322,0.56595 -0.814884,0.81489 -0.284836,0.24237 -0.59732,0.45115 -0.910135,0.65614 -0.312217,0.2046 -0.633509,0.39614 -0.963049,0.57148 -0.458318,0.24385 -0.931422,0.45976 -1.407533,0.66673 -0.438555,0.19065 -0.886159,0.36002 -1.333453,0.52915 -0.399747,0.15115 -0.798609,0.3062 -1.206455,0.4339 -0.637771,0.19969 -1.288371,0.35632 -1.936681,0.51856 -0.512999,0.12838 -1.029663,0.24166 -1.545111,0.35982 -0.578081,0.13252 -1.153753,0.27674 -1.735606,0.39157 -0.642366,0.12677 -1.286616,0.24981 -1.936678,0.32807 -0.488087,0.0588 -1.062391,-0.16747 -1.471031,0.10583 -0.09835,0.0658 -0.129765,0.20277 -0.158744,0.31749 -0.02766,0.1095 -0.06519,0.2398 -0.01058,0.33866 0.05734,0.1038 0.193725,0.14453 0.306906,0.17991 0.266754,0.0834 0.556766,0.0529 0.836052,0.0635 0.57812,0.0219 1.157759,0.0282 1.735606,0 0.506262,-0.0247 1.008166,-0.10704 1.513361,-0.14816 0.542608,-0.0442 1.085441,-0.0972 1.629775,-0.10583 0.427025,-0.007 0.859762,-0.0308 1.280538,0.0423 0.204441,0.0355 0.409524,0.0929 0.592646,0.1905 0.226084,0.12049 0.448231,0.27225 0.603229,0.47623 0.143491,0.18883 0.20525,0.42951 0.275156,0.65614 0.104,0.33716 0.167568,0.68706 0.211658,1.03713 0.06267,0.4976 0.05691,1.00154 0.07408,1.50278 0.01884,0.55009 -0.0015,1.10153 0.03175,1.65094 0.0231,0.38226 0.03263,0.76928 0.116411,1.14296 0.122785,0.54761 0.310529,1.08518 0.560896,1.58744 0.156699,0.31436 0.339955,0.62391 0.582062,0.87839 0.229545,0.24127 0.517879,0.42275 0.804307,0.59264 0.388222,0.23027 0.799645,0.42805 1.227622,0.57149 0.431011,0.14446 0.888968,0.19049 1.333452,0.28574 0.448012,0.0353 0.896024,0.0705 1.344036,0.10582 l 1.883764,0.0423 1.989595,-0.0423 c 0.642033,-0.067 1.28617,-0.11627 1.926098,-0.20107 0.506509,-0.0671 1.008005,-0.1681 1.513361,-0.24341 0.53884,-0.0803 1.080462,-0.14121 1.619192,-0.22224 0.388828,-0.0585 0.773926,-0.14198 1.164124,-0.19049 0.288103,-0.0358 0.867805,-0.0741 0.867805,-0.0741 l -1.217041,1.39695 c -0.448012,0.48682 -0.896024,0.97363 -1.344036,1.46045 -0.321015,0.36688 -0.642031,0.73375 -0.963046,1.10063 -0.472706,0.50445 -0.945411,1.00891 -1.418117,1.51336 l -1.174707,0.35982 c -1.005381,0.29632 -2.010761,0.59265 -3.016142,0.88897 0.172855,0.14111 0.34571,0.28221 0.518565,0.42332 l 0.825468,0.35982 c 0.310434,0.0811 0.620868,0.16227 0.931302,0.24341 0.377458,0.0212 0.754916,0.0423 1.132374,0.0635 0.398625,-0.0176 0.797249,-0.0353 1.195874,-0.0529 0.28574,-0.067 0.571481,-0.13405 0.857221,-0.20108 l 1.037127,-0.44448 1.238208,-0.58206 c 0.525619,-0.33866 1.051239,-0.67731 1.576858,-1.01597 0.627923,-0.43037 1.255845,-0.86075 1.883768,-1.29112 0.790194,-0.59617 1.580388,-1.19235 2.370582,-1.78852 -0.373931,1.53806 -0.747863,3.07611 -1.121794,4.61417 0.610283,0.007 1.220567,0.0141 1.83085,0.0212 0.395097,-0.89602 0.790194,-1.79205 1.185291,-2.68807 0.317489,-0.73375 0.634977,-1.46751 0.952466,-2.20126 0.253991,-0.61028 0.507982,-1.22057 0.761973,-1.83085 0,0 0.698558,0.58031 1.058294,0.85722 0.502087,0.38649 1.003849,0.7756 1.534528,1.12179 0.454062,0.29621 0.924797,0.56816 1.407533,0.81489 0.485101,0.24794 0.983124,0.47271 1.492197,0.66673 0.456614,0.17402 0.916432,0.35569 1.39695,0.44448 0.302295,0.0559 0.613338,0.0573 0.920718,0.0529 0.286775,-0.004 0.592389,0.036 0.857218,-0.0741 0.413734,-0.17201 0.754654,-0.51166 1.026546,-0.8678 0.167598,-0.21953 0.258519,-0.49052 0.349237,-0.75139 0.104827,-0.30144 0.0947,-0.63874 0.222242,-0.9313 0.07625,-0.17489 0.175784,-0.34848 0.31749,-0.47623 0.168771,-0.15214 0.384844,-0.25472 0.603229,-0.31749 0.1802,-0.0518 0.373831,-0.055 0.560895,-0.0423 0.201568,0.0137 0.400944,0.0632 0.592646,0.127 0.416365,0.13853 0.811567,0.33851 1.195874,0.55031 0.504738,0.27817 0.965511,0.62957 1.449864,0.94188 0.351995,0.22697 0.706915,0.44939 1.058296,0.67731 0.506468,0.32851 1.00294,0.67246 1.51336,0.9948 0.44298,0.27976 0.87879,0.57398 1.34404,0.81489 0.2904,0.15037 0.58645,0.29713 0.89955,0.39156 0.32927,0.0993 0.67336,0.14982 1.01596,0.17992 0.18625,0.0164 0.38055,0.0493 0.5609,0 0.17391,-0.0475 0.34027,-0.14561 0.46565,-0.27516 0.11748,-0.12138 0.18329,-0.28662 0.24341,-0.44448 0.0838,-0.21992 0.13158,-0.45415 0.15874,-0.6879 0.09,-0.77441 0.0324,-1.55952 0.0106,-2.33883 -0.0163,-0.5829 -0.0927,-1.16321 -0.10582,-1.74619 -0.0102,-0.45501 -0.0335,-0.91338 0.0212,-1.3652 0.0531,-0.43836 0.14364,-0.87679 0.29632,-1.29112 0.1293,-0.35088 0.29631,-0.69407 0.51857,-0.9948 0.21201,-0.28687 0.46815,-0.54913 0.76197,-0.75139 0.32248,-0.22199 0.69889,-0.3588 1.06888,-0.48681 0.39458,-0.13652 0.8044,-0.23263 1.21704,-0.29632 0.51716,-0.0798 1.04315,-0.0931 1.56628,-0.10583 0.56788,-0.0139 1.1363,0.008 1.70385,0.0317 0.4839,0.0204 0.96589,0.0769 1.44987,0.0952 0.70153,0.0265 1.40414,0.0369 2.106,0.0212 0.77352,-0.0173 1.54921,-0.037 2.31767,-0.127 0.65152,-0.0763 1.30068,-0.1886 1.93668,-0.34923 0.60461,-0.15271 1.22081,-0.30192 1.77794,-0.58206 0.60599,-0.3047 1.13841,-0.74294 1.66152,-1.17471 0.46373,-0.38276 0.87864,-0.82151 1.3017,-1.24879 0.28621,-0.28906 0.56009,-0.59012 0.83606,-0.88897 0.24228,-0.26237 0.42182,-0.59664 0.71964,-0.79372 0.0716,-0.0474 0.16106,-0.10918 0.24341,-0.0847 0.094,0.028 0.18866,0.13513 0.17991,0.23282 -0.0174,0.19405 -0.28925,0.26108 -0.43391,0.39157 -0.21514,0.19407 -0.44071,0.37715 -0.64556,0.58206 -0.30551,0.3056 -0.61316,0.61393 -0.8678,0.96305 -0.13228,0.18135 -0.25415,0.3741 -0.33865,0.58206 -0.13141,0.3234 -0.24263,0.66708 -0.25399,1.01597 -0.0103,0.31536 0.11017,0.62137 0.16933,0.9313 0.0371,0.19435 0.10529,0.38451 0.11641,0.58206 0.0187,0.33227 -0.004,0.6719 -0.0847,0.9948 -0.13466,0.53976 -0.37674,1.05348 -0.65614,1.53453 -0.2934,0.50516 -0.68832,0.94485 -1.05829,1.39695 -0.28016,0.34234 -0.56806,0.67954 -0.87839,0.99479 -0.26452,0.26871 -0.55131,0.5148 -0.83605,0.76198 -0.3387,0.29401 -0.66821,0.60214 -1.03713,0.85721 -0.32751,0.22644 -0.6988,0.38271 -1.03713,0.59265 -0.23112,0.14341 -0.46176,0.28918 -0.67731,0.45507 -0.18225,0.14026 -0.36751,0.28165 -0.51857,0.45506 -0.12211,0.14017 -0.29941,0.2799 -0.3069,0.46565 -0.008,0.20507 0.13871,0.40826 0.29632,0.53973 0.16276,0.13577 0.39605,0.15637 0.60323,0.20108 0.46801,0.101 0.95025,0.13009 1.4287,0.14816 0.38086,0.0144 0.76667,0.0288 1.14296,-0.0318 0.32725,-0.0527 0.64487,-0.16221 0.95246,-0.28574 0.33819,-0.13582 0.65992,-0.31191 0.97363,-0.4974 0.33015,-0.19521 0.64645,-0.41435 0.95247,-0.64556 0.38956,-0.29434 0.75356,-0.62126 1.12179,-0.94188 0.25807,-0.2247 0.50878,-0.45772 0.76198,-0.68789 0.46004,-0.4182 0.92546,-0.83071 1.37578,-1.25937 0.35232,-0.33537 0.67939,-0.69697 1.03713,-1.02655 0.31096,-0.28648 0.63673,-0.55662 0.96305,-0.82547 0.16668,-0.13733 0.33865,-0.2681 0.50798,-0.40215 -0.004,1.94021 -0.007,3.88041 -0.0106,5.82062 l 1.35462,0.45507 c 0.0811,-1.03007 0.16227,-2.06015 0.2434,-3.09022 0.127,-1.37226 0.25399,-2.74451 0.38099,-4.11677 0.0353,-0.22577 0.0705,-0.45154 0.10583,-0.67731 0.0494,-0.89955 0.0988,-1.7991 0.14816,-2.69865 0.38099,-0.15875 0.76729,-0.3053 1.14296,-0.47624 0.65193,-0.29664 1.29068,-0.62193 1.9261,-0.95246 0.69185,-0.35988 1.37542,-0.73587 2.05309,-1.12179 0.613,-0.34909 1.23296,-0.6887 1.82027,-1.07947 0.51221,-0.3408 0.9936,-0.72599 1.48161,-1.10062 0.41428,-0.31804 0.84144,-0.622 1.22762,-0.97363 0.34683,-0.3158 0.66667,-0.6613 0.97364,-1.01597 0.24014,-0.27745 0.49372,-0.55008 0.6773,-0.8678 0.14093,-0.2439 0.25686,-0.50806 0.31749,-0.78314 0.0623,-0.28282 0.0925,-0.58257 0.0423,-0.8678 -0.0411,-0.23358 -0.15568,-0.45126 -0.27515,-0.65614 -0.13934,-0.23894 -0.34731,-0.43099 -0.50798,-0.65615 -0.31371,-0.43964 -0.60363,-0.89606 -0.88897,-1.35462 -0.24229,-0.38937 -0.47148,-0.78682 -0.69848,-1.18529 -0.25712,-0.45134 -0.51115,-0.90465 -0.75139,-1.3652 -0.42393,-0.81268 -0.83206,-1.63399 -1.21704,-2.46583 -0.27606,-0.5965 -0.52199,-1.2065 -0.78314,-1.80968 -0.33146,-0.76556 -0.6694,-1.52834 -0.99479,-2.2965 -0.33807,-0.79807 -0.67329,-1.59745 -0.9948,-2.40233 -0.3169,-0.79333 -0.62669,-1.58966 -0.92072,-2.39175 -0.28415,-0.77513 -0.55491,-1.55525 -0.81488,-2.33883 -0.36573,-1.10235 -0.72533,-2.20726 -1.04772,-3.32305 -0.25414,-0.87956 -0.47933,-1.76739 -0.69847,-2.65632 -0.12044,-0.48854 -0.24583,-0.9765 -0.33866,-1.47103 -0.0947,-0.50455 -0.16836,-1.01343 -0.22224,-1.52395 -0.0453,-0.42892 -0.0653,-0.86026 -0.0847,-1.29112 -0.0258,-0.57107 -0.045,-1.14279 -0.0423,-1.71443 0.003,-0.72711 0.0448,-1.45357 0.0741,-2.18009 0.0305,-0.75513 0.0552,-1.51071 0.10583,-2.26475 0.0541,-0.80558 0.12431,-1.61026 0.21165,-2.41292 0.077,-0.70729 0.16969,-1.41298 0.27516,-2.11659 0.10927,-0.72897 0.24553,-1.45363 0.37041,-2.18009 0.0977,-0.56814 0.18982,-1.1373 0.29632,-1.70385 0.125,-0.66496 0.27105,-1.32581 0.40215,-1.9896 0.13714,-0.69434 0.25939,-1.39163 0.40215,-2.08484 0.15297,-0.74278 0.30586,-1.48596 0.48682,-2.22242 0.20155,-0.82025 0.43784,-1.63161 0.66672,-2.44466 0.12343,-0.43845 0.27209,-0.87001 0.38099,-1.31229 0.11446,-0.46486 0.21634,-0.93384 0.28574,-1.40753 0.0791,-0.53974 0.13977,-1.08434 0.14816,-1.62978 0.008,-0.53003 -0.0282,-1.06159 -0.0952,-1.58744 -0.044,-0.345889 -0.11224,-0.689362 -0.20107,-1.02654 -0.10231,-0.388346 -0.23406,-0.769208 -0.38099,-1.14296 -0.14324,-0.364361 -0.30551,-0.721879 -0.48681,-1.068877 -0.17286,-0.330846 -0.36428,-0.652555 -0.57148,-0.963049 -0.18328,-0.27465 -0.38367,-0.538083 -0.59265,-0.793721 -0.14073,-0.172149 -0.29115,-0.336372 -0.44448,-0.497398 -0.23911,-0.251103 -0.49387,-0.486816 -0.74081,-0.730224 -0.06,0.218714 -0.10699,0.441397 -0.17991,0.656141 -0.075,0.22091 -0.15227,0.443417 -0.2642,0.648115 -0.11228,0.205354 -0.20692,0.448321 -0.40434,0.574033 -0.17783,0.113235 -0.46877,0.255475 -0.62258,0.111304 -0.36779,-0.344736 -0.0764,-1.062635 0.16935,-1.502778 0.21191,-0.379553 0.61933,-0.643257 1.02654,-0.804306 0.0741,-0.190492 0.14725,-0.381342 0.22225,-0.571477 0.12547,-0.318095 0.23216,-0.644606 0.38098,-0.952468 0.207,-0.428211 0.45688,-0.834945 0.70906,-1.238205 0.26925,-0.430554 0.55551,-0.850907 0.85722,-1.259372 0.26841,-0.36338 0.55902,-0.709919 0.84664,-1.058293 0.23897,-0.289457 0.47925,-0.578096 0.73022,-0.857221 0.38039,-0.423065 0.77591,-0.832449 1.17471,-1.238205 0.38818,-0.394957 0.79121,-0.77505 1.18529,-1.164124 0.47039,-0.46442 0.92782,-0.942159 1.40753,-1.39695 0.43861,-0.415827 0.89335,-0.814341 1.34404,-1.217041 0.59267,-0.529562 1.19533,-1.047875 1.78852,-1.576858 0.36165,-0.322504 0.72205,-0.646431 1.07946,-0.973633 0.40136,-0.367439 0.79823,-0.739752 1.19587,-1.11121 0.40669,-0.37991 0.81739,-0.755654 1.21704,-1.142958 0.48006,-0.465231 0.96328,-0.928191 1.41812,-1.418116 0.20592,-0.221807 0.4048,-0.450581 0.59264,-0.687893 0.19751,-0.249523 0.3918,-0.50297 0.5609,-0.772554 0.17444,-0.278096 0.35964,-0.557109 0.46565,-0.867802 0.0762,-0.223391 0.0892,-0.464009 0.11641,-0.698476 0.0309,-0.266893 0.0575,-0.535662 0.0529,-0.804304 -0.004,-0.212684 -0.0159,-0.42765 -0.0635,-0.634976 -0.0504,-0.219729 -0.14898,-0.425712 -0.23283,-0.634979 -0.0887,-0.22144 -0.29631,-0.417824 -0.28574,-0.656143 0.006,-0.132475 0.10434,-0.248435 0.1905,-0.349237 0.18796,-0.219907 0.45668,-0.355279 0.68789,-0.529148 0.4094,-0.307866 0.82936,-0.60153 1.2382,-0.910135 0.28497,-0.215106 0.5691,-0.431526 0.84664,-0.656143 0.2082,-0.168502 0.42581,-0.327785 0.61381,-0.518564 0.1601,-0.16247 0.3296,-0.326291 0.4339,-0.529149 0.1303,-0.25342 0.19791,-0.541554 0.22224,-0.825468 0.0197,-0.229432 0.0101,-0.469699 -0.0635,-0.687893 -0.0957,-0.283808 -0.30797,-0.514191 -0.47624,-0.761973 -0.17719,-0.260905 -0.34931,-0.52809 -0.56089,-0.761971 -0.29658,-0.327841 -0.65278,-0.596418 -0.98422,-0.888968 -0.27941,-0.246621 -0.55778,-0.494734 -0.84663,-0.730224 -0.30024,-0.244772 -0.6196,-0.465373 -0.92072,-0.709059 -0.21594,-0.174753 -0.43832,-0.343539 -0.63498,-0.539729 -0.15766,-0.157275 -0.32265,-0.315073 -0.4339,-0.507984 -0.0635,-0.110182 -0.13841,-0.233143 -0.12699,-0.35982 0.0128,-0.141628 0.11734,-0.263973 0.21165,-0.370404 0.1254,-0.141519 0.31199,-0.215032 0.45507,-0.338653 0.2718,-0.234839 0.52908,-0.488509 0.76197,-0.761974 0.25392,-0.298161 0.47367,-0.624616 0.6879,-0.952465 0.27766,-0.424928 0.53811,-0.862066 0.77255,-1.312286 0.18446,-0.354241 0.35229,-0.717951 0.4974,-1.090044 0.13214,-0.338818 0.24287,-0.686297 0.33865,-1.037129 0.0818,-0.299724 0.16187,-0.601925 0.20108,-0.910135 0.0374,-0.29414 0.0716,-0.595159 0.0317,-0.888968 -0.0284,-0.208941 -0.0969,-0.414267 -0.19049,-0.603227 -0.0843,-0.170151 -0.181,-0.345565 -0.32808,-0.46565 -0.19089,-0.155856 -0.44055,-0.227958 -0.67731,-0.296323 -0.18166,-0.05245 -0.3721,-0.09523 -0.56089,-0.08466 -0.20419,0.01144 -0.39933,0.09201 -0.59265,0.158745 -0.24651,0.0851 -0.48487,0.193364 -0.71964,0.306906 -0.16626,0.08041 -0.32254,0.180167 -0.48681,0.264572 -0.11507,0.05913 -0.22133,0.18877 -0.34924,0.169328 -0.0765,-0.01163 -0.14081,-0.08682 -0.16933,-0.158744 -0.0626,-0.157708 0.008,-0.339986 0.0318,-0.507981 0.0616,-0.436465 0.19143,-0.860542 0.28574,-1.291122 0.15677,-0.715773 0.32624,-1.428982 0.46565,-2.148338 0.0517,-0.267028 0.0917,-0.536205 0.13758,-0.804307 -0.39862,-0.313961 -0.79725,-0.627921 -1.19587,-0.941882 -1.58392,-1.086516 -3.16783,-2.173031 -4.75175,-3.259547 L 138.12873,39.1568 c -0.37393,-0.246936 -0.74787,-0.493871 -1.1218,-0.740807 -0.0106,-0.271629 -0.063,-0.544864 -0.0317,-0.814888 0.0396,-0.341758 0.15942,-0.670797 0.27515,-0.994799 0.12325,-0.345067 0.28979,-0.673219 0.44449,-1.005379 0.24378,-0.52344 0.50286,-1.039667 0.76197,-1.555695 0.18336,-0.365179 0.41179,-0.70959 0.56089,-1.090043 0.0815,-0.207986 0.14159,-0.425487 0.17992,-0.645563 0.0498,-0.28574 0.0682,-0.577799 0.0635,-0.867801 -0.005,-0.301486 -0.0137,-0.609244 -0.0952,-0.899552 -0.078,-0.27803 -0.22417,-0.534132 -0.37041,-0.783137 -0.19978,-0.340171 -0.4329,-0.662039 -0.68789,-0.963049 -0.23218,-0.274075 -0.4823,-0.536569 -0.76197,-0.761974 -0.3657,-0.294744 -0.76794,-0.546494 -1.18529,-0.761971 -0.42899,-0.221484 -0.88136,-0.401848 -1.34404,-0.539731 -0.39648,-0.118155 -0.80711,-0.187565 -1.21704,-0.243409 -0.47665,-0.06493 -0.95848,-0.09031 -1.43928,-0.105828 -0.39843,-0.01286 -0.79871,-0.02374 -1.19587,0.01058 -0.3669,0.03171 -0.73035,0.100964 -1.09005,0.179909 -0.53248,0.116865 -1.05993,0.260759 -1.57686,0.433901 -0.47145,0.15791 -0.93288,0.346459 -1.38636,0.550315 -0.4216,0.189525 -0.83258,0.402738 -1.23821,0.624393 -0.43853,0.239632 -0.86649,0.49849 -1.29112,0.761973 -0.31842,0.197583 -0.63409,0.400045 -0.94188,0.613812 -0.41434,0.287765 -0.82295,0.584619 -1.21704,0.899552 -0.45135,0.360697 -0.88741,0.740844 -1.31229,1.132374 -0.4476,0.412462 -0.8707,0.850765 -1.3017,1.280539 -0.33031,0.32937 -0.66306,0.656501 -0.98422,0.994796 -0.33182,0.349523 -0.65939,0.703467 -0.97363,1.068879 -0.36138,0.420228 -0.71028,0.85143 -1.04771,1.291119 -0.34754,0.45286 -0.67123,0.923536 -1.00538,1.386367 -0.24412,0.338139 -0.51624,0.657987 -0.73022,1.015965 -0.25983,0.4347 -0.45342,0.905878 -0.66673,1.3652 -0.15102,0.325184 -0.30534,0.649517 -0.4339,0.984216 -0.1132,0.294708 -0.22969,0.590963 -0.29632,0.899551 -0.0696,0.322529 -0.0803,0.655237 -0.10583,0.984213 -0.0229,0.295771 -0.0642,0.593119 -0.0423,0.888968 0.0241,0.326344 0.0883,0.652175 0.19049,0.963049 0.0828,0.251858 0.19884,0.494389 0.33865,0.719641 0.16154,0.26026 0.35402,0.503905 0.57148,0.719642 0.20339,0.201781 0.43348,0.378715 0.67731,0.529146 0.31559,0.194705 0.66017,0.340803 1.00538,0.476234 0.31678,0.124278 0.64436,0.221011 0.97363,0.306906 0.35213,0.09186 0.70884,0.169311 1.06888,0.222242 0.45193,0.06644 0.90865,0.104098 1.3652,0.11898 0.52547,0.01713 1.05356,0.01628 1.57686,-0.03432 0.39196,-0.0379 0.77915,-0.118265 1.16413,-0.201078 0.64826,-0.139448 1.28936,-0.312298 1.92609,-0.497398 0.49491,-0.143873 0.98827,-0.295746 1.47104,-0.476231 0.53149,-0.198703 1.05567,-0.419221 1.56627,-0.666727 0.54266,-0.263048 1.07522,-0.549532 1.58745,-0.867804 0.52702,-0.327465 1.03454,-0.68747 1.52394,-1.068877 0.4853,-0.378207 0.95269,-0.780794 1.39695,-1.206457 0.29732,-0.284876 0.57618,-0.589063 0.84664,-0.899552 0.21423,-0.245928 0.41914,-0.500289 0.61381,-0.761971 0.17871,-0.240231 0.33865,-0.493871 0.50798,-0.740807 0.55031,0.303378 1.11118,0.588357 1.65094,0.910135 0.70603,0.420896 1.38657,0.88322 2.07426,1.33345 0.62784,0.411045 1.2612,0.814483 1.87318,1.248788 0.60184,0.427105 1.20561,0.854835 1.76735,1.333453 0.40109,0.341742 0.79437,0.697336 1.1404,1.094739 0.22235,0.255361 0.43364,0.525438 0.59596,0.822592 0.12499,0.228812 0.22436,0.474831 0.28499,0.728407 0.1022,0.427423 0.11941,0.872879 0.127,1.312286 0.009,0.512417 -0.0485,1.024171 -0.0952,1.53453 -0.0321,0.350329 -0.0725,0.700168 -0.127,1.047713 -0.0779,0.496897 -0.18518,0.988794 -0.28574,1.481611 -0.10388,0.50913 -0.17726,1.026694 -0.32807,1.523947 -0.10571,0.348542 -0.40215,1.015963 -0.40215,1.015963 -0.18697,-0.416263 -0.35569,-0.841209 -0.5609,-1.248789 -0.25639,-0.509246 -0.54659,-1.000992 -0.83605,-1.492197 -0.22117,-0.375314 -0.43576,-0.755952 -0.68789,-1.11121 -0.17856,-0.251602 -0.37391,-0.491921 -0.58207,-0.71964 -0.21545,-0.23569 -0.44879,-0.455067 -0.68789,-0.666726 -0.17656,-0.156295 -0.35286,-0.31558 -0.55031,-0.444484 -0.19289,-0.125927 -0.3997,-0.232514 -0.61381,-0.31749 -0.14322,-0.05684 -0.29085,-0.115147 -0.44449,-0.126995 -0.17014,-0.01312 -0.3633,-0.02698 -0.50798,0.0635 -0.2356,0.147337 -0.33902,0.445988 -0.45506,0.698477 -0.13659,0.297193 -0.1997,0.623613 -0.27511,0.941881 -0.11741,0.495536 -0.18533,1.001512 -0.27516,1.502781 -0.0973,0.542896 -0.17321,1.089832 -0.28574,1.629775 -0.0918,0.440582 -0.20331,0.876961 -0.31749,1.312285 -0.0921,0.351062 -0.18876,0.701081 -0.29632,1.047711 -0.0751,0.241854 -0.16227,0.479762 -0.24341,0.719643 -0.16227,-0.07055 -0.32513,-0.13977 -0.48681,-0.211659 -0.23369,-0.103906 -0.44674,-0.2724 -0.69848,-0.31749 -0.28896,-0.05175 -0.59539,-0.01456 -0.87838,0.0635 -0.30264,0.08349 -0.58075,0.248236 -0.84135,0.423317 -0.22725,0.152681 -0.44475,0.328646 -0.6191,0.539732 -0.22182,0.268553 -0.38876,0.582838 -0.52552,0.903183 -0.122,0.285789 -0.19499,0.591555 -0.25762,0.89592 -0.0887,0.430921 -0.14516,0.869936 -0.1657,1.309406 -0.0236,0.505129 0.002,1.012792 0.0493,1.516241 0.062,0.65767 0.17374,1.310822 0.3069,1.957847 0.0947,0.460079 0.21983,0.913657 0.34924,1.3652 0.15399,0.53731 0.31065,1.075078 0.50798,1.598025 0.14555,0.38572 0.31482,0.762744 0.4974,1.132377 0.16013,0.324187 0.52359,0.950007 0.52359,0.950007 -0.93658,-0.0097 -1.87312,-0.0243 -2.80973,-0.02916 z"
       sodipodi:nodetypes="saaaaaaaaaaaaaaaaaaaacaaaaaaaacccssssssssssscsssscsssscssssscsaccsssccssssssssssssssssssssssssssssssssssssscsssscsccssssssssssssccccsssscccccccccccccccccccccccssssccssssssssssssssssscsssssssssccssssssssscsssssssscsssssssscsssssssssssscccccccssssssssssssssssssssssssscccscsssssssssccsssssscssssscsssssssssssssssssscccscsssssscssssssscssssssssssssssssssccsccccccssssscccsssssssssssssssssssssssscccsssssssssssssssssscsssssssccssscssssssssssssssccsssssssscsssscsss" /></g></svg>
