<?xml version="1.0" encoding="UTF-8" standalone="no"?>
<!-- Created with Inkscape (http://www.inkscape.org/) -->

<svg
   width="210mm"
   height="297mm"
   viewBox="0 0 210 297"
   version="1.1"
   id="svg1"
   xml:space="preserve"
   sodipodi:docname="loctite.svg"
   inkscape:version="1.3 (0e150ed6c4, 2023-07-21)"
   xmlns:inkscape="http://www.inkscape.org/namespaces/inkscape"
   xmlns:sodipodi="http://sodipodi.sourceforge.net/DTD/sodipodi-0.dtd"
   xmlns:xlink="http://www.w3.org/1999/xlink"
   xmlns="http://www.w3.org/2000/svg"
   xmlns:svg="http://www.w3.org/2000/svg"><sodipodi:namedview
     id="namedview1"
     pagecolor="#ffffff"
     bordercolor="#000000"
     borderopacity="0.25"
     inkscape:showpageshadow="2"
     inkscape:pageopacity="0.0"
     inkscape:pagecheckerboard="0"
     inkscape:deskcolor="#d1d1d1"
     inkscape:document-units="mm"
     showguides="true"
     inkscape:zoom="1.1576269"
     inkscape:cx="264.7658"
     inkscape:cy="149.01175"
     inkscape:window-width="1920"
     inkscape:window-height="1009"
     inkscape:window-x="1912"
     inkscape:window-y="-8"
     inkscape:window-maximized="1"
     inkscape:current-layer="g20"><sodipodi:guide
       position="151.40052,268.74684"
       orientation="0,-1"
       id="guide1"
       inkscape:locked="false" /><sodipodi:guide
       position="14.122655,235.13979"
       orientation="0,-1"
       id="guide2"
       inkscape:locked="false" /><sodipodi:guide
       position="108.45518,259.71957"
       orientation="0,-1"
       id="guide3"
       inkscape:locked="false" /><sodipodi:guide
       position="120.26213,259.70292"
       orientation="0.93943241,-0.34273421"
       id="guide12"
       inkscape:label=""
       inkscape:locked="false"
       inkscape:color="rgb(0,134,229)" /><sodipodi:guide
       position="109.64309,259.51141"
       orientation="0.93943241,-0.34273421"
       id="guide13"
       inkscape:label=""
       inkscape:locked="false"
       inkscape:color="rgb(0,134,229)" /><sodipodi:guide
       position="104.72275,268.58591"
       orientation="0.93943241,-0.34273421"
       id="guide14"
       inkscape:label=""
       inkscape:locked="false"
       inkscape:color="rgb(0,134,229)" /><sodipodi:guide
       position="128.45022,259.50706"
       orientation="0.93943241,-0.34273421"
       id="guide15"
       inkscape:label=""
       inkscape:locked="false"
       inkscape:color="rgb(0,134,229)" /><sodipodi:guide
       position="101.33143,266.08559"
       orientation="0.93943241,-0.34273421"
       id="guide16"
       inkscape:label=""
       inkscape:locked="false"
       inkscape:color="rgb(0,134,229)" /><sodipodi:guide
       position="96.307246,247.74734"
       orientation="0.93943241,-0.34273421"
       id="guide17"
       inkscape:label=""
       inkscape:locked="false"
       inkscape:color="rgb(0,134,229)" /><sodipodi:guide
       position="42.019632,271.99024"
       orientation="0,1"
       id="guide4"
       inkscape:locked="false"
       inkscape:label=""
       inkscape:color="rgb(255,120,0)" /><sodipodi:guide
       position="35.433863,232.1928"
       orientation="0,1"
       id="guide5"
       inkscape:locked="false"
       inkscape:label=""
       inkscape:color="rgb(230,97,0)" /></sodipodi:namedview><defs
     id="defs1" /><g
     inkscape:label="Layer 1"
     inkscape:groupmode="layer"
     id="layer1"><image
       width="261.84512"
       height="70.922623"
       preserveAspectRatio="none"
       xlink:href="../references/loctite.png"
       id="image1"
       x="-27.649954"
       y="9.4794607"
       style="display:inline" /><rect
       style="fill:#4f72f1;fill-opacity:1;fill-rule:evenodd;stroke:none;stroke-width:0.4;stroke-linecap:round;stroke-opacity:1"
       id="rect9"
       width="251.86945"
       height="106.05029"
       x="-18.741648"
       y="-11.427833" /><g
       id="g20"
       style="fill:#ed1b24;fill-opacity:1;stroke:none;opacity:1"
       inkscape:label="loctite"><g
         id="g9"
         style="fill:#ffffff;fill-opacity:1;stroke:none;opacity:1"><path
           id="path3"
           style="display:inline;opacity:1;fill:#ffffff;fill-opacity:1;fill-rule:evenodd;stroke:none;stroke-width:0.4;stroke-linecap:round;stroke-linejoin:miter;stroke-dasharray:none;stroke-opacity:1"
           inkscape:label="C"
           d="m 91.751364,49.273133 c -0.978412,-0.05971 -2.049545,-0.1221 -2.809958,-0.909852 -0.635212,-0.86104 -0.379495,-2.060696 -0.140625,-3.02539 0.496148,-1.700373 1.991041,-3.371669 3.91211,-3.148438 2.139635,0.380205 4.309919,2.505384 5.76632,4.262211 2.152529,-5.420998 4.268359,-10.969004 6.264009,-16.327661 -3.3626,-3.922969 -8.916105,-5.924128 -14.051814,-5.7158 -7.814091,0.203578 -15.108032,5.305189 -18.397074,12.329147 -2.681648,5.474885 -3.46143,11.958465 -1.783993,17.849639 1.466893,4.773772 5.236731,8.825543 10.015202,10.381671 3.93562,1.37787 8.778522,0.973067 12.751158,-0.208706 1.619065,-4.08885 3.487499,-8.51175 6.866141,-17.934843 -1.686625,1.117039 -6.556287,2.518058 -8.391476,2.448022 z"
           sodipodi:nodetypes="ccccccccccccc" /><path
           style="fill:#ffffff;fill-opacity:1;fill-rule:evenodd;stroke:none;stroke-width:0.4;stroke-linecap:round;stroke-opacity:1"
           d="m 96.564345,64.766798 16.888655,0 9.13119,-24.726937 8.47781,0.06407 5.5018,-15.053765 h -34.18135 l -5.454474,14.736281 h 9.255274 z"
           id="path5"
           sodipodi:nodetypes="ccccccccc" /><path
           id="path2"
           style="opacity:1;fill:#ffffff;fill-opacity:1;fill-rule:evenodd;stroke:none;stroke-width:0.4;stroke-linecap:round;stroke-dasharray:none;stroke-opacity:1"
           inkscape:label="O"
           d="m 56.025391,24.492188 c -7.9215,0.307904 -15.233019,5.625134 -18.423357,12.810581 -2.492476,5.354889 -3.177063,11.622952 -1.555342,17.328681 1.521588,4.935878 5.49595,9.268556 10.602428,10.511298 5.811256,1.665891 12.313727,0.65418 17.322045,-2.740358 3.666288,-2.411408 6.475247,-6.017318 8.058139,-10.099457 2.156167,-5.325986 2.591714,-11.451807 0.727113,-16.925788 C 71.053298,30.601982 67.067552,26.642408 62.154742,25.257842 60.177119,24.649406 58.090529,24.41293 56.025391,24.492188 Z m -0.611329,18.455078 c -0.0098,1.627339 -0.520856,3.258051 -1.476562,4.578125 -0.06901,-1.658544 0.573023,-3.268045 1.474609,-4.632813 z" /><path
           style="fill:#ffffff;fill-opacity:1;fill-rule:evenodd;stroke:none;stroke-width:0.4;stroke-linecap:round;stroke-opacity:1"
           d="m 161.70384,64.795815 29.6485,0 3.55915,-19.913 9.05404,-19.913 -27.11981,0 z"
           id="path9"
           sodipodi:nodetypes="cccccc" /><path
           style="fill:#ffffff;fill-opacity:1;fill-rule:evenodd;stroke:none;stroke-width:0.4;stroke-linecap:round;stroke-opacity:1"
           d="m 118.44949,64.795815 h 17.77028 l 14.57049,-39.826 H 132.9057 Z"
           id="path7"
           sodipodi:nodetypes="ccccc" /><path
           style="fill:#ffffff;fill-opacity:1;fill-rule:evenodd;stroke:none;stroke-width:0.4;stroke-linecap:round;stroke-opacity:1"
           d="m 140.5615,64.766798 h 16.88866 l 9.13119,-24.726937 8.47781,0.06407 5.5018,-15.053765 h -34.18135 l -5.45448,14.736281 h 9.25528 z"
           id="path6"
           sodipodi:nodetypes="ccccccccc" /><path
           style="fill:#ffffff;fill-opacity:1;fill-rule:evenodd;stroke-width:0.4;stroke-linecap:round"
           d="M 2.5073952,64.949305 16.945679,24.970512 h 21.141083 l -8.217948,23.747737 h 10.130643 l -5.494875,16.088952 z"
           id="path1"
           sodipodi:nodetypes="ccccccc" /></g><path
         id="path4"
         style="display:inline;fill:#ed1b24;fill-opacity:1;fill-rule:evenodd;stroke:none;stroke-width:0.4;stroke-linecap:round;stroke-dasharray:none;stroke-opacity:1"
         d="m 14.852731,57.495454 8.463075,-23.321196 h 2.355084 l -7.395437,20.82481 11.492812,-0.0314 -1.004838,2.527787 z M 7.3478629,61.86021 19.484396,28.25316 h 14.475918 l -8.148591,22.60096 10.111162,-0.0314 -3.925142,11.037491 z"
         inkscape:label="L" /><path
         id="path8"
         style="fill:#ed1b24;fill-opacity:1;fill-rule:evenodd;stroke:none;stroke-width:0.4;stroke-linecap:round;stroke-dasharray:none;stroke-opacity:1"
         d="m 51.402137,48.859787 c -0.03259,-0.148255 -0.05462,-0.298853 -0.07216,-0.449631 -0.02658,-0.228503 -0.04163,-0.458428 -0.04996,-0.688321 -0.0098,-0.269971 -0.01069,-0.540508 0,-0.810445 0.0093,-0.233691 0.0243,-0.467642 0.05551,-0.699424 0.03821,-0.283762 0.09658,-0.564764 0.160978,-0.843751 0.06987,-0.302654 0.153196,-0.602291 0.244245,-0.89926 0.08542,-0.278601 0.178666,-0.555051 0.283098,-0.827096 0.108144,-0.281713 0.22512,-0.560399 0.355264,-0.832649 0.100316,-0.209853 0.209833,-0.415526 0.32751,-0.616159 0.165927,-0.282898 0.3425,-0.560053 0.532894,-0.827098 0.140753,-0.197418 0.293324,-0.386404 0.44963,-0.571751 0.133441,-0.158233 0.267284,-0.317094 0.416322,-0.460732 0.161714,-0.155854 0.336114,-0.29883 0.516242,-0.432978 0.145704,-0.108512 0.293564,-0.216778 0.455181,-0.299751 0.1287,-0.06607 0.26636,-0.114853 0.405223,-0.15543 0.141417,-0.04132 0.286137,-0.07679 0.432977,-0.08882 0.142108,-0.01164 0.288232,-0.01426 0.427427,0.01664 0.172438,0.03828 0.338016,0.112873 0.488487,0.205388 0.124122,0.07632 0.23035,0.179748 0.333057,0.283099 0.09536,0.09595 0.183784,0.199711 0.260898,0.310856 0.0921,0.13275 0.168311,0.276437 0.238691,0.421876 0.07484,0.154647 0.140938,0.314076 0.194286,0.477385 0.05686,0.174047 0.09937,0.352954 0.133223,0.532895 0.03242,0.172319 0.05549,0.346803 0.06661,0.521792 0.01033,0.162501 -0.0014,0.325664 0,0.488487 0.0028,0.323843 0.03532,0.648106 0.01664,0.971421 -0.01777,0.307493 -0.07367,0.611742 -0.122121,0.915913 -0.03671,0.230449 -0.07417,0.461186 -0.127672,0.688324 -0.06002,0.254813 -0.141299,0.504177 -0.21649,0.754933 -0.06404,0.213575 -0.123697,0.428795 -0.199835,0.638363 -0.08073,0.222205 -0.174724,0.439542 -0.271999,0.655018 -0.07457,0.165177 -0.156144,0.32715 -0.238691,0.488487 -0.108969,0.212979 -0.221366,0.424274 -0.338611,0.632812 -0.105287,0.187269 -0.206341,0.377691 -0.32751,0.555099 -0.104801,0.153443 -0.227143,0.294184 -0.344159,0.438528 -0.130692,0.161214 -0.260172,0.323729 -0.399672,0.477385 -0.108178,0.119155 -0.218522,0.237019 -0.338611,0.344159 -0.152459,0.136021 -0.311625,0.266121 -0.482936,0.377468 -0.135338,0.08797 -0.280762,0.160178 -0.427424,0.22759 -0.115517,0.0531 -0.232899,0.104276 -0.355264,0.138776 -0.121219,0.03418 -0.246395,0.05629 -0.371916,0.06661 -0.142008,0.01168 -0.285754,0.0096 -0.427427,-0.0056 -0.101386,-0.01089 -0.203766,-0.02664 -0.299752,-0.06106 -0.13012,-0.04665 -0.254417,-0.113197 -0.366365,-0.194286 -0.110219,-0.07984 -0.205174,-0.180162 -0.294204,-0.283099 -0.110175,-0.127385 -0.209357,-0.265285 -0.294201,-0.410774 -0.09967,-0.170916 -0.181205,-0.352859 -0.249795,-0.538445 -0.07594,-0.205482 -0.130581,-0.418786 -0.177618,-0.632744 z m 4.706236,-15.352716 c -0.986805,0.06697 -1.983834,0.258864 -2.898352,0.635594 -0.969596,0.399418 -1.830518,1.039291 -2.655931,1.686085 -0.783855,0.614229 -1.532446,1.291187 -2.157884,2.066128 -0.636726,0.788927 -1.141103,1.683461 -1.592236,2.591373 -0.465472,0.93677 -0.863771,1.914971 -1.13873,2.924227 -0.291835,1.071202 -0.514088,2.177771 -0.532678,3.287859 -0.01823,1.088588 0.153438,2.18279 0.414111,3.239865 0.251824,1.021192 0.540282,2.067167 1.10097,2.957041 0.530439,0.841864 1.261249,1.572855 2.073886,2.147069 0.816972,0.577276 1.74474,1.076436 2.730888,1.244374 1.232645,0.209916 2.541323,0.03144 3.735924,-0.337888 1.504387,-0.46511 2.91636,-1.293481 4.12395,-2.304043 1.155246,-0.966758 2.099533,-2.197534 2.865045,-3.494919 0.720763,-1.221545 1.212437,-2.581417 1.576087,-3.95234 0.314067,-1.184 0.507992,-2.414386 0.509622,-3.639331 0.0012,-0.937955 -0.130819,-1.884234 -0.382805,-2.787708 -0.282734,-1.013719 -0.663451,-2.02576 -1.251333,-2.898663 -0.546423,-0.811344 -1.273219,-1.50855 -2.059402,-2.090593 -0.62544,-0.463038 -1.321286,-0.865693 -2.068952,-1.081503 -0.768596,-0.221853 -1.594042,-0.246795 -2.39218,-0.192627 z m -11.401642,6.151837 c -0.421959,0.830811 -0.672999,1.739763 -0.943095,2.631584 -0.229154,0.756635 -0.44516,1.52129 -0.573065,2.301449 -0.127825,0.779673 -0.187653,1.572409 -0.191695,2.36248 -0.0044,0.852807 0.02036,1.714469 0.180815,2.552056 0.222154,1.159667 0.556005,2.314324 1.073227,3.375767 0.523212,1.073736 1.180785,2.109846 2.020398,2.959381 0.658553,0.666336 1.47131,1.179491 2.302423,1.611866 0.800707,0.416557 1.657531,0.75969 2.544843,0.925007 0.90489,0.168593 1.845683,0.153197 2.760846,0.05458 0.844354,-0.09099 1.676398,-0.311501 2.478022,-0.591878 0.920304,-0.321886 1.828764,-0.713529 2.648233,-1.241773 0.970453,-0.625571 1.8346,-1.416298 2.634266,-2.249156 0.850328,-0.885622 1.630427,-1.851611 2.275817,-2.896052 0.649891,-1.051725 1.2118,-2.174896 1.582988,-3.354177 0.532787,-1.692692 0.89588,-3.473344 0.895045,-5.247905 -8.39e-4,-1.784377 -0.333867,-3.585565 -0.904959,-5.276084 -0.272689,-0.807201 -0.707186,-1.559214 -1.184181,-2.265194 -0.471706,-0.698153 -1.003483,-1.371795 -1.641294,-1.922359 -0.614713,-0.530626 -1.318978,-0.971009 -2.063904,-1.294308 -0.761282,-0.330399 -1.587197,-0.506571 -2.406738,-0.637208 -0.592101,-0.09438 -1.196759,-0.128981 -1.795775,-0.103057 -0.623498,0.02698 -1.241266,0.144392 -1.852914,0.268347 -0.646999,0.131119 -1.296665,0.272757 -1.915876,0.501618 -0.665887,0.246111 -1.299263,0.57836 -1.915877,0.930161 -0.633904,0.361666 -1.258041,0.749915 -1.825421,1.208955 -0.567154,0.458857 -1.095324,0.972109 -1.562798,1.532182 -0.997044,1.194541 -1.914742,2.476428 -2.619331,3.863719 z m 6.728712,23.755578 c -0.316865,-0.0072 -0.633721,-0.02524 -0.949219,-0.05551 -0.375367,-0.03601 -0.75029,-0.08243 -1.121299,-0.149876 -0.364325,-0.06623 -0.723688,-0.158058 -1.082442,-0.249795 -0.391031,-0.09999 -0.781951,-0.202467 -1.165706,-0.32751 -0.307836,-0.100306 -0.611853,-0.213245 -0.910363,-0.338608 -0.248793,-0.104484 -0.489633,-0.227024 -0.732729,-0.344151 -0.312359,-0.150499 -0.631686,-0.288439 -0.932566,-0.460745 -0.397692,-0.227748 -0.778553,-0.485199 -1.149054,-0.754933 -0.274503,-0.199845 -0.540419,-0.412327 -0.793792,-0.638363 -0.335864,-0.299628 -0.650464,-0.622768 -0.960321,-0.949219 -0.264358,-0.278515 -0.526317,-0.560418 -0.766035,-0.860404 -0.194568,-0.243484 -0.370937,-0.501271 -0.543997,-0.760484 -0.198426,-0.297207 -0.388772,-0.600163 -0.566203,-0.910362 -0.17218,-0.301018 -0.334758,-0.607933 -0.482933,-0.921465 -0.156241,-0.330598 -0.297743,-0.66839 -0.427427,-1.010279 -0.133644,-0.352328 -0.25712,-0.709066 -0.360815,-1.071341 -0.09053,-0.316273 -0.15794,-0.638805 -0.227589,-0.960321 -0.06707,-0.309614 -0.129069,-0.620426 -0.183184,-0.932566 -0.06584,-0.379794 -0.127453,-0.760636 -0.17208,-1.143503 -0.04149,-0.355929 -0.0692,-0.713539 -0.08881,-1.07134 -0.02269,-0.414001 -0.03853,-0.828831 -0.03331,-1.24342 0.004,-0.320514 0.03061,-0.640366 0.04996,-0.960321 0.02273,-0.375822 0.04353,-0.751896 0.07771,-1.12685 0.0313,-0.34331 0.06926,-0.686139 0.11657,-1.02761 0.04398,-0.317365 0.100043,-0.632968 0.155427,-0.948542 0.06606,-0.376389 0.127867,-0.753849 0.210939,-1.126852 0.09473,-0.42535 0.210009,-0.845993 0.327507,-1.265624 0.141736,-0.506194 0.27833,-1.014848 0.455181,-1.509868 0.178614,-0.499955 0.392363,-0.987043 0.610611,-1.471012 0.208195,-0.461676 0.429077,-0.91799 0.666117,-1.365541 0.184653,-0.348639 0.380798,-0.691455 0.588404,-1.026933 0.30543,-0.493555 0.625846,-0.978419 0.965872,-1.448808 0.309648,-0.428365 0.636957,-0.844291 0.976974,-1.248973 0.37504,-0.446365 0.752781,-0.893007 1.171258,-1.29893 0.297773,-0.28884 0.63096,-0.538796 0.949219,-0.804894 0.37714,-0.315328 0.744389,-0.643542 1.137952,-0.938117 0.377582,-0.282613 0.77435,-0.539029 1.171257,-0.79379 0.306044,-0.19644 0.613366,-0.391952 0.932567,-0.5662 0.511355,-0.279142 1.035359,-0.536761 1.570929,-0.766038 0.513452,-0.219809 1.040099,-0.409165 1.570929,-0.582853 0.42418,-0.138792 0.854025,-0.261458 1.28783,-0.366366 0.431014,-0.104234 0.866717,-0.190186 1.304481,-0.260895 0.461974,-0.07462 0.927161,-0.130803 1.393298,-0.17208 0.411609,-0.03645 0.824672,-0.06228 1.237869,-0.06661 0.338774,-0.0036 0.677705,0.01208 1.015831,0.03331 0.41915,0.02632 0.838072,0.06228 1.254524,0.11657 0.409325,0.05336 0.817138,0.121032 1.221216,0.205386 0.35847,0.07483 0.714197,0.164065 1.06579,0.266449 0.387635,0.11288 0.774237,0.232964 1.149053,0.383016 0.484115,0.193809 0.9514,0.428342 1.415502,0.66612 0.220409,0.112924 0.43794,0.232012 0.649465,0.360812 0.362495,0.220726 0.71568,0.457186 1.060241,0.704977 0.289065,0.207881 0.575934,0.420393 0.843749,0.655016 0.295248,0.258656 0.564931,0.54532 0.838199,0.827098 0.219673,0.226514 0.441994,0.451399 0.643914,0.693872 0.255522,0.30684 0.489245,0.631703 0.716077,0.960322 0.185741,0.26909 0.363727,0.54401 0.527343,0.827098 0.196301,0.33964 0.371439,0.691289 0.543999,1.043585 0.142402,0.290725 0.280173,0.584004 0.40522,0.882605 0.104735,0.250097 0.200229,0.504169 0.288653,0.760487 0.113751,0.329736 0.21847,0.662829 0.310854,0.999177 0.09069,0.330202 0.162536,0.665323 0.238693,0.999178 0.04843,0.212304 0.103042,0.423557 0.138774,0.638363 0.04738,0.284815 0.0694,0.573293 0.09992,0.860404 0.0224,0.21073 0.04024,0.42192 0.06106,0.632812 0.01991,0.20173 0.04701,0.402834 0.06106,0.605057 0.01681,0.241986 0.02392,0.484639 0.02775,0.727178 0.0045,0.283072 -7.35e-4,0.566237 -0.0056,0.849302 -0.0057,0.333139 -0.01118,0.666403 -0.02776,0.999178 -0.01284,0.25754 -0.03343,0.514673 -0.05551,0.771586 -0.02389,0.277909 -0.05017,0.555685 -0.08327,0.832649 -0.03347,0.280096 -0.07155,0.559726 -0.11657,0.8382 -0.04234,0.261894 -0.09102,0.522803 -0.144325,0.782687 -0.06746,0.32892 -0.143809,0.655999 -0.222041,0.982525 -0.101843,0.425075 -0.198008,0.852014 -0.321955,1.271178 -0.127428,0.430936 -0.27802,0.854905 -0.432978,1.276725 -0.105686,0.287693 -0.224113,0.570552 -0.338611,0.854853 -0.111291,0.276339 -0.215472,0.555827 -0.338608,0.827096 -0.172726,0.380516 -0.364302,0.752416 -0.56065,1.121298 -0.190764,0.358392 -0.38847,0.7134 -0.599508,1.060241 -0.198741,0.32663 -0.411127,0.644928 -0.627261,0.960319 -0.224095,0.327007 -0.447228,0.65552 -0.693873,0.965872 -0.261866,0.329504 -0.551327,0.636162 -0.832649,0.949219 -0.253828,0.282462 -0.502309,0.570424 -0.771586,0.8382 -0.276773,0.275231 -0.570477,0.533192 -0.865954,0.788239 -0.318522,0.274939 -0.643301,0.543003 -0.976974,0.799343 -0.245967,0.188961 -0.500686,0.366333 -0.754933,0.543997 -0.227163,0.158738 -0.452175,0.321249 -0.688324,0.466283 -0.315475,0.193753 -0.643684,0.366247 -0.971423,0.538445 -0.327444,0.172043 -0.656394,0.342072 -0.993624,0.494038 -0.453293,0.204267 -0.914869,0.390932 -1.382197,0.56065 -0.476858,0.17318 -0.959396,0.332637 -1.448808,0.466283 -0.373277,0.101932 -0.753249,0.178082 -1.132401,0.255344 -0.394388,0.08037 -0.789092,0.162243 -1.187913,0.21649 -0.305591,0.04157 -0.614087,0.05807 -0.921462,0.08326 -0.251482,0.02061 -0.50265,0.05108 -0.754935,0.05551 -0.81213,0.01425 -1.176985,0.0097 -1.604171,0 z"
         sodipodi:nodetypes="aaaaaaaaaaaaaaaaaaaaaaaaaaaaaaaaaaaaaaaaaaaaaaaaaaaaaaaaaaaaaaaaaaaaaaaaaaaaaaaaaaaaaaaaaaaaaaaaaaasaaaaaaaaaaaaaaaaaaaaaaaaaaaaaaaaaaaaaaaaaaaaaaaaaaaaaaaaaaaaaaaaaaaaaaaaaaaaaaaaaaaaaaaaaaaaaaass"
         inkscape:label="O" /><path
         id="path10"
         style="display:inline;fill:#ed1b24;fill-opacity:1;fill-rule:evenodd;stroke:none;stroke-width:0.4;stroke-linecap:round;stroke-linejoin:miter;stroke-dasharray:none;stroke-opacity:1"
         d="m 87.169056,56.105956 -0.863531,2.22948 c 0,0 -0.399749,-0.04578 -0.598289,-0.07783 -0.240923,-0.03889 -0.482719,-0.07715 -0.718852,-0.138774 -0.298935,-0.07801 -0.591479,-0.18052 -0.879832,-0.291428 -0.377354,-0.14514 -0.755174,-0.295044 -1.110197,-0.488487 -0.334826,-0.182438 -0.65281,-0.3972 -0.95477,-0.630036 -0.273432,-0.210839 -0.523007,-0.451461 -0.771589,-0.691097 -0.23129,-0.222966 -0.468149,-0.443055 -0.668893,-0.693875 -0.217418,-0.271654 -0.3917,-0.575461 -0.574527,-0.871503 -0.134161,-0.217239 -0.269084,-0.434847 -0.383018,-0.663345 -0.15742,-0.315709 -0.287872,-0.644562 -0.413549,-0.974196 -0.117984,-0.309457 -0.230666,-0.621755 -0.319181,-0.940893 -0.09312,-0.335738 -0.159297,-0.678665 -0.22204,-1.021381 -0.06098,-0.33308 -0.115306,-0.667883 -0.149876,-1.004729 -0.04352,-0.424028 -0.0652,-0.85053 -0.07216,-1.276728 -0.0076,-0.466352 -0.0023,-0.933793 0.03331,-1.398847 0.04941,-0.645553 0.132284,-1.289505 0.249793,-1.926193 0.127802,-0.692455 0.292373,-1.379212 0.494038,-2.053866 0.173992,-0.582074 0.37878,-1.156028 0.616162,-1.715254 0.286154,-0.674122 0.609324,-1.334038 0.97142,-1.9706 0.240054,-0.422012 0.51885,-0.82106 0.793792,-1.221219 0.198065,-0.28827 0.402073,-0.57272 0.616159,-0.849299 0.234925,-0.303501 0.469105,-0.609227 0.732732,-0.888159 0.366955,-0.388259 0.768864,-0.743055 1.176809,-1.087993 0.360617,-0.30492 0.732256,-0.598248 1.121298,-0.865955 0.38926,-0.267857 0.795335,-0.511943 1.210115,-0.73828 0.409712,-0.223572 0.828283,-0.433398 1.260075,-0.610608 0.367016,-0.150625 0.744678,-0.276561 1.12685,-0.383019 0.324805,-0.09048 0.655203,-0.16282 0.988076,-0.21649 0.334273,-0.0539 0.672296,-0.0852 1.010279,-0.105468 0.350976,-0.02105 0.703192,-0.02544 1.054688,-0.01664 0.337385,0.0084 0.675176,0.02654 1.010279,0.06661 0.171563,0.02052 0.342337,0.04994 0.510691,0.08882 0.213965,0.04942 0.632812,0.183184 0.632812,0.183184 l -0.754933,2.126027 c 0,0 -0.334207,-0.09997 -0.50514,-0.133223 -0.216046,-0.04203 -0.435452,-0.06799 -0.655018,-0.08326 -0.297208,-0.02067 -0.596012,-0.02283 -0.893707,-0.01111 -0.345328,0.0136 -0.692127,0.03442 -1.032483,0.09437 -0.386309,0.06805 -0.766047,0.175046 -1.137952,0.299752 -0.434271,0.145618 -0.861769,0.316414 -1.271178,0.521792 -0.337532,0.169322 -0.656681,0.374202 -0.971423,0.582854 -0.282559,0.187317 -0.553138,0.39242 -0.821544,0.599508 -0.224911,0.173529 -0.447782,0.350246 -0.660569,0.538446 -0.280356,0.247962 -0.55645,0.502233 -0.810443,0.777137 -0.25789,0.279122 -0.489562,0.581674 -0.72163,0.882607 -0.224884,0.291618 -0.441875,0.589539 -0.649465,0.89371 -0.154797,0.226815 -0.30526,0.456941 -0.444079,0.693872 -0.154835,0.264266 -0.296384,0.536306 -0.432977,0.810446 -0.16097,0.323065 -0.318189,0.648583 -0.455181,0.982522 -0.164158,0.40016 -0.309601,0.808358 -0.438526,1.221219 -0.102746,0.329029 -0.190863,0.662869 -0.266449,0.999177 -0.08539,0.37994 -0.148231,0.764717 -0.210936,1.149054 -0.05056,0.309914 -0.100231,0.620293 -0.133226,0.932566 -0.03118,0.295109 -0.04457,0.591866 -0.06106,0.888159 -0.01451,0.260729 -0.03319,0.521556 -0.03331,0.782688 -1.18e-4,0.266679 0.0112,0.533582 0.03331,0.799343 0.02597,0.312195 0.06232,0.624024 0.116572,0.932564 0.04765,0.271001 0.11152,0.539231 0.183182,0.804894 0.09846,0.36501 0.202082,0.729899 0.338611,1.082442 0.09656,0.249339 0.210567,0.492446 0.338609,0.727178 0.107919,0.197841 0.231634,0.387091 0.360814,0.571754 0.147443,0.21077 0.306338,0.413697 0.471835,0.610608 0.18539,0.22058 0.3683,0.44603 0.582853,0.638363 0.196211,0.175891 0.419588,0.319402 0.638363,0.466283 0.187595,0.125947 0.379647,0.245779 0.577302,0.355264 0.200511,0.111067 0.40719,0.211114 0.616162,0.305303 0.196724,0.08867 0.391627,0.186376 0.599506,0.244245 0.194886,0.05425 0.399233,0.06583 0.599506,0.09437 0.173589,0.02474 0.346765,0.05612 0.521793,0.06661 0.157634,0.0094 0.473737,-0.0034 0.473737,-0.0034 z m 3.373088,6.82003 c -0.23545,0.05289 -0.472975,0.09631 -0.710525,0.138774 -0.284176,0.0508 -0.568631,0.101177 -0.854853,0.138776 -0.293169,0.03851 -0.587821,0.06572 -0.882605,0.08882 -0.32887,0.02577 -0.658233,0.05067 -0.988076,0.05551 -0.414578,0.0061 -0.8294,-0.011 -1.243422,-0.03331 -0.480111,-0.02588 -0.960266,-0.05976 -1.437706,-0.11657 -0.29573,-0.03519 -0.590195,-0.08229 -0.882606,-0.138776 C 83.177005,62.988637 82.81436,62.903528 82.454358,62.809417 82.155829,62.731376 81.85906,62.645697 81.5662,62.548519 81.232805,62.43789 80.902939,62.315894 80.578124,62.182156 80.313187,62.073072 80.050959,61.956497 79.795433,61.826892 79.509487,61.681857 79.230698,61.522446 78.957236,61.355058 78.551925,61.106964 78.152087,60.84846 77.769326,60.566819 77.511891,60.377395 77.270728,60.16673 77.025492,59.961759 76.85333,59.817864 76.67982,59.675267 76.514801,59.523233 76.354102,59.37518 76.195584,59.224103 76.048518,59.062501 75.845841,58.839792 75.666015,58.597303 75.476767,58.363075 75.269914,58.107058 75.050421,57.860383 74.860608,57.591489 74.642079,57.281916 74.450586,56.953773 74.261102,56.625617 74.11415,56.37112 73.975386,56.111736 73.844777,55.848478 73.716351,55.58962 73.593562,55.327613 73.483962,55.060239 c -0.123216,-0.300589 -0.229165,-0.60811 -0.333057,-0.915913 -0.115291,-0.341574 -0.228813,-0.684219 -0.321959,-1.032484 -0.08966,-0.335222 -0.16218,-0.675047 -0.227591,-1.01583 -0.06394,-0.3331 -0.115742,-0.668578 -0.160978,-1.004729 -0.04096,-0.304372 -0.0745,-0.609852 -0.09992,-0.915914 -0.03222,-0.387867 -0.0555,-0.776662 -0.06661,-1.165706 -0.01452,-0.508633 -0.01374,-1.017867 0,-1.526522 0.0093,-0.342685 0.02683,-0.685324 0.05551,-1.026932 0.03553,-0.42312 0.08719,-0.844877 0.144325,-1.265624 0.06074,-0.447334 0.126875,-0.894246 0.210939,-1.337789 0.08435,-0.445048 0.187357,-0.886494 0.2942,-1.326684 0.0975,-0.40169 0.198491,-0.802837 0.316408,-1.199015 0.140712,-0.472764 0.295594,-0.941612 0.466283,-1.404398 0.147913,-0.401035 0.308878,-0.797515 0.482936,-1.187913 0.153327,-0.343899 0.321989,-0.680904 0.494038,-1.01583 0.161538,-0.314465 0.330888,-0.624964 0.50514,-0.932567 0.155785,-0.275005 0.312702,-0.54969 0.482936,-0.815993 0.291642,-0.456225 0.597989,-0.903551 0.921461,-1.337789 0.268094,-0.359897 0.552052,-0.708091 0.843751,-1.049137 0.214551,-0.250847 0.438331,-0.493837 0.666118,-0.732729 0.256422,-0.268923 0.518928,-0.532228 0.788241,-0.788241 0.356062,-0.338479 0.710044,-0.681032 1.093544,-0.988076 0.422802,-0.33851 0.877117,-0.636058 1.326687,-0.938114 0.357038,-0.239886 0.716252,-0.477474 1.087993,-0.693876 0.311169,-0.181141 0.631435,-0.346726 0.954768,-0.505139 0.322752,-0.158128 0.65216,-0.302544 0.982525,-0.44408 0.348683,-0.149383 0.698793,-0.296142 1.054687,-0.427423 0.362319,-0.133651 0.727317,-0.261882 1.099098,-0.366366 0.436863,-0.122774 0.881353,-0.218112 1.326684,-0.305306 0.386294,-0.07564 0.775624,-0.136015 1.165707,-0.188732 0.322776,-0.04362 0.646631,-0.08102 0.971423,-0.105469 0.482001,-0.03628 0.96545,-0.06359 1.448808,-0.06106 0.492862,0.0026 0.986236,0.02772 1.476562,0.07771 0.417058,0.04252 0.830788,0.1147 1.24342,0.188733 0.305036,0.05473 0.609552,0.114199 0.910363,0.188733 0.323428,0.08014 0.643159,0.175393 0.960321,0.27755 0.304712,0.09815 0.607314,0.203729 0.904811,0.321958 0.345691,0.137382 0.687155,0.286322 1.021382,0.449628 0.315387,0.154101 0.623678,0.322945 0.927015,0.499589 0.288812,0.168185 0.575647,0.341027 0.8493,0.532894 0.253669,0.177854 0.495609,0.372384 0.732739,0.571754 0.29163,0.24519 0.84746,0.767003 0.84746,0.767003 L 97.2722,42.040734 c 0,0 -0.219964,-0.271437 -0.340869,-0.397233 -0.148789,-0.154808 -0.305545,-0.302691 -0.471834,-0.438528 -0.204396,-0.166966 -0.418904,-0.322798 -0.643914,-0.460732 -0.232838,-0.142732 -0.477056,-0.267817 -0.727181,-0.377468 -0.228902,-0.100347 -0.46515,-0.184988 -0.704974,-0.255344 -0.29677,-0.08706 -0.598925,-0.159721 -0.904812,-0.205386 -0.350477,-0.05232 -0.705981,-0.06913 -1.060238,-0.07772 -0.299757,-0.0073 -0.600692,-0.0054 -0.899261,0.0222 -0.28927,0.02678 -0.577674,0.07199 -0.860401,0.138776 -0.288759,0.06821 -0.5758,0.151421 -0.849302,0.266446 -0.267082,0.112325 -0.521307,0.255671 -0.766037,0.410774 -0.210056,0.133127 -0.408177,0.285212 -0.599507,0.444079 -0.244774,0.203243 -0.488028,0.411696 -0.699423,0.649465 -0.197955,0.222652 -0.363937,0.472515 -0.527344,0.72163 -0.15056,0.22953 -0.293479,0.465043 -0.416324,0.710525 -0.141024,0.281811 -0.25877,0.575317 -0.366366,0.871506 -0.105114,0.289354 -0.196757,0.584086 -0.271997,0.882605 -0.07006,0.277982 -0.126684,0.559858 -0.166529,0.843751 -0.04904,0.349382 -0.07951,0.702003 -0.08882,1.054687 -0.0078,0.296094 -0.0082,0.594145 0.02775,0.888159 0.04588,0.375732 0.119022,0.75109 0.238694,1.110197 0.09789,0.293759 0.225252,0.580682 0.38857,0.843751 0.156838,0.252631 0.349876,0.484121 0.560649,0.693872 0.125971,0.12536 0.270412,0.231604 0.416325,0.33306 0.186023,0.129346 0.379054,0.250711 0.582853,0.349711 0.261811,0.12718 0.537416,0.22651 0.815993,0.310856 0.286979,0.08689 0.580812,0.153512 0.877057,0.199835 0.297259,0.04648 0.598705,0.06395 0.899261,0.07771 0.351199,0.01608 0.703263,0.01564 1.054687,0.0056 0.296509,-0.0085 0.592576,-0.03058 0.888156,-0.05551 0.296666,-0.02502 0.594226,-0.04704 0.888159,-0.09437 0.267299,-0.04304 0.53199,-0.103074 0.793792,-0.172079 0.228628,-0.06026 0.453789,-0.133599 0.677219,-0.210939 0.142235,-0.04923 0.286115,-0.09599 0.421876,-0.160978 0.108344,-0.05187 0.311203,-0.181685 0.311203,-0.181685 l -4.364098,11.929621 c 0,0 -0.56015,0.150856 -0.843069,0.214408 z"
         sodipodi:nodetypes="acaaaaaaaaaaaaaaaaaaaaaaaaaaaaaaaaccaaaaaaaaaaaaaaaaaaaaaaaaaaaaaaaaaaacaaaaaaaaaaaaaaaaaaaaaaaaaaaaaaaaaaaaaaaaaaaaaaaaaaaaaaaaaaaaaaaccaaaaaaaaaaaaaaaaaaaaaaaaaaaaaaaaaaccca"
         inkscape:label="C" /><path
         style="display:inline;fill:#ed1b24;fill-opacity:1;fill-rule:evenodd;stroke:none;stroke-width:0.4;stroke-linecap:round;stroke-linejoin:miter;stroke-dasharray:none;stroke-opacity:1"
         d="m 100.75156,61.86021 8.96747,-24.579779 h -8.231 l 3.29343,-9.027271 h 27.03972 l -3.29343,9.027271 h -8.25955 c 0,0 -8.96747,24.579779 -8.96747,24.579779 z"
         id="path17"
         inkscape:label="T" /><path
         style="fill:#ed1b24;fill-opacity:1;fill-rule:evenodd;stroke:none;stroke-width:0.4;stroke-linecap:round;stroke-linejoin:miter;stroke-dasharray:none;stroke-opacity:1"
         d="m 144.90449,61.86021 8.96747,-24.579779 h -8.231 l 3.29343,-9.027271 h 27.03972 l -3.29343,9.027271 h -8.25955 c 0,0 -8.96747,24.579779 -8.96747,24.579779 z"
         id="path18"
         inkscape:label="T" /><path
         style="fill:#ed1b24;fill-opacity:1;fill-rule:evenodd;stroke:none;stroke-width:0.4;stroke-linecap:round;stroke-linejoin:miter;stroke-dasharray:none;stroke-opacity:1"
         d="m 122.95176,61.86021 12.2609,-33.60705 c 0,0 10.54917,0 10.54917,0 l -12.2609,33.60705 z"
         id="path19"
         inkscape:label="I" /><path
         style="fill:#ed1b24;fill-opacity:1;fill-rule:evenodd;stroke:none;stroke-width:0.4;stroke-linecap:round;stroke-linejoin:miter;stroke-dasharray:none;stroke-opacity:1"
         d="m 166.36275,61.86021 12.37156,-33.60705 h 19.34581 l -3.36333,9.027271 h -9.49192 l -1.98024,5.458045 h 9.50019 l -1.70325,4.795573 h -9.59528 l -1.79834,5.130435 h 9.55807 l -3.40238,9.195726 z"
         id="path20"
         sodipodi:nodetypes="ccccccccccccc"
         inkscape:label="E" /></g><image
       width="261.84512"
       height="70.922623"
       preserveAspectRatio="none"
       xlink:href="../references/loctite.png"
       id="image20"
       x="-27.649954"
       y="86.55999"
       style="display:inline" /></g></svg>
