<?xml version="1.0" encoding="UTF-8" standalone="no"?>
<!-- Created with Inkscape (http://www.inkscape.org/) -->

<svg
   width="72.954132mm"
   height="30.937241mm"
   viewBox="0 0 72.954132 30.937241"
   version="1.1"
   id="svg5"
   xml:space="preserve"
   inkscape:version="1.2.2 (732a01da63, 2022-12-09)"
   sodipodi:docname="logo.svg"
   inkscape:export-filename="gr_4.tiff"
   inkscape:export-xdpi="498"
   inkscape:export-ydpi="498"
   xmlns:inkscape="http://www.inkscape.org/namespaces/inkscape"
   xmlns:sodipodi="http://sodipodi.sourceforge.net/DTD/sodipodi-0.dtd"
   xmlns="http://www.w3.org/2000/svg"
   xmlns:svg="http://www.w3.org/2000/svg"><sodipodi:namedview
     id="namedview7"
     pagecolor="#ffffff"
     bordercolor="#666666"
     borderopacity="1.0"
     inkscape:showpageshadow="2"
     inkscape:pageopacity="0.0"
     inkscape:pagecheckerboard="0"
     inkscape:deskcolor="#d1d1d1"
     inkscape:document-units="mm"
     showgrid="false"
     showguides="false"
     inkscape:zoom="1.5215742"
     inkscape:cx="864.89375"
     inkscape:cy="291.14585"
     inkscape:window-width="1846"
     inkscape:window-height="1057"
     inkscape:window-x="1986"
     inkscape:window-y="-8"
     inkscape:window-maximized="1"
     inkscape:current-layer="layer1"><sodipodi:guide
       position="-128.93438,59.032812"
       orientation="-0.84926938,-0.52795978"
       id="guide6127"
       inkscape:locked="false"
       inkscape:label=""
       inkscape:color="rgb(0,134,229)" /><sodipodi:guide
       position="-128.93665,64.645572"
       orientation="-0.84926936,-0.5279598"
       id="guide9398"
       inkscape:label=""
       inkscape:locked="false"
       inkscape:color="rgb(0,134,229)" /><sodipodi:guide
       position="-123.27181,77.397883"
       orientation="0,-1"
       id="guide10540"
       inkscape:locked="false" /><sodipodi:guide
       position="-142.53751,59.036862"
       orientation="0,-1"
       id="guide10542"
       inkscape:locked="false" /><sodipodi:guide
       position="-124.44158,71.245403"
       orientation="0,1"
       id="guide10544"
       inkscape:locked="false"
       inkscape:label=""
       inkscape:color="rgb(0,0,0)" /><sodipodi:guide
       position="-52.003336,71.778653"
       orientation="0,1"
       id="guide10546"
       inkscape:locked="false"
       inkscape:label=""
       inkscape:color="rgb(0,0,0)" /><sodipodi:guide
       position="-98.347874,72.985313"
       orientation="0,1"
       id="guide10548"
       inkscape:label=""
       inkscape:locked="false"
       inkscape:color="rgb(0,0,0)" /><sodipodi:guide
       position="-75.027036,71.982113"
       orientation="0,1"
       id="guide10550"
       inkscape:label=""
       inkscape:locked="false"
       inkscape:color="rgb(0,0,0)" /><sodipodi:guide
       position="-87.914439,75.476033"
       orientation="0,1"
       id="guide10552"
       inkscape:label=""
       inkscape:locked="false"
       inkscape:color="rgb(0,0,0)" /><sodipodi:guide
       position="-74.132326,58.241472"
       orientation="0,1"
       id="guide10554"
       inkscape:label=""
       inkscape:locked="false"
       inkscape:color="rgb(0,134,229)" /><sodipodi:guide
       position="-67.153576,70.482623"
       orientation="0,1"
       id="guide10556"
       inkscape:label=""
       inkscape:locked="false"
       inkscape:color="rgb(0,134,229)" /><sodipodi:guide
       position="-75.153256,59.801472"
       orientation="0,1"
       id="guide10558"
       inkscape:label=""
       inkscape:locked="false"
       inkscape:color="rgb(0,134,229)" /><sodipodi:guide
       position="-157.18354,69.253613"
       orientation="0,1"
       id="guide10560"
       inkscape:label=""
       inkscape:locked="false"
       inkscape:color="rgb(0,134,229)" /><sodipodi:guide
       position="-122.32429,82.874683"
       orientation="0,-1"
       id="guide10562"
       inkscape:locked="false" /><sodipodi:guide
       position="-22.809585,-37.650699"
       orientation="0,-1"
       id="guide1300"
       inkscape:locked="false" /><sodipodi:guide
       position="6.7197451,-41.993969"
       orientation="0,-1"
       id="guide1302"
       inkscape:locked="false" /><sodipodi:guide
       position="1.121245,-38.747779"
       orientation="0,-1"
       id="guide1304"
       inkscape:locked="false" /><sodipodi:guide
       position="1.889675,-39.767119"
       orientation="0,-1"
       id="guide1306"
       inkscape:locked="false" /><sodipodi:guide
       position="2.234675,-41.021679"
       orientation="0,-1"
       id="guide1308"
       inkscape:locked="false" /><sodipodi:guide
       position="-72.795156,-67.620369"
       orientation="0,-1"
       id="guide1383"
       inkscape:locked="false" /><sodipodi:guide
       position="-93.447643,-80.231869"
       orientation="0,-1"
       id="guide1493"
       inkscape:locked="false" /><sodipodi:guide
       position="-25.499375,-53.092329"
       orientation="1,0"
       id="guide1557"
       inkscape:locked="false" /><sodipodi:guide
       position="-10.006095,-62.832629"
       orientation="1,0"
       id="guide1559"
       inkscape:locked="false" /><sodipodi:guide
       position="-21.418505,-64.937369"
       orientation="1,0"
       id="guide1561"
       inkscape:locked="false" /><sodipodi:guide
       position="-13.981735,-65.732499"
       orientation="1,0"
       id="guide1563"
       inkscape:locked="false" /><sodipodi:guide
       position="-83.498396,-95.561372"
       orientation="1,0"
       id="guide1617"
       inkscape:locked="false" /><sodipodi:guide
       position="-40.503605,-70.822829"
       orientation="0,-1"
       id="guide1619"
       inkscape:locked="false" /><sodipodi:guide
       position="-33.326775,-73.700179"
       orientation="0,-1"
       id="guide1621"
       inkscape:locked="false" /><sodipodi:guide
       position="-31.210115,-77.139759"
       orientation="0,-1"
       id="guide1623"
       inkscape:locked="false" /><sodipodi:guide
       position="-266.71514,23.976512"
       orientation="0,-1"
       id="guide1681"
       inkscape:locked="false" /><sodipodi:guide
       position="-250.69567,15.136572"
       orientation="0,-1"
       id="guide1683"
       inkscape:locked="false" /><sodipodi:guide
       position="-256.93975,22.105632"
       orientation="0,-1"
       id="guide1687"
       inkscape:locked="false" /><sodipodi:guide
       position="-256.90467,20.404292"
       orientation="0,-1"
       id="guide1689"
       inkscape:locked="false" /><sodipodi:guide
       position="-250.61584,18.705552"
       orientation="0,-1"
       id="guide1691"
       inkscape:locked="false" /><sodipodi:guide
       position="1.321975,21.056222"
       orientation="0,-1"
       id="guide1073"
       inkscape:locked="false" /><inkscape:grid
       type="xygrid"
       id="grid1075" /><sodipodi:guide
       position="19.751225,15.790642"
       orientation="0,-1"
       id="guide5342"
       inkscape:locked="false" /></sodipodi:namedview><defs
     id="defs2"><inkscape:path-effect
       effect="fillet_chamfer"
       id="path-effect1059"
       is_visible="true"
       lpeversion="1"
       nodesatellites_param="F,0,0,1,0,0,0,1 @ F,0,0,1,0,0,0,1 @ F,0,0,1,0,0,0,1 @ F,0,0,1,0,0,0,1 @ F,0,0,1,0,0,0,1 @ F,0,0,1,0,0,0,1 @ F,0,0,1,0,0,0,1 @ F,0,0,1,0,0,0,1 @ F,0,0,1,0,0,0,1 @ F,0,0,1,0,0,0,1 @ F,0,0,1,0,0,0,1 @ F,0,0,1,0,0,0,1 | F,0,0,1,0,0,0,1 @ F,0,0,1,0,0,0,1 @ F,0,0,1,0,0,0,1 @ F,0,1,1,0,0.714375,0,1 @ F,0,0,1,0,0,0,1"
       unit="px"
       method="auto"
       mode="F"
       radius="2.7"
       chamfer_steps="1"
       flexible="false"
       use_knot_distance="true"
       apply_no_radius="true"
       apply_with_radius="true"
       only_selected="true"
       hide_knots="false" /><inkscape:path-effect
       effect="fillet_chamfer"
       id="path-effect1023"
       is_visible="true"
       lpeversion="1"
       nodesatellites_param="F,0,0,1,0,0,0,1 @ F,0,0,1,0,0,0,1 @ F,0,0,1,0,0,0,1 @ F,0,1,1,0,0.030413352,0,1 @ F,0,1,1,0,0.030413352,0,1 @ F,0,0,1,0,0,0,1 @ F,0,0,1,0,0,0,1 @ F,0,0,1,0,0,0,1 @ F,0,0,1,0,0,0,1 @ F,0,0,1,0,0,0,1 @ F,0,0,1,0,0,0,1 @ F,0,0,1,0,0,0,1 | F,0,0,1,0,0,0,1 @ F,0,0,1,0,0,0,1 @ F,0,0,1,0,0,0,1 @ F,0,0,1,0,0.714375,0,1 @ F,0,0,1,0,0,0,1"
       unit="px"
       method="auto"
       mode="F"
       radius="2.7"
       chamfer_steps="1"
       flexible="false"
       use_knot_distance="true"
       apply_no_radius="true"
       apply_with_radius="true"
       only_selected="true"
       hide_knots="false" /></defs><g
     inkscape:label="Laag 1"
     inkscape:groupmode="layer"
     id="layer1"
     transform="translate(-185.49526,-78.024301)"><g
       id="g8325"
       inkscape:label="root"
       transform="matrix(0.8323247,0,0,0.8323247,102.71829,16.189741)"
       style="display:inline"><g
         id="g4433"
         inkscape:label="back"
         inkscape:export-filename=".\back.svg"
         inkscape:export-xdpi="498"
         inkscape:export-ydpi="498"><g
           id="g1017"
           inkscape:label="Nintendo"
           style="fill:#c24f44;fill-opacity:1;stroke:none"
           transform="matrix(0.49330145,0,0,0.49330145,79.149903,58.727636)"><path
             style="fill:#c24f44;fill-opacity:1;stroke:none;stroke-width:0.264583px;stroke-linecap:butt;stroke-linejoin:miter;stroke-opacity:1"
             d="M 42.957757,49.924689 V 31.564466 l 5.664841,-0.01427 7.936018,12.765778 v 0 -12.752315 0 h 5.66484 v 0 18.365075 0 h -5.662567 v 0 L 48.641992,37.190494 V 49.93287 Z"
             id="path999"
             sodipodi:nodetypes="cccccccccccccccc"
             inkscape:label="N" /><circle
             style="fill:#c24f44;fill-opacity:1;fill-rule:evenodd;stroke:none;stroke-width:0.55;stroke-linecap:round;stroke-linejoin:round;stroke-dasharray:none;stroke-opacity:0.706625;paint-order:markers fill stroke"
             id="circle1001"
             cx="170.86026"
             cy="34.563908"
             r="2.5541768"
             inkscape:label="(R)" /><path
             id="path1003"
             style="fill:#c24f44;fill-opacity:1;stroke:none;stroke-width:0.264583px;stroke-linecap:butt;stroke-linejoin:miter;stroke-opacity:1"
             d="m 65.313326,31.557764 0.0026,3.839042 h 5.662187 v -3.839042 z m 0,6.167065 c 0,4.067944 -2.16e-4,8.135963 0.0026,12.203906 h 5.662187 V 37.724829 Z"
             inkscape:label="i" /><path
             style="fill:#c24f44;fill-opacity:1;stroke:none;stroke-width:0.264583px;stroke-linecap:butt;stroke-linejoin:miter;stroke-opacity:1"
             d="m 90.0987,43.866451 v 6.272758 -0.210475 h -5.662567 v 0 c -0.0028,-2.669695 -0.0023,-5.154965 -0.0023,-7.719698 0,-1.751862 -1.072697,-2.503247 -2.548863,-2.503247 -1.476166,0 -2.149861,1.153 -2.482717,1.839957 v 8.382988 0 0 0 0 h -5.662567 v 0 c -0.0028,-4.067947 -0.0023,-8.135895 -0.0023,-12.203843 h 2.7e-5 v 0 h 5.66484 v 0 0 1.284389 c 0,0 1.692055,-1.802498 4.541949,-1.802498 2.849895,0 6.154498,1.76524 6.154498,6.659669 z"
             id="path1005"
             sodipodi:nodetypes="sccccszccccccccccccccczs"
             inkscape:label="n" /><path
             id="path1007"
             style="fill:#c24f44;fill-opacity:1;stroke:none;stroke-width:0.264583px;stroke-linecap:butt;stroke-linejoin:miter;stroke-opacity:1"
             inkscape:label="t"
             d="m 92.955566,33.491496 c 0,0.610037 -10e-7,1.693075 0,2.464966 H 90.04515 l 0.0026,1.771984 h 2.908349 c 7.8e-5,4.221705 -2.3e-5,9.180924 0.0021,12.200289 h 5.662187 V 37.728446 h 2.860804 v -1.771984 h -2.860804 v -2.464966 z" /><path
             id="path1009"
             style="fill:#c24f44;fill-opacity:1;stroke:none;stroke-width:0.265;stroke-linecap:butt;stroke-linejoin:miter;stroke-dasharray:none;stroke-opacity:1"
             d="m 162.12292,36.909375 c -4.71252,0 -8.15569,3.256274 -8.16849,6.812504 -0.0128,3.556231 3.26226,6.947476 8.16849,6.912756 4.90624,-0.03472 7.95062,-3.415036 7.93802,-6.912756 -0.0126,-3.497719 -3.22549,-6.812504 -7.93802,-6.812504 z m -0.15089,1.542542 c 1.22404,-7.3e-5 2.21638,1.091977 2.2164,2.439127 v 5.682857 c -2e-5,1.34715 -0.99236,2.439201 -2.2164,2.439128 -1.22406,7.9e-5 -2.21639,-1.091974 -2.21641,-2.439128 v -5.682857 c 2e-5,-1.347154 0.99236,-2.439206 2.21641,-2.439127 z"
             inkscape:label="o" /><path
             id="path1011"
             style="fill:#c24f44;fill-opacity:1;stroke:none;stroke-width:0.265;stroke-linecap:butt;stroke-linejoin:miter;stroke-dasharray:none;stroke-opacity:1"
             d="m 117.02166,43.872 c -0.0126,-3.497719 -3.22549,-6.962625 -7.93802,-6.962625 -4.71252,0 -8.15569,3.256274 -8.16849,6.812504 -0.0128,3.556231 3.26226,6.947476 8.16849,6.912756 3.69647,-0.303058 6.4431,-1.676189 7.67605,-4.925365 l -5.61054,-0.04003 v 0.904661 c -2e-5,1.34715 -0.99236,2.439201 -2.2164,2.439128 -1.22406,7.9e-5 -2.21639,-1.091974 -2.21641,-2.439128 V 43.872 Z m -10.30532,-1.875856 v -1.1051 c 2e-5,-1.347154 0.99236,-2.439206 2.21641,-2.439127 1.22404,-7.3e-5 2.21638,1.091977 2.2164,2.439127 v 1.1051 z"
             sodipodi:nodetypes="csscccccccccccccc"
             inkscape:label="e" /><path
             style="fill:#c24f44;fill-opacity:1;stroke:none;stroke-width:0.264583px;stroke-linecap:butt;stroke-linejoin:miter;stroke-opacity:1"
             d="m 134.94557,43.866451 v 6.272758 -0.210475 h -5.66256 v 0 c -0.003,-2.669695 -0.002,-5.154965 -0.002,-7.719698 0,-1.751862 -1.0727,-2.503247 -2.54887,-2.503247 -1.47616,0 -2.14986,1.153 -2.48271,1.839957 v 8.382988 0 0 0 0 h -5.66257 v 0 c -0.003,-4.067947 -0.002,-8.135895 -0.002,-12.203843 h 3e-5 v 0 h 5.66484 v 0 0 1.284389 c 0,0 1.69205,-1.802498 4.54195,-1.802498 2.84989,0 6.15449,1.76524 6.15449,6.659669 z"
             id="path1013"
             sodipodi:nodetypes="sccccszccccccccccccccczs"
             inkscape:label="n" /><path
             id="path1015"
             style="display:inline;fill:#c24f44;fill-opacity:1;stroke:none;stroke-width:0.265;stroke-linecap:butt;stroke-linejoin:miter;stroke-dasharray:none;stroke-opacity:1"
             d="m 146.60087,31.551046 c 0,1.497137 3.9e-4,4.209299 5.2e-4,6.763411 -0.80408,-0.688384 -1.95487,-1.101225 -3.5848,-1.101225 -3.14564,0 -6.40179,2.952421 -6.41459,6.508647 -0.0128,3.556228 2.81491,6.632153 6.60166,6.632153 1.55728,0 2.64329,-0.410036 3.40031,-1.054716 1e-4,0.153307 -1.1e-4,0.4901 0,0.629419 h 5.66219 V 31.551046 Z m -2.22105,7.625891 c 1.22404,-7.3e-5 2.21638,1.091979 2.2164,2.439127 v 4.326351 c -2e-5,1.347149 -0.99236,2.439201 -2.2164,2.439128 -1.22406,7.9e-5 -2.21638,-1.091975 -2.2164,-2.439128 v -4.326351 c 2e-5,-1.347152 0.99235,-2.439206 2.2164,-2.439127 z"
             inkscape:label="d" /></g><g
           id="g1063"
           inkscape:label="controller"
           transform="matrix(0.71778501,0,0,0.71778501,28.067055,24.379664)"><path
             id="path1194"
             style="display:inline;fill:#c24f44;fill-opacity:1;fill-rule:evenodd;stroke:none;stroke-width:0.2;stroke-linecap:round;stroke-linejoin:round;stroke-opacity:1;paint-order:markers fill stroke"
             inkscape:label="C"
             d="m 116.46033,94.888681 c 1.30561,0 2.35645,-1.05084 2.35645,-2.35645 v -4.099892 c 0,-1.3056 -1.05084,-2.35696 -2.35645,-2.35696 h -5.16216 c -1.30561,0 -2.35645,1.05136 -2.35645,2.35696 v 4.099892 c 0,1.30561 1.05084,2.35645 2.35645,2.35645 z m -0.39791,-1.9265 c 0.45052,0 0.81339,-0.36287 0.81339,-0.81339 v -3.390892 c 0,-0.45051 -0.36287,-0.81338 -0.81339,-0.81338 h -4.36634 c -0.45052,0 -0.81339,0.36287 -0.81339,0.81338 v 3.390892 c 0,0.45052 0.36287,0.81339 0.81339,0.81339 z"
             sodipodi:nodetypes="cssccsscccssccsscc" /><path
             id="path1055"
             style="display:inline;fill:#c24f44;fill-opacity:1;fill-rule:evenodd;stroke:none;stroke-width:0.2;stroke-linecap:round;stroke-linejoin:round;paint-order:markers fill stroke"
             d="m 189.27475,86.074965 v 8.839775 h 2.27997 v -2.60088 h 5.08289 v 2.60088 h 2.35076 v -1.97559 c 0,-0.70036 -0.3025,-1.32763 -0.78444,-1.75855 0.48189,-0.430926 0.78444,-1.057721 0.78444,-1.758035 v -0.990637 c 0,-1.305604 -1.05135,-2.356963 -2.35696,-2.356963 -2.45221,-8e-6 -4.90444,-5e-5 -7.35666,0 z m 2.27997,2.062924 c 1.45816,0.02738 2.91659,0 4.37493,0 0.39221,0 0.70796,0.315753 0.70796,0.707967 v 0.630762 a 0.71699392,0.71699392 134.89517 0 1 -0.71437,0.716989 l -4.36852,0.01599 z"
             inkscape:path-effect="#path-effect1059"
             inkscape:original-d="m 189.27475,86.074965 v 8.839775 h 2.27997 v -2.60088 h 5.08289 v 2.60088 h 2.35076 v -1.97559 c 0,-0.70036 -0.3025,-1.32763 -0.78444,-1.75855 0.48189,-0.430926 0.78444,-1.057721 0.78444,-1.758035 v -0.990637 c 0,-1.305604 -1.05135,-2.356963 -2.35696,-2.356963 -2.45221,-8e-6 -4.90444,-5e-5 -7.35666,0 z m 2.27997,2.062924 c 1.45816,0.02738 2.91659,0 4.37493,0 0.39221,0 0.70796,0.315753 0.70796,0.707967 v 1.345137 l -5.08289,0.0186 z"
             inkscape:label="R" /><path
             id="path1025"
             style="display:inline;fill:#c24f44;fill-opacity:1;fill-rule:evenodd;stroke:none;stroke-width:0.2;stroke-linecap:round;stroke-linejoin:round;paint-order:markers fill stroke"
             d="m 136.18581,94.914905 h -2.22209 v -6.80535 h -3.24218 v -2.03459 h 8.60723 v 2.03446 c -1.0697,0 -2.07326,-5e-5 -3.14296,1.3e-4 z"
             sodipodi:nodetypes="ccscccccc"
             inkscape:label="T" /><path
             id="path1019"
             style="display:inline;fill:#c24f44;fill-opacity:1;fill-rule:evenodd;stroke:none;stroke-width:0.2;stroke-linecap:round;stroke-linejoin:round;paint-order:markers fill stroke"
             d="m 140.34387,86.074989 v 8.83977 h 2.27996 v -2.570457 a 0.03041335,0.03041335 135 0 1 0.0304,-0.03041 h 5.02208 a 0.03041335,0.03041335 45 0 1 0.0304,0.03041 v 2.570457 h 2.35076 v -1.97559 c 0,-0.70035 -0.30251,-1.32762 -0.78445,-1.75855 0.48189,-0.43092 0.78445,-1.05772 0.78445,-1.75803 v -0.99064 c 0,-1.3056 -1.05136,-2.35696 -2.35696,-2.35696 -2.45222,-1e-5 -4.90444,-5e-5 -7.35666,0 z m 2.27996,2.06292 c 1.45817,0.0274 2.9166,0 4.37493,0 0.39222,0 0.70797,0.31576 0.70797,0.70797 v 0.630765 a 0.71699392,0.71699392 134.89517 0 1 -0.71437,0.716989 l -4.36853,0.01599 z"
             inkscape:path-effect="#path-effect1023"
             inkscape:original-d="m 140.34387,86.074989 v 8.83977 h 2.27996 v -2.60087 h 5.0829 v 2.60087 h 2.35076 v -1.97559 c 0,-0.70035 -0.30251,-1.32762 -0.78445,-1.75855 0.48189,-0.43092 0.78445,-1.05772 0.78445,-1.75803 v -0.99064 c 0,-1.3056 -1.05136,-2.35696 -2.35696,-2.35696 -2.45222,-1e-5 -4.90444,-5e-5 -7.35666,0 z m 2.27996,2.06292 c 1.45817,0.0274 2.9166,0 4.37493,0 0.39222,0 0.70797,0.31576 0.70797,0.70797 v 1.34514 l -5.0829,0.0186 z"
             inkscape:label="R" /><path
             id="path1053"
             style="display:inline;fill:#c24f44;fill-opacity:1;fill-rule:evenodd;stroke:none;stroke-width:0.2;stroke-linecap:round;stroke-linejoin:round;stroke-dasharray:none;stroke-opacity:1;paint-order:markers fill stroke"
             d="m 179.45556,86.074965 v 6.38721 c 0,1.3056 1.05084,2.35644 2.35644,2.35644 h 6.23062 v -1.97972 l -5.72211,7e-5 c -0.29225,1e-5 -0.52919,-0.23691 -0.52906,-0.52916 1e-4,-0.24531 2.6e-4,-0.49063 3.9e-4,-0.73595 7e-5,-0.15119 0.12166,-0.27285 0.27285,-0.27285 h 5.67391 v -1.65365 h -5.67391 c -0.15119,0 -0.27285,-0.12166 -0.27285,-0.27285 v -1.15577 c 0,-0.15119 0.12166,-0.27285 0.27285,-0.27285 h 5.97793 v -1.87092 z"
             sodipodi:nodetypes="cssccccsccsssscccc"
             inkscape:label="E" /><path
             id="path1051"
             style="display:inline;fill:#c24f44;fill-opacity:1;fill-rule:evenodd;stroke:none;stroke-width:0.2;stroke-linecap:round;stroke-linejoin:round;paint-order:markers fill stroke"
             d="m 101.80919,86.074965 c -1.30561,0 -2.356446,1.05136 -2.356446,2.35696 v 4.100306 c 0,1.30561 1.050836,2.35645 2.356446,2.35645 h 6.11745 v -1.9265 h -5.71954 c -0.45052,0 -0.81339,-0.36287 -0.81339,-0.81339 v -3.391306 c 0,-0.45051 0.36287,-0.81338 0.81339,-0.81338 h 5.71954 v -1.86914 z"
             sodipodi:nodetypes="ssssccssssccs"
             inkscape:label="C" /><path
             id="path1045"
             style="display:inline;fill:#c24f44;fill-opacity:1;fill-rule:evenodd;stroke:none;stroke-width:0.2;stroke-linecap:round;stroke-linejoin:round;paint-order:markers fill stroke"
             d="m 161.96275,86.074965 v 6.387167 c 0,1.30561 1.05084,2.35645 2.35644,2.35645 h 5.26635 v -1.9265 h -4.73253 c -0.45051,0 -0.81287,-0.36287 -0.81287,-0.81339 v -6.003727 z"
             sodipodi:nodetypes="cssccsscc"
             inkscape:label="L" /><path
             id="rect2204"
             style="display:inline;fill:#c24f44;fill-opacity:1;fill-rule:evenodd;stroke:none;stroke-width:0.2;stroke-linecap:round;stroke-linejoin:round;paint-order:markers fill stroke"
             d="m 170.60064,86.074965 v 6.387167 c 0,1.30561 1.05084,2.35645 2.35644,2.35645 h 5.26635 v -1.9265 h -4.73253 c -0.45051,0 -0.81287,-0.36287 -0.81287,-0.81339 v -6.003727 z"
             sodipodi:nodetypes="cssccsscc"
             inkscape:label="L" /><path
             id="path1246"
             style="display:inline;fill:#c24f44;fill-opacity:1;fill-rule:evenodd;stroke:none;stroke-width:0.2;stroke-linecap:round;stroke-linejoin:round;stroke-opacity:1;paint-order:markers fill stroke"
             inkscape:label="C"
             d="m 158.5912,94.888681 c 1.30561,0 2.35645,-1.05084 2.35645,-2.35645 v -4.100306 c 0,-1.3056 -1.05084,-2.35696 -2.35645,-2.35696 h -5.16216 c -1.30561,0 -2.35645,1.05136 -2.35645,2.35696 v 4.100306 c 0,1.30561 1.05084,2.35645 2.35645,2.35645 z m -0.39791,-1.9265 c 0.45052,0 0.81339,-0.36287 0.81339,-0.81339 v -3.391306 c 0,-0.45051 -0.36287,-0.81338 -0.81339,-0.81338 h -4.36634 c -0.45052,0 -0.81339,0.36287 -0.81339,0.81338 v 3.391306 c 0,0.45052 0.36287,0.81339 0.81339,0.81339 z"
             sodipodi:nodetypes="cssccsscccssccsscc" /><path
             id="path1248"
             style="display:inline;fill:#c24f44;fill-opacity:1;fill-rule:evenodd;stroke:none;stroke-width:0.2;stroke-linecap:round;stroke-linejoin:round;stroke-opacity:1;paint-order:markers fill stroke"
             inkscape:label="C"
             d="m 119.83186,86.074811 v 8.81387 h 1.94102 V 87.94403 h 5.17949 c 0.45052,0 0.81308,0.36257 0.81308,0.81308 v 6.131571 h 1.94101 v -6.456803 c 0,-1.305599 -1.05059,-2.357067 -2.3562,-2.357067 z"
             sodipodi:nodetypes="ccccssccssc" /></g><g
           aria-label="MODEL NO. : NES-004"
           id="text3338"
           style="font-size:8.38443px;line-height:1.25;font-family:'Futura BQ';-inkscape-font-specification:'Futura BQ';letter-spacing:0px;word-spacing:0px;fill:#c24f44;stroke-width:0.209612"><path
             d="m 101.8969,97.630245 h -1.32474 l -0.830059,5.919405 h 1.232509 l 0.31023,-2.71655 c 0.0335,-0.28507 0.0671,-0.57014 0.0922,-0.855215 0.008,-0.22638 0.0168,-0.444375 0.0168,-0.670754 0.0503,0.184457 0.0922,0.36053 0.15092,0.536603 0.0671,0.251536 0.15092,0.494686 0.24315,0.737826 l 1.07321,2.96809 h 0.8049 l 0.98098,-2.78363 c 0.16769,-0.49468 0.327,-0.997746 0.46953,-1.500812 0,0.201227 0,0.402453 0.008,0.603679 0.0168,0.276683 0.0503,0.553373 0.0755,0.830063 l 0.35215,2.8507 h 1.24928 l -0.83844,-5.919405 h -1.31636 l -0.82167,2.330871 c -0.10061,0.301844 -0.20961,0.603684 -0.31023,0.905514 -0.0838,0.28508 -0.16768,0.56176 -0.25153,0.84683 -0.0419,-0.16769 -0.0838,-0.33538 -0.13415,-0.50306 -0.109,-0.36053 -0.23476,-0.7043 -0.35215,-1.05644 z"
             id="path4887" /><path
             d="m 110.22264,97.479325 c -1.25767,0 -2.39795,0.670754 -2.87586,1.861343 -0.23477,0.578526 -0.25153,1.106742 -0.25153,1.333122 0,1.37505 0.76298,2.12126 1.1822,2.43149 0.77137,0.57014 1.67689,0.59529 1.97873,0.59529 1.27443,0 2.38956,-0.56175 2.89262,-1.78588 0.23477,-0.56176 0.25154,-1.04806 0.25154,-1.28282 0,-1.056438 -0.46115,-1.76073 -0.71268,-2.062569 -0.60368,-0.712677 -1.36666,-0.930672 -1.69365,-1.006132 -0.33538,-0.07546 -0.65399,-0.08384 -0.77137,-0.08384 z m 0.0419,1.232511 c 0.7546,-0.0084 1.23251,0.43599 1.4002,0.637217 0.41084,0.486297 0.44438,1.031287 0.44438,1.257667 0,0.57014 -0.22638,1.14866 -0.67914,1.51758 -0.19285,0.1593 -0.51984,0.36891 -1.10675,0.36891 -0.77975,0 -1.49243,-0.3773 -1.79427,-1.12351 -0.14253,-0.33538 -0.15092,-0.62883 -0.15092,-0.76298 -0.008,-0.830061 0.49469,-1.324743 0.72106,-1.500816 0.44438,-0.36053 0.98098,-0.394068 1.16544,-0.394068 z"
             id="path4889" /><path
             d="m 114.25555,97.630245 v 5.919405 h 1.38343 c 0.81329,0 1.62658,-0.0251 2.30572,-0.56175 0.41084,-0.31861 1.06482,-1.12352 1.06482,-2.46503 0,-0.31022 -0.0251,-0.922284 -0.43599,-1.601423 -0.14253,-0.243149 -0.41922,-0.670755 -1.05644,-0.972594 -0.66237,-0.30184 -1.35827,-0.318608 -2.06257,-0.318608 z m 1.2912,1.031284 c 0.65399,-0.0084 1.17382,0.04192 1.56789,0.352147 0.62045,0.486296 0.63722,1.333124 0.63722,1.542734 0,0.94744 -0.41922,1.45051 -0.7546,1.67689 -0.42761,0.28507 -0.96421,0.28507 -1.45051,0.27668 z"
             id="path4891" /><path
             d="m 119.8312,97.630245 v 5.919405 h 3.35377 v -1.1822 h -2.07096 v -1.26605 h 2.02903 v -1.148668 h -2.02903 v -1.173821 h 2.07934 v -1.148666 z"
             id="path4893" /><path
             d="m 124.38394,97.630245 v 5.919405 h 3.31185 v -1.16543 h -2.02065 v -4.753975 z"
             id="path4895" /><path
             d="m 130.68065,97.630245 v 5.919405 h 1.21574 l -0.0587,-2.83394 c -0.008,-0.21799 -0.0168,-0.4276 -0.0252,-0.6456 -0.008,-0.23476 -0.0335,-0.477909 -0.0503,-0.721057 0.0922,0.150919 0.18445,0.310224 0.27668,0.461143 0.16769,0.268304 0.35215,0.536604 0.53661,0.796524 l 2.06257,2.94293 h 1.14866 v -5.919405 h -1.20735 l 0.0251,2.414715 c 0.008,0.2683 0.008,0.5366 0.0251,0.80491 0.008,0.36053 0.0419,0.72106 0.0755,1.08159 -0.19284,-0.40246 -0.36891,-0.74622 -0.87198,-1.47566 l -1.98711,-2.825555 z"
             id="path4897" /><path
             d="m 139.74421,97.479325 c -1.25766,0 -2.39794,0.670754 -2.87586,1.861343 -0.23476,0.578526 -0.25153,1.106742 -0.25153,1.333122 0,1.37505 0.76299,2.12126 1.18221,2.43149 0.77136,0.57014 1.67688,0.59529 1.97872,0.59529 1.27444,0 2.38956,-0.56175 2.89263,-1.78588 0.23476,-0.56176 0.25153,-1.04806 0.25153,-1.28282 0,-1.056438 -0.46114,-1.76073 -0.71267,-2.062569 -0.60368,-0.712677 -1.36667,-0.930672 -1.69366,-1.006132 -0.33538,-0.07546 -0.65398,-0.08384 -0.77137,-0.08384 z m 0.0419,1.232511 c 0.7546,-0.0084 1.23251,0.43599 1.4002,0.637217 0.41083,0.486297 0.44437,1.031287 0.44437,1.257667 0,0.57014 -0.22638,1.14866 -0.67914,1.51758 -0.19284,0.1593 -0.51983,0.36891 -1.10674,0.36891 -0.77975,0 -1.49243,-0.3773 -1.79427,-1.12351 -0.14254,-0.33538 -0.15092,-0.62883 -0.15092,-0.76298 -0.008,-0.830061 0.49468,-1.324743 0.72106,-1.500816 0.44438,-0.36053 0.98098,-0.394068 1.16544,-0.394068 z"
             id="path4899" /><path
             d="m 143.81067,103.49935 c 0.13415,0.13415 0.3186,0.20961 0.51145,0.20961 0.39407,0 0.72106,-0.31861 0.72106,-0.72106 0,-0.39407 -0.31861,-0.72107 -0.72106,-0.72107 -0.38569,0 -0.72106,0.31861 -0.72106,0.72107 0,0.2683 0.14253,0.43599 0.20961,0.51145 z"
             id="path4901" /><path
             d="m 148.55625,101.1014 c 0.13415,0.13415 0.31861,0.21799 0.51145,0.21799 0.38569,0 0.72106,-0.3186 0.72106,-0.72106 0,-0.39407 -0.31861,-0.721058 -0.72106,-0.721058 -0.39407,0 -0.72106,0.310228 -0.72106,0.721058 0,0.2683 0.14254,0.43599 0.20961,0.50307 z m 0,2.38118 c 0.13415,0.13415 0.31861,0.21799 0.51145,0.21799 0.38569,0 0.72106,-0.31861 0.72106,-0.72106 0,-0.40245 -0.31861,-0.72106 -0.72106,-0.72106 -0.39407,0 -0.72106,0.31022 -0.72106,0.71268 0,0.27668 0.14254,0.44437 0.20961,0.51145 z"
             id="path4903" /><path
             d="m 152.86585,97.630245 v 5.919405 h 1.21574 l -0.0587,-2.83394 c -0.008,-0.21799 -0.0168,-0.4276 -0.0251,-0.6456 -0.008,-0.23476 -0.0335,-0.477909 -0.0503,-0.721057 0.0922,0.150919 0.18446,0.310224 0.27668,0.461143 0.16769,0.268304 0.35215,0.536604 0.53661,0.796524 l 2.06257,2.94293 h 1.14867 v -5.919405 h -1.20736 l 0.0251,2.414715 c 0.008,0.2683 0.008,0.5366 0.0251,0.80491 0.008,0.36053 0.0419,0.72106 0.0755,1.08159 -0.19284,-0.40246 -0.36891,-0.74622 -0.87198,-1.47566 l -1.98711,-2.825555 z"
             id="path4905" /><path
             d="m 159.31347,97.630245 v 5.919405 h 3.35377 v -1.1822 h -2.07095 v -1.26605 h 2.02903 v -1.148668 h -2.02903 v -1.173821 h 2.07934 v -1.148666 z"
             id="path4907" /><path
             d="m 167.18645,98.267461 c -0.0922,-0.100613 -0.35214,-0.402452 -0.73783,-0.58691 -0.40245,-0.184457 -0.83844,-0.209611 -0.97259,-0.209611 -0.29346,0 -1.11513,0.04192 -1.63496,0.788137 -0.10062,0.15092 -0.30184,0.477912 -0.30184,0.972594 0,0.73783 0.44437,1.157049 0.65398,1.324739 0.25992,0.20123 0.55337,0.36053 0.85521,0.51145 0.22638,0.10061 0.61207,0.25992 0.77137,0.50307 0.0671,0.10061 0.10061,0.20961 0.10061,0.33537 0,0.40246 -0.33537,0.68753 -0.72106,0.68753 -0.48629,0 -0.82167,-0.3773 -1.09836,-0.68753 l -0.85521,0.93906 c 0.10061,0.10061 0.47791,0.49468 0.94744,0.67075 0.40245,0.15092 0.87198,0.16769 0.99775,0.16769 0.1593,0 0.6456,-0.0168 1.08159,-0.25153 0.20961,-0.109 0.36053,-0.25153 0.41922,-0.31022 0.20961,-0.19285 0.57014,-0.61207 0.57014,-1.3499 0,-0.70429 -0.34376,-1.06482 -0.57014,-1.25766 -0.23476,-0.19284 -0.40245,-0.29346 -0.96421,-0.536605 -0.28507,-0.134151 -0.83844,-0.343762 -0.84682,-0.804905 0,-0.335378 0.29345,-0.544988 0.61206,-0.544988 0.49468,0 0.8049,0.469528 0.87198,0.561757 z"
             id="path4909" /><path
             d="m 168.0752,100.95048 v 0.99775 h 2.47341 v -0.99775 z"
             id="path4911" /><path
             d="m 173.34063,97.496094 c -0.71268,0.0084 -1.1319,0.326992 -1.3499,0.528219 -0.44437,0.419221 -0.83844,1.182204 -0.83844,2.599177 0,0.24314 0,1.24928 0.44437,2.03741 0.36053,0.63722 0.94744,1.01452 1.68527,1.01452 0.22638,0 0.41923,-0.0419 0.50307,-0.0587 0.14254,-0.0335 0.30184,-0.0838 0.43599,-0.15092 0.29346,-0.15092 0.47791,-0.36053 0.55337,-0.45276 0.0755,-0.0839 0.24315,-0.27669 0.36892,-0.56176 0.33538,-0.70429 0.36053,-1.63496 0.36053,-1.81942 0,-0.23476 -0.0168,-0.46953 -0.0419,-0.695907 -0.15931,-1.274434 -0.6456,-1.903266 -1.15706,-2.196721 -0.39406,-0.234764 -0.81328,-0.243148 -0.9642,-0.243148 z m -0.008,1.17382 c 0.66237,-0.0084 0.95583,0.779752 0.95583,1.928416 0,0.45276 -0.0503,1.15705 -0.30184,1.54274 -0.218,0.33538 -0.49468,0.36053 -0.6456,0.36053 -0.13416,0 -0.3773,-0.0168 -0.58691,-0.2683 -0.23477,-0.27669 -0.36892,-0.79652 -0.36892,-1.60143 0,-0.922287 0.17607,-1.542735 0.50307,-1.802652 0.17607,-0.15092 0.35214,-0.159304 0.44437,-0.159304 z"
             id="path4913" /><path
             d="m 178.22875,97.496094 c -0.71268,0.0084 -1.1319,0.326992 -1.3499,0.528219 -0.44437,0.419221 -0.83844,1.182204 -0.83844,2.599177 0,0.24314 0,1.24928 0.44438,2.03741 0.36053,0.63722 0.94744,1.01452 1.68527,1.01452 0.22638,0 0.41922,-0.0419 0.50306,-0.0587 0.14254,-0.0335 0.30184,-0.0838 0.43599,-0.15092 0.29346,-0.15092 0.47792,-0.36053 0.55338,-0.45276 0.0755,-0.0839 0.24314,-0.27669 0.36891,-0.56176 0.33538,-0.70429 0.36053,-1.63496 0.36053,-1.81942 0,-0.23476 -0.0168,-0.46953 -0.0419,-0.695907 -0.15931,-1.274434 -0.6456,-1.903266 -1.15705,-2.196721 -0.39407,-0.234764 -0.81329,-0.243148 -0.96421,-0.243148 z m -0.008,1.17382 c 0.66237,-0.0084 0.95583,0.779752 0.95583,1.928416 0,0.45276 -0.0503,1.15705 -0.30184,1.54274 -0.218,0.33538 -0.49468,0.36053 -0.6456,0.36053 -0.13415,0 -0.3773,-0.0168 -0.58691,-0.2683 -0.23477,-0.27669 -0.36892,-0.79652 -0.36892,-1.60143 0,-0.922287 0.17608,-1.542735 0.50307,-1.802652 0.17607,-0.15092 0.35214,-0.159304 0.44437,-0.159304 z"
             id="path4915" /><path
             d="m 184.57576,97.630245 h -1.08997 l -2.54887,3.571765 v 1.1319 h 2.49856 v 1.21574 h 1.14028 v -1.21574 h 0.73783 v -1.07321 h -0.73783 z m -1.71042,2.540485 c 0.12576,-0.201229 0.25153,-0.394071 0.36891,-0.595298 0.11738,-0.192842 0.22638,-0.394068 0.327,-0.595294 -0.0252,0.125766 -0.0503,0.259917 -0.0587,0.385684 -0.0252,0.201226 -0.0335,0.410837 -0.0419,0.612063 -0.008,0.435995 -0.008,0.863595 -0.008,1.299585 h -1.34151 z"
             id="path4917" /></g><g
           aria-label="MADE IN JAPAN"
           transform="matrix(1.2014542,0,0,1.2014542,-123.41132,-19.451232)"
           id="text3346"
           style="font-size:6.73123px;line-height:1.25;font-family:'Futura BQ';-inkscape-font-specification:'Futura BQ';letter-spacing:0px;word-spacing:0px;fill:#c24f44;stroke-width:0.168281"><path
             d="m 187.36921,104.12179 h -1.06353 l -0.6664,4.75225 h 0.98949 l 0.24906,-2.18092 c 0.0269,-0.22886 0.0539,-0.45772 0.074,-0.68659 0.007,-0.18174 0.0135,-0.35675 0.0135,-0.53849 0.0404,0.14808 0.074,0.28944 0.12116,0.4308 0.0539,0.20193 0.12116,0.39714 0.1952,0.59234 l 0.8616,2.38286 h 0.6462 l 0.78755,-2.23477 c 0.13463,-0.39714 0.26252,-0.80102 0.37695,-1.20489 0,0.16155 0,0.3231 0.007,0.48465 0.0135,0.22213 0.0404,0.44426 0.0606,0.66639 l 0.28272,2.28862 h 1.00295 l -0.67312,-4.75225 h -1.05681 l -0.65966,1.87128 c -0.0808,0.24233 -0.16828,0.48465 -0.24905,0.72698 -0.0673,0.22886 -0.13463,0.45099 -0.20194,0.67985 -0.0337,-0.13463 -0.0673,-0.26925 -0.1077,-0.40387 -0.0875,-0.28945 -0.18847,-0.56543 -0.28271,-0.84814 z"
             id="path4920" /><path
             d="m 193.41385,104.12179 -1.86455,4.75225 h 1.10392 l 0.35003,-0.96257 h 1.97225 l 0.37022,0.96257 h 1.11738 l -1.95206,-4.75225 z m -0.0875,2.89443 c 0.11443,-0.30964 0.22213,-0.61927 0.32983,-0.92891 0.0808,-0.22886 0.2154,-0.61254 0.26925,-0.8414 0.0202,-0.0942 0.0336,-0.19521 0.0471,-0.28945 0.0471,0.32983 0.0942,0.48465 0.30964,1.09719 0.11443,0.31637 0.23559,0.63947 0.35003,0.96257 z"
             id="path4922" /><path
             d="m 196.87371,104.12179 v 4.75225 h 1.11065 c 0.65293,0 1.30586,-0.0202 1.85109,-0.45099 0.32983,-0.25579 0.85486,-0.90199 0.85486,-1.97899 0,-0.24905 -0.0202,-0.74043 -0.35002,-1.28566 -0.11443,-0.19521 -0.33656,-0.5385 -0.84814,-0.78082 -0.53176,-0.24233 -1.09046,-0.25579 -1.65588,-0.25579 z m 1.0366,0.82794 c 0.52504,-0.007 0.94238,0.0337 1.25874,0.28271 0.49812,0.39041 0.51158,1.07027 0.51158,1.23855 0,0.76063 -0.33656,1.1645 -0.60581,1.34625 -0.3433,0.22886 -0.77409,0.22886 -1.16451,0.22213 z"
             id="path4924" /><path
             d="m 201.34997,104.12179 v 4.75225 h 2.69249 v -0.9491 h -1.66261 v -1.01642 h 1.62896 v -0.92218 h -1.62896 v -0.94237 h 1.66934 v -0.92218 z"
             id="path4926" /><path
             d="m 207.56963,104.12179 h -1.03661 v 4.75225 h 1.03661 z"
             id="path4928" /><path
             d="m 208.66009,104.12179 v 4.75225 h 0.97602 l -0.0471,-2.27516 c -0.007,-0.17501 -0.0135,-0.34329 -0.0202,-0.5183 -0.007,-0.18848 -0.0269,-0.38368 -0.0404,-0.57889 0.074,0.12116 0.14809,0.24906 0.22214,0.37022 0.13462,0.2154 0.28271,0.4308 0.43079,0.63947 l 1.65589,2.36266 h 0.92217 v -4.75225 h -0.96929 l 0.0202,1.93859 c 0.007,0.2154 0.007,0.4308 0.0202,0.6462 0.007,0.28945 0.0336,0.57889 0.0606,0.86833 -0.15482,-0.3231 -0.29618,-0.59908 -0.70005,-1.1847 l -1.5953,-2.26842 z"
             id="path4930" /><path
             d="m 217.6732,104.12179 h -1.01641 v 3.13675 c -0.007,0.33657 -0.0135,0.54523 -0.13463,0.6664 -0.0606,0.0606 -0.13462,0.0875 -0.22213,0.0875 -0.23559,0 -0.38368,-0.17501 -0.45099,-0.37695 -0.0202,-0.0471 -0.0337,-0.12116 -0.0606,-0.23559 l -0.80775,0.61927 c 0.0539,0.14136 0.0808,0.18175 0.12116,0.24906 0.39715,0.63273 1.01642,0.69331 1.27894,0.69331 0.41733,0 0.67312,-0.14808 0.80774,-0.24905 0.37695,-0.29617 0.43753,-0.7337 0.45773,-0.88852 0.0269,-0.2154 0.0269,-0.4308 0.0269,-0.6462 z"
             id="path4932" /><path
             d="m 219.78008,104.12179 -1.86455,4.75225 h 1.10392 l 0.35002,-0.96257 h 1.97225 l 0.37022,0.96257 h 1.11738 l -1.95205,-4.75225 z m -0.0875,2.89443 c 0.11443,-0.30964 0.22213,-0.61927 0.32983,-0.92891 0.0808,-0.22886 0.2154,-0.61254 0.26925,-0.8414 0.0202,-0.0942 0.0337,-0.19521 0.0471,-0.28945 0.0471,0.32983 0.0942,0.48465 0.30964,1.09719 0.11443,0.31637 0.23559,0.63947 0.35002,0.96257 z"
             id="path4934" /><path
             d="m 223.23993,104.12179 v 4.75225 h 1.02988 v -1.80397 h 0.34329 c 0.50485,0 1.01642,0 1.4001,-0.37695 0.40387,-0.39041 0.43753,-0.86833 0.43753,-1.09046 0,-0.45772 -0.15482,-0.74043 -0.26252,-0.88852 -0.30963,-0.43753 -0.76736,-0.55869 -1.2722,-0.58562 -0.13463,-0.007 -0.26252,-0.007 -0.39714,-0.007 z m 1.03661,0.8616 h 0.4308 c 0.16155,0 0.24906,0.0135 0.3231,0.0269 0.14809,0.0404 0.41061,0.18175 0.41061,0.58562 0,0.12789 -0.0337,0.45772 -0.41061,0.56542 -0.11443,0.0337 -0.2154,0.0337 -0.34329,0.0337 h -0.41061 z"
             id="path4936" /><path
             d="m 227.91141,104.12179 -1.86455,4.75225 h 1.10392 l 0.35002,-0.96257 h 1.97225 l 0.37022,0.96257 h 1.11738 l -1.95205,-4.75225 z m -0.0875,2.89443 c 0.11443,-0.30964 0.22213,-0.61927 0.32983,-0.92891 0.0808,-0.22886 0.2154,-0.61254 0.26925,-0.8414 0.0202,-0.0942 0.0337,-0.19521 0.0471,-0.28945 0.0471,0.32983 0.0942,0.48465 0.30963,1.09719 0.11444,0.31637 0.2356,0.63947 0.35003,0.96257 z"
             id="path4938" /><path
             d="m 231.37126,104.12179 v 4.75225 h 0.97603 l -0.0471,-2.27516 c -0.007,-0.17501 -0.0135,-0.34329 -0.0202,-0.5183 -0.007,-0.18848 -0.0269,-0.38368 -0.0404,-0.57889 0.074,0.12116 0.14808,0.24906 0.22213,0.37022 0.13462,0.2154 0.28271,0.4308 0.4308,0.63947 l 1.65588,2.36266 h 0.92218 v -4.75225 h -0.9693 l 0.0202,1.93859 c 0.007,0.2154 0.007,0.4308 0.0202,0.6462 0.007,0.28945 0.0336,0.57889 0.0606,0.86833 -0.15482,-0.3231 -0.29618,-0.59908 -0.70005,-1.1847 l -1.5953,-2.26842 z"
             id="path4940" /></g><rect
           style="fill:#c24f44;fill-opacity:1;fill-rule:evenodd;stroke:none;stroke-width:9.61217;stroke-linecap:round;stroke-linejoin:round;stroke-dasharray:none;stroke-opacity:1;paint-order:markers fill stroke"
           id="rect5896"
           width="72.868607"
           height="1.0297277"
           x="185.58078"
           y="94.562965"
           transform="matrix(1.2014542,0,0,1.2014542,-123.41132,-19.451232)" /></g></g></g></svg>
